AnekMalayalam-ExpandedMedium.ufo
<glyph name="numbersign" format="2">
  <advance width="1510"/>
  <unicode hex="0023"/>
  <outline>
    <contour>
      <point x="453" y="0" type="line"/>
      <point x="663" y="1278" type="line"/>
      <point x="482" y="1278" type="line"/>
      <point x="272" y="0" type="line"/>
    </contour>
    <contour>
      <point x="1356" y="301" type="line"/>
      <point x="1356" y="457" type="line"/>
      <point x="77" y="457" type="line"/>
      <point x="77" y="301" type="line"/>
    </contour>
    <contour>
      <point x="1037" y="0" type="line"/>
      <point x="1240" y="1278" type="line"/>
      <point x="1058" y="1278" type="line"/>
      <point x="855" y="0" type="line"/>
    </contour>
    <contour>
      <point x="1433" y="820" type="line"/>
      <point x="1433" y="977" type="line"/>
      <point x="156" y="977" type="line"/>
      <point x="156" y="820" type="line"/>
    </contour>
  </outline>
</glyph>
<glyph name="dollar" format="2">
  <advance width="1460"/>
  <unicode hex="0024"/>
  <outline>
    <component base="S"/>
    <contour>
      <point x="821" y="1530" type="line"/>
      <point x="615" y="1530" type="line"/>
      <point x="615" y="1189" type="line"/>
      <point x="821" y="1189" type="line"/>
    </contour>
    <contour>
      <point x="821" y="100" type="line"/>
      <point x="615" y="100" type="line"/>
      <point x="615" y="-253" type="line"/>
      <point x="821" y="-253" type="line"/>
    </contour>
  </outline>
</glyph>
<glyph name="slash" format="2">
  <advance width="1166"/>
  <unicode hex="002F"/>
  <outline>
    <contour>
      <point x="236" y="-243" type="line"/>
      <point x="1149" y="1333" type="line"/>
      <point x="931" y="1333" type="line"/>
      <point x="17" y="-243" type="line"/>
    </contour>
  </outline>
</glyph>
<glyph name="two" format="2">
  <advance width="1302"/>
  <unicode hex="0032"/>
  <outline>
    <contour>
      <point x="1205" y="0" type="line"/>
      <point x="1205" y="183" type="line"/>
      <point x="325" y="183" type="line"/>
      <point x="416" y="144" type="line"/>
      <point x="416" y="193" type="line"/>
      <point x="749" y="381" type="line" smooth="yes"/>
      <point x="1023" y="536"/>
      <point x="1179" y="672"/>
      <point x="1179" y="893" type="curve" smooth="yes"/>
      <point x="1179" y="904" type="line" smooth="yes"/>
      <point x="1179" y="1162"/>
      <point x="990" y="1305"/>
      <point x="642" y="1305" type="curve" smooth="yes"/>
      <point x="416" y="1305"/>
      <point x="234" y="1240"/>
      <point x="120" y="1179" type="curve"/>
      <point x="95" y="977" type="line"/>
      <point x="226" y="1050"/>
      <point x="404" y="1119"/>
      <point x="608" y="1119" type="curve" smooth="yes"/>
      <point x="842" y="1119"/>
      <point x="950" y="1029"/>
      <point x="950" y="884" type="curve" smooth="yes"/>
      <point x="950" y="878" type="line" smooth="yes"/>
      <point x="950" y="716"/>
      <point x="798" y="615"/>
      <point x="576" y="486" type="curve" smooth="yes"/>
      <point x="88" y="203" type="line"/>
      <point x="88" y="0" type="line"/>
    </contour>
  </outline>
</glyph>
<glyph name="less" format="2">
  <advance width="1362"/>
  <unicode hex="003C"/>
  <outline>
    <contour>
      <point x="1196" y="831" type="line"/>
      <point x="1196" y="1022" type="line"/>
      <point x="141" y="747" type="line"/>
      <point x="141" y="458" type="line"/>
      <point x="1196" y="181" type="line"/>
      <point x="1196" y="373" type="line"/>
      <point x="303" y="593" type="line"/>
      <point x="303" y="614" type="line"/>
    </contour>
  </outline>
</glyph>
<glyph name="N" format="2">
  <advance width="1688"/>
  <unicode hex="004E"/>
  <anchor x="844" y="0" name="bottom"/>
  <anchor x="844" y="1278" name="top"/>
  <outline>
    <contour>
      <point x="185" y="1278" type="line"/>
      <point x="185" y="0" type="line"/>
      <point x="408" y="0" type="line"/>
      <point x="408" y="530" type="line"/>
      <point x="400" y="1078" type="line"/>
      <point x="418" y="1078" type="line"/>
      <point x="1191" y="0" type="line"/>
      <point x="1503" y="0" type="line"/>
      <point x="1503" y="1278" type="line"/>
      <point x="1281" y="1278" type="line"/>
      <point x="1281" y="725" type="line"/>
      <point x="1289" y="218" type="line"/>
      <point x="1271" y="218" type="line"/>
      <point x="510" y="1278" type="line"/>
    </contour>
  </outline>
</glyph>
<glyph name="T" format="2">
  <advance width="1489"/>
  <unicode hex="0054"/>
  <anchor x="745" y="0" name="bottom"/>
  <anchor x="745" y="639" name="center"/>
  <anchor x="745" y="1278" name="top"/>
  <outline>
    <contour>
      <point x="856" y="0" type="line"/>
      <point x="856" y="1207" type="line"/>
      <point x="633" y="1207" type="line"/>
      <point x="633" y="0" type="line"/>
    </contour>
    <contour>
      <point x="1405" y="1097" type="line"/>
      <point x="1405" y="1278" type="line"/>
      <point x="84" y="1278" type="line"/>
      <point x="84" y="1097" type="line"/>
    </contour>
  </outline>
</glyph>
<glyph name="grave" format="2">
  <advance width="701"/>
  <unicode hex="0060"/>
  <anchor x="509" y="1348" name="top"/>
  <outline>
    <contour>
      <point x="609" y="1099" type="line"/>
      <point x="609" y="1094" type="line"/>
      <point x="405" y="1094" type="line"/>
      <point x="96" y="1381" type="line"/>
      <point x="96" y="1387" type="line"/>
      <point x="349" y="1387" type="line"/>
    </contour>
  </outline>
</glyph>
<glyph name="bar" format="2">
  <advance width="608"/>
  <unicode hex="007C"/>
  <outline>
    <contour>
      <point x="399" y="1415" type="line"/>
      <point x="209" y="1415" type="line"/>
      <point x="209" y="-445" type="line"/>
      <point x="399" y="-445" type="line"/>
    </contour>
  </outline>
</glyph>
<glyph name="asciitilde" format="2">
  <advance width="1371"/>
  <unicode hex="007E"/>
  <outline>
    <contour>
      <point x="951" y="426" type="curve" smooth="yes"/>
      <point x="1149" y="426"/>
      <point x="1221" y="538"/>
      <point x="1221" y="724" type="curve" smooth="yes"/>
      <point x="1221" y="766" type="line"/>
      <point x="1061" y="766" type="line"/>
      <point x="1061" y="749" type="line" smooth="yes"/>
      <point x="1061" y="651"/>
      <point x="1029" y="599"/>
      <point x="940" y="599" type="curve" smooth="yes"/>
      <point x="784" y="599"/>
      <point x="622" y="740"/>
      <point x="420" y="740" type="curve" smooth="yes"/>
      <point x="221" y="740"/>
      <point x="150" y="625"/>
      <point x="150" y="442" type="curve" smooth="yes"/>
      <point x="150" y="400" type="line"/>
      <point x="309" y="400" type="line"/>
      <point x="309" y="417" type="line" smooth="yes"/>
      <point x="309" y="513"/>
      <point x="345" y="564"/>
      <point x="431" y="564" type="curve" smooth="yes"/>
      <point x="586" y="564"/>
      <point x="753" y="426"/>
    </contour>
  </outline>
</glyph>
<glyph name="guillemetright" format="2">
  <advance width="1285"/>
  <unicode hex="00BB"/>
  <outline>
    <contour>
      <point x="38" y="875" type="line"/>
      <point x="276" y="875" type="line"/>
      <point x="658" y="504" type="line"/>
      <point x="658" y="458" type="line"/>
      <point x="276" y="75" type="line"/>
      <point x="38" y="75" type="line"/>
      <point x="431" y="475" type="line"/>
    </contour>
    <contour>
      <point x="589" y="875" type="line"/>
      <point x="827" y="875" type="line"/>
      <point x="1209" y="504" type="line"/>
      <point x="1209" y="458" type="line"/>
      <point x="827" y="75" type="line"/>
      <point x="589" y="75" type="line"/>
      <point x="982" y="475" type="line"/>
    </contour>
  </outline>
</glyph>
<glyph name="macroncomb" format="2">
  <advance width="940"/>
  <unicode hex="0304"/>
  <anchor x="470" y="958" name="_top"/>
  <anchor x="470" y="1307" name="top"/>
  <outline>
    <contour>
      <point x="823" y="1152" type="line"/>
      <point x="823" y="1298" type="line"/>
      <point x="117" y="1298" type="line"/>
      <point x="117" y="1152" type="line"/>
    </contour>
  </outline>
</glyph>
<glyph name="Chandrabindu.mlm" format="2">
  <unicode hex="0D01"/>
  <outline>
    <contour>
      <point x="-732" y="1470" type="curve" smooth="yes"/>
      <point x="-927.725" y="1470"/>
      <point x="-1039" y="1562.88"/>
      <point x="-1039" y="1733" type="curve" smooth="yes"/>
      <point x="-1039" y="1759" type="line"/>
      <point x="-1209" y="1759" type="line"/>
      <point x="-1209" y="1726" type="line" smooth="yes"/>
      <point x="-1209" y="1463.6"/>
      <point x="-1034" y="1323"/>
      <point x="-732" y="1323" type="curve" smooth="yes"/>
      <point x="-431" y="1323"/>
      <point x="-254" y="1463.6"/>
      <point x="-254" y="1726" type="curve" smooth="yes"/>
      <point x="-254" y="1759" type="line"/>
      <point x="-425" y="1759" type="line"/>
      <point x="-425" y="1733" type="line" smooth="yes"/>
      <point x="-425" y="1562.88"/>
      <point x="-536.275" y="1470"/>
    </contour>
    <contour>
      <point x="-850" y="1761" type="line" smooth="yes"/>
      <point x="-850" y="1682"/>
      <point x="-808.305" y="1636"/>
      <point x="-730" y="1636" type="curve" smooth="yes"/>
      <point x="-652.723" y="1636"/>
      <point x="-609" y="1682"/>
      <point x="-609" y="1761" type="curve" smooth="yes"/>
      <point x="-609" y="1765" type="line" smooth="yes"/>
      <point x="-609" y="1848"/>
      <point x="-652.723" y="1891"/>
      <point x="-730" y="1891" type="curve" smooth="yes"/>
      <point x="-808.305" y="1891"/>
      <point x="-850" y="1848"/>
      <point x="-850" y="1765" type="curve" smooth="yes"/>
    </contour>
  </outline>
</glyph>
<glyph name="Anuswara.mlm" format="2">
  <advance width="1205"/>
  <unicode hex="0D02"/>
  <outline>
    <contour>
      <point x="890" y="378" type="curve" smooth="yes"/>
      <point x="890" y="365" type="line" smooth="yes"/>
      <point x="890" y="218"/>
      <point x="790" y="137"/>
      <point x="603" y="137" type="curve" smooth="yes"/>
      <point x="416" y="137"/>
      <point x="315" y="218"/>
      <point x="315" y="365" type="curve" smooth="yes"/>
      <point x="315" y="378" type="line" smooth="yes"/>
      <point x="315" y="524"/>
      <point x="416" y="606"/>
      <point x="603" y="606" type="curve" smooth="yes"/>
      <point x="790" y="606"/>
      <point x="890" y="524"/>
    </contour>
    <contour>
      <point x="113" y="379" type="curve" smooth="yes"/>
      <point x="113" y="364" type="line" smooth="yes"/>
      <point x="113" y="106"/>
      <point x="284" y="-33"/>
      <point x="603" y="-33" type="curve" smooth="yes"/>
      <point x="922" y="-33"/>
      <point x="1092" y="106"/>
      <point x="1092" y="364" type="curve" smooth="yes"/>
      <point x="1092" y="379" type="line" smooth="yes"/>
      <point x="1092" y="636"/>
      <point x="922" y="776"/>
      <point x="603" y="776" type="curve" smooth="yes"/>
      <point x="284" y="776"/>
      <point x="113" y="636"/>
    </contour>
  </outline>
</glyph>
<glyph name="uni0D04" format="2">
  <advance width="1565"/>
  <unicode hex="0D04"/>
  <outline>
    <contour>
      <point x="782" y="1029" type="curve" smooth="yes"/>
      <point x="715" y="1029"/>
      <point x="677" y="988"/>
      <point x="677" y="899" type="curve" smooth="yes"/>
      <point x="677" y="714" type="line" smooth="yes"/>
      <point x="677" y="626"/>
      <point x="715" y="586"/>
      <point x="782" y="586" type="curve" smooth="yes"/>
      <point x="849" y="586"/>
      <point x="888" y="626"/>
      <point x="888" y="714" type="curve" smooth="yes"/>
      <point x="888" y="899" type="line" smooth="yes"/>
      <point x="888" y="988"/>
      <point x="849" y="1029"/>
    </contour>
    <contour>
      <point x="782" y="109" type="curve" smooth="yes"/>
      <point x="1213" y="109"/>
      <point x="1433" y="314"/>
      <point x="1433" y="728" type="curve" smooth="yes"/>
      <point x="1433" y="838" type="line"/>
      <point x="1234" y="838" type="line"/>
      <point x="1234" y="742" type="line" smooth="yes"/>
      <point x="1234" y="434"/>
      <point x="1086" y="283"/>
      <point x="782" y="283" type="curve" smooth="yes"/>
      <point x="477" y="283"/>
      <point x="331" y="434"/>
      <point x="331" y="742" type="curve" smooth="yes"/>
      <point x="331" y="838" type="line"/>
      <point x="132" y="838" type="line"/>
      <point x="132" y="728" type="line" smooth="yes"/>
      <point x="132" y="314"/>
      <point x="351" y="109"/>
    </contour>
  </outline>
</glyph>
<glyph name="vowelRu.mlm" format="2">
  <advance width="2091"/>
  <unicode hex="0D0B"/>
  <outline>
    <contour>
      <point x="553" y="1169" type="curve" smooth="yes"/>
      <point x="250" y="1169"/>
      <point x="106" y="1014"/>
      <point x="106" y="753" type="curve" smooth="yes"/>
      <point x="106" y="734" type="line" smooth="yes"/>
      <point x="106" y="441"/>
      <point x="297" y="284"/>
      <point x="604" y="243" type="curve" smooth="yes"/>
      <point x="634" y="239"/>
      <point x="662" y="223"/>
      <point x="691" y="215" type="curve"/>
      <point x="976" y="334" type="line"/>
      <point x="521" y="334"/>
      <point x="292" y="468"/>
      <point x="292" y="709" type="curve" smooth="yes"/>
      <point x="292" y="715" type="line"/>
      <point x="306" y="715" type="line"/>
      <point x="301" y="756" type="line"/>
      <point x="301" y="778" type="line" smooth="yes"/>
      <point x="301" y="924"/>
      <point x="385" y="1014"/>
      <point x="549" y="1014" type="curve" smooth="yes"/>
      <point x="681" y="1014"/>
      <point x="760" y="954"/>
      <point x="760" y="846" type="curve" smooth="yes"/>
      <point x="760" y="840" type="line" smooth="yes"/>
      <point x="760" y="741"/>
      <point x="685" y="683"/>
      <point x="557" y="683" type="curve" smooth="yes"/>
      <point x="432" y="683"/>
      <point x="344" y="730"/>
      <point x="300" y="806" type="curve"/>
      <point x="292" y="735" type="line"/>
      <point x="327" y="619"/>
      <point x="442" y="538"/>
      <point x="609" y="538" type="curve" smooth="yes"/>
      <point x="831" y="538"/>
      <point x="953" y="649"/>
      <point x="953" y="836" type="curve" smooth="yes"/>
      <point x="953" y="846" type="line" smooth="yes"/>
      <point x="953" y="1053"/>
      <point x="813" y="1169"/>
    </contour>
    <contour>
      <point x="1141" y="-381" type="line" smooth="yes"/>
      <point x="1583" y="-381"/>
      <point x="1815" y="-271"/>
      <point x="1815" y="-45" type="curve" smooth="yes"/>
      <point x="1815" y="116"/>
      <point x="1703" y="212"/>
      <point x="1488" y="238" type="curve"/>
      <point x="1488" y="260" type="line"/>
      <point x="1186" y="334" type="line"/>
      <point x="905" y="334" type="line"/>
      <point x="604" y="260" type="line"/>
      <point x="604" y="237" type="line"/>
      <point x="389" y="210"/>
      <point x="276" y="116"/>
      <point x="276" y="-45" type="curve" smooth="yes"/>
      <point x="276" y="-271"/>
      <point x="508" y="-381"/>
      <point x="949" y="-381" type="curve" smooth="yes"/>
    </contour>
    <contour>
      <point x="1133" y="174" type="line" smooth="yes"/>
      <point x="1451" y="174"/>
      <point x="1612" y="113"/>
      <point x="1612" y="-24" type="curve" smooth="yes"/>
      <point x="1612" y="-161"/>
      <point x="1451" y="-221"/>
      <point x="1133" y="-221" type="curve" smooth="yes"/>
      <point x="959" y="-221" type="line" smooth="yes"/>
      <point x="641" y="-221"/>
      <point x="479" y="-161"/>
      <point x="479" y="-24" type="curve" smooth="yes"/>
      <point x="479" y="113"/>
      <point x="641" y="174"/>
      <point x="959" y="174" type="curve" smooth="yes"/>
    </contour>
    <contour>
      <point x="1799" y="709" type="line" smooth="yes"/>
      <point x="1799" y="468"/>
      <point x="1571" y="334"/>
      <point x="1116" y="334" type="curve"/>
      <point x="1401" y="215" type="line"/>
      <point x="1431" y="223"/>
      <point x="1458" y="240"/>
      <point x="1488" y="244" type="curve" smooth="yes"/>
      <point x="1795" y="285"/>
      <point x="1985" y="442"/>
      <point x="1985" y="734" type="curve" smooth="yes"/>
      <point x="1985" y="753" type="line" smooth="yes"/>
      <point x="1985" y="1014"/>
      <point x="1842" y="1169"/>
      <point x="1539" y="1169" type="curve" smooth="yes"/>
      <point x="1279" y="1169"/>
      <point x="1138" y="1053"/>
      <point x="1138" y="846" type="curve" smooth="yes"/>
      <point x="1138" y="836" type="line" smooth="yes"/>
      <point x="1138" y="649"/>
      <point x="1262" y="538"/>
      <point x="1483" y="538" type="curve" smooth="yes"/>
      <point x="1651" y="538"/>
      <point x="1766" y="619"/>
      <point x="1800" y="734" type="curve"/>
      <point x="1792" y="805" type="line"/>
      <point x="1749" y="730"/>
      <point x="1661" y="683"/>
      <point x="1535" y="683" type="curve" smooth="yes"/>
      <point x="1407" y="683"/>
      <point x="1331" y="741"/>
      <point x="1331" y="840" type="curve" smooth="yes"/>
      <point x="1331" y="846" type="line" smooth="yes"/>
      <point x="1331" y="954"/>
      <point x="1410" y="1014"/>
      <point x="1542" y="1014" type="curve" smooth="yes"/>
      <point x="1707" y="1014"/>
      <point x="1791" y="924"/>
      <point x="1791" y="778" type="curve" smooth="yes"/>
      <point x="1791" y="756" type="line"/>
      <point x="1785" y="715" type="line"/>
      <point x="1799" y="715" type="line"/>
    </contour>
  </outline>
</glyph>
<glyph name="vowelLru.mlm" format="2">
  <advance width="2979"/>
  <unicode hex="0D0C"/>
  <outline>
    <contour>
      <point x="862" y="1169" type="curve" smooth="yes"/>
      <point x="375" y="1169"/>
      <point x="130" y="937"/>
      <point x="130" y="490" type="curve" smooth="yes"/>
      <point x="130" y="477" type="line" smooth="yes"/>
      <point x="130" y="146"/>
      <point x="298" y="-36"/>
      <point x="617" y="-36" type="curve" smooth="yes"/>
      <point x="912" y="-36"/>
      <point x="1071" y="98"/>
      <point x="1071" y="344" type="curve" smooth="yes"/>
      <point x="1071" y="354" type="line" smooth="yes"/>
      <point x="1071" y="587"/>
      <point x="932" y="712"/>
      <point x="697" y="712" type="curve" smooth="yes"/>
      <point x="490" y="712"/>
      <point x="356" y="620"/>
      <point x="321" y="461" type="curve"/>
      <point x="334" y="401" type="line"/>
      <point x="381" y="492"/>
      <point x="480" y="549"/>
      <point x="618" y="549" type="curve" smooth="yes"/>
      <point x="779" y="549"/>
      <point x="868" y="476"/>
      <point x="868" y="347" type="curve" smooth="yes"/>
      <point x="868" y="338" type="line" smooth="yes"/>
      <point x="868" y="206"/>
      <point x="777" y="129"/>
      <point x="617" y="129" type="curve" smooth="yes"/>
      <point x="433" y="129"/>
      <point x="335" y="231"/>
      <point x="335" y="421" type="curve" smooth="yes"/>
      <point x="335" y="430" type="line"/>
      <point x="351" y="497" type="line"/>
      <point x="324" y="497" type="line"/>
      <point x="324" y="498" type="line"/>
      <point x="324" y="833"/>
      <point x="511" y="995"/>
      <point x="865" y="995" type="curve" smooth="yes"/>
      <point x="1209" y="995"/>
      <point x="1385" y="849"/>
      <point x="1385" y="580" type="curve" smooth="yes"/>
      <point x="1385" y="521" type="line"/>
      <point x="1484" y="521" type="line"/>
      <point x="1484" y="826" type="line"/>
      <point x="1430" y="1047"/>
      <point x="1219" y="1169"/>
    </contour>
    <contour>
      <point x="1385" y="6" type="line"/>
      <point x="1589" y="6" type="line"/>
      <point x="1589" y="568" type="line"/>
      <point x="1385" y="566" type="line"/>
    </contour>
    <contour>
      <point x="2115" y="1169" type="curve" smooth="yes"/>
      <point x="1757" y="1169"/>
      <point x="1546" y="1047"/>
      <point x="1490" y="826" type="curve"/>
      <point x="1460" y="826" type="line"/>
      <point x="1468" y="521" type="line"/>
      <point x="1589" y="490" type="line"/>
      <point x="1589" y="580" type="line" smooth="yes"/>
      <point x="1589" y="849"/>
      <point x="1764" y="995"/>
      <point x="2103" y="995" type="curve" smooth="yes"/>
      <point x="2463.22" y="995"/>
      <point x="2636.63" y="817.517"/>
      <point x="2651" y="572" type="curve"/>
      <point x="2651" y="572" type="line"/>
      <point x="2635" y="572" type="line"/>
      <point x="2650" y="513" type="line"/>
      <point x="2650" y="485" type="line" smooth="yes"/>
      <point x="2650" y="247"/>
      <point x="2562.62" y="129"/>
      <point x="2369" y="129" type="curve" smooth="yes"/>
      <point x="2208.36" y="129"/>
      <point x="2111" y="212.405"/>
      <point x="2111" y="354" type="curve" smooth="yes"/>
      <point x="2111" y="364" type="line" smooth="yes"/>
      <point x="2111" y="506.905"/>
      <point x="2200.27" y="589"/>
      <point x="2369" y="589" type="curve" smooth="yes"/>
      <point x="2491.28" y="589"/>
      <point x="2582.99" y="550.563"/>
      <point x="2653" y="482" type="curve"/>
      <point x="2654" y="551" type="line"/>
      <point x="2609.52" y="667.327"/>
      <point x="2482.02" y="751"/>
      <point x="2314" y="751" type="curve" smooth="yes"/>
      <point x="2061.11" y="751"/>
      <point x="1907" y="617.855"/>
      <point x="1907" y="370" type="curve" smooth="yes"/>
      <point x="1907" y="358" type="line" smooth="yes"/>
      <point x="1907" y="103.233"/>
      <point x="2074.16" y="-36"/>
      <point x="2362" y="-36" type="curve" smooth="yes"/>
      <point x="2689.32" y="-36"/>
      <point x="2850" y="150"/>
      <point x="2850" y="491" type="curve" smooth="yes"/>
      <point x="2850" y="510" type="line" smooth="yes"/>
      <point x="2850" y="924.229"/>
      <point x="2605.95" y="1169"/>
    </contour>
  </outline>
</glyph>
<glyph name="Ka.mlm" format="2">
  <advance width="2559"/>
  <unicode hex="0D15"/>
  <outline>
    <contour>
      <point x="1296" y="137" type="curve" smooth="yes"/>
      <point x="1057" y="137"/>
      <point x="935" y="267"/>
      <point x="935" y="530" type="curve" smooth="yes"/>
      <point x="935" y="618" type="line" smooth="yes"/>
      <point x="935" y="879"/>
      <point x="1056" y="1009"/>
      <point x="1296" y="1009" type="curve" smooth="yes"/>
      <point x="1536" y="1009"/>
      <point x="1657" y="879"/>
      <point x="1657" y="618" type="curve" smooth="yes"/>
      <point x="1657" y="530" type="line" smooth="yes"/>
      <point x="1657" y="267"/>
      <point x="1535" y="137"/>
    </contour>
    <contour>
      <point x="1296" y="1178" type="curve" smooth="yes"/>
      <point x="928" y="1178"/>
      <point x="737" y="989"/>
      <point x="737" y="615" type="curve" smooth="yes"/>
      <point x="737" y="528" type="line" smooth="yes"/>
      <point x="737" y="408"/>
      <point x="757" y="307"/>
      <point x="794" y="227" type="curve"/>
      <point x="819" y="194" type="line"/>
      <point x="906" y="42"/>
      <point x="1069" y="-33"/>
      <point x="1296" y="-33" type="curve" smooth="yes"/>
      <point x="1664" y="-33"/>
      <point x="1855" y="156"/>
      <point x="1855" y="528" type="curve" smooth="yes"/>
      <point x="1855" y="615" type="line" smooth="yes"/>
      <point x="1855" y="989"/>
      <point x="1664" y="1178"/>
    </contour>
    <contour>
      <point x="2240" y="327" type="curve" smooth="yes"/>
      <point x="2240" y="314" type="line" smooth="yes"/>
      <point x="2240" y="194"/>
      <point x="2198" y="87"/>
      <point x="2127" y="0" type="curve"/>
      <point x="2336" y="0" type="line"/>
      <point x="2406" y="85"/>
      <point x="2443" y="204"/>
      <point x="2443" y="325" type="curve" smooth="yes"/>
      <point x="2443" y="338" type="line" smooth="yes"/>
      <point x="2443" y="584"/>
      <point x="2298" y="710"/>
      <point x="2024" y="710" type="curve" smooth="yes"/>
      <point x="1815" y="710" type="line"/>
      <point x="1721" y="710" type="line"/>
      <point x="850" y="710" type="line"/>
      <point x="798" y="711" type="line"/>
      <point x="574" y="711" type="line" smooth="yes"/>
      <point x="270" y="711"/>
      <point x="114" y="587"/>
      <point x="114" y="341" type="curve" smooth="yes"/>
      <point x="114" y="327" type="line" smooth="yes"/>
      <point x="114" y="93"/>
      <point x="246" y="-33"/>
      <point x="490" y="-33" type="curve" smooth="yes"/>
      <point x="680" y="-33"/>
      <point x="783" y="46"/>
      <point x="821" y="180" type="curve"/>
      <point x="859" y="186" type="line"/>
      <point x="778" y="287" type="line"/>
      <point x="753" y="201"/>
      <point x="682" y="132"/>
      <point x="542" y="132" type="curve" smooth="yes"/>
      <point x="395" y="132"/>
      <point x="316" y="202"/>
      <point x="316" y="335" type="curve" smooth="yes"/>
      <point x="316" y="345" type="line" smooth="yes"/>
      <point x="316" y="482"/>
      <point x="406" y="549"/>
      <point x="580" y="549" type="curve" smooth="yes"/>
      <point x="802" y="549" type="line"/>
      <point x="845" y="548" type="line"/>
      <point x="1733" y="548" type="line"/>
      <point x="1778" y="548" type="line"/>
      <point x="1984" y="548" type="line" smooth="yes"/>
      <point x="2152" y="548"/>
      <point x="2240" y="474"/>
    </contour>
  </outline>
</glyph>
<glyph name="Gha.mlm" format="2">
  <advance width="3333"/>
  <unicode hex="0D18"/>
  <outline>
    <contour>
      <point x="1006" y="595" type="line"/>
      <point x="797" y="436" type="line"/>
      <point x="1412" y="436" type="line"/>
      <point x="1412" y="595" type="line"/>
    </contour>
    <contour>
      <point x="606" y="1120" type="curve" smooth="yes"/>
      <point x="283" y="1120"/>
      <point x="120" y="982.673"/>
      <point x="120" y="706" type="curve" smooth="yes"/>
      <point x="120" y="693" type="line" smooth="yes"/>
      <point x="120" y="596.502"/>
      <point x="148" y="501.973"/>
      <point x="201" y="436" type="curve"/>
      <point x="411" y="436" type="line"/>
      <point x="351" y="514.76"/>
      <point x="322" y="597.457"/>
      <point x="322" y="690" type="curve" smooth="yes"/>
      <point x="322" y="699" type="line" smooth="yes"/>
      <point x="322" y="861.623"/>
      <point x="415" y="947"/>
      <point x="606" y="947" type="curve" smooth="yes"/>
      <point x="798" y="947"/>
      <point x="891" y="861.623"/>
      <point x="891" y="699" type="curve" smooth="yes"/>
      <point x="891" y="690" type="line" smooth="yes"/>
      <point x="891" y="601.463"/>
      <point x="859" y="521.78"/>
      <point x="797" y="448" type="curve"/>
      <point x="797" y="436" type="line"/>
      <point x="948" y="436" type="line"/>
      <point x="1044.43" y="507.703"/>
      <point x="1094" y="610.414"/>
      <point x="1094" y="717" type="curve" smooth="yes"/>
      <point x="1094" y="730" type="line" smooth="yes"/>
      <point x="1094" y="991.024"/>
      <point x="930" y="1120"/>
    </contour>
    <contour>
      <point x="2333" y="595" type="line"/>
      <point x="1589" y="595" type="line"/>
      <point x="1589" y="655" type="line" smooth="yes"/>
      <point x="1589" y="885"/>
      <point x="1716" y="1002"/>
      <point x="1962" y="1002" type="curve" smooth="yes"/>
      <point x="2208" y="1002"/>
      <point x="2333" y="885"/>
      <point x="2333" y="655" type="curve" smooth="yes"/>
    </contour>
    <contour>
      <point x="1962" y="1171" type="curve" smooth="yes"/>
      <point x="1583" y="1171"/>
      <point x="1385" y="996"/>
      <point x="1385" y="652" type="curve" smooth="yes"/>
      <point x="1385" y="0" type="line"/>
      <point x="3149" y="0" type="line"/>
      <point x="3149" y="1130" type="line"/>
      <point x="2944" y="1130" type="line"/>
      <point x="2944" y="160" type="line"/>
      <point x="1589" y="160" type="line"/>
      <point x="1589" y="436" type="line"/>
      <point x="2536" y="436" type="line"/>
      <point x="2536" y="652" type="line" smooth="yes"/>
      <point x="2536" y="996"/>
      <point x="2341" y="1171"/>
    </contour>
  </outline>
</glyph>
<glyph name="Nga.mlm" format="2">
  <advance width="2829"/>
  <unicode hex="0D19"/>
  <outline>
    <contour>
      <point x="1385" y="6" type="line"/>
      <point x="1589" y="6" type="line"/>
      <point x="1589" y="581" type="line"/>
      <point x="1385" y="572" type="line"/>
    </contour>
    <contour>
      <point x="861" y="1169" type="curve" smooth="yes"/>
      <point x="375" y="1169"/>
      <point x="130" y="937"/>
      <point x="130" y="490" type="curve" smooth="yes"/>
      <point x="130" y="477" type="line" smooth="yes"/>
      <point x="130" y="146"/>
      <point x="298" y="-36"/>
      <point x="617" y="-36" type="curve" smooth="yes"/>
      <point x="912" y="-36"/>
      <point x="1071" y="98"/>
      <point x="1071" y="344" type="curve" smooth="yes"/>
      <point x="1071" y="354" type="line" smooth="yes"/>
      <point x="1071" y="587"/>
      <point x="932" y="712"/>
      <point x="697" y="712" type="curve" smooth="yes"/>
      <point x="490" y="712"/>
      <point x="356" y="620"/>
      <point x="321" y="461" type="curve"/>
      <point x="334" y="401" type="line"/>
      <point x="381" y="492"/>
      <point x="480" y="549"/>
      <point x="618" y="549" type="curve" smooth="yes"/>
      <point x="779" y="549"/>
      <point x="868" y="476"/>
      <point x="868" y="347" type="curve" smooth="yes"/>
      <point x="868" y="338" type="line" smooth="yes"/>
      <point x="868" y="206"/>
      <point x="777" y="129"/>
      <point x="617" y="129" type="curve" smooth="yes"/>
      <point x="433" y="129"/>
      <point x="335" y="231"/>
      <point x="335" y="421" type="curve" smooth="yes"/>
      <point x="335" y="430" type="line"/>
      <point x="351" y="497" type="line"/>
      <point x="324" y="497" type="line"/>
      <point x="324" y="498" type="line"/>
      <point x="324" y="833"/>
      <point x="511" y="995"/>
      <point x="866" y="995" type="curve" smooth="yes"/>
      <point x="1208" y="995"/>
      <point x="1385" y="859"/>
      <point x="1385" y="605" type="curve" smooth="yes"/>
      <point x="1385" y="526" type="line"/>
      <point x="1484" y="526" type="line"/>
      <point x="1483" y="843" type="line"/>
      <point x="1426" y="1053"/>
      <point x="1213" y="1169"/>
    </contour>
    <contour>
      <point x="2078" y="1169" type="curve" smooth="yes"/>
      <point x="1727" y="1169"/>
      <point x="1531" y="1047"/>
      <point x="1489" y="843" type="curve"/>
      <point x="1445" y="843" type="line"/>
      <point x="1447" y="445" type="line"/>
      <point x="1589" y="439" type="line"/>
      <point x="1589" y="632" type="line" smooth="yes"/>
      <point x="1589" y="877"/>
      <point x="1743" y="997"/>
      <point x="2069" y="997" type="curve" smooth="yes"/>
      <point x="2334" y="997"/>
      <point x="2465" y="932"/>
      <point x="2465" y="806" type="curve" smooth="yes"/>
      <point x="2465" y="801" type="line" smooth="yes"/>
      <point x="2465" y="702"/>
      <point x="2385" y="654"/>
      <point x="2221" y="651" type="curve" smooth="yes"/>
      <point x="1955" y="646" type="line"/>
      <point x="1955" y="483" type="line"/>
      <point x="2221" y="477" type="line" smooth="yes"/>
      <point x="2402" y="473"/>
      <point x="2489" y="422"/>
      <point x="2489" y="317" type="curve" smooth="yes"/>
      <point x="2489" y="309" type="line" smooth="yes"/>
      <point x="2489" y="195"/>
      <point x="2398" y="138"/>
      <point x="2213" y="138" type="curve" smooth="yes"/>
      <point x="2092" y="138"/>
      <point x="1987" y="150"/>
      <point x="1871" y="183" type="curve"/>
      <point x="1897" y="16" type="line"/>
      <point x="2003" y="-17"/>
      <point x="2117" y="-30"/>
      <point x="2236" y="-30" type="curve" smooth="yes"/>
      <point x="2546" y="-30"/>
      <point x="2699" y="74"/>
      <point x="2699" y="283" type="curve" smooth="yes"/>
      <point x="2699" y="293" type="line" smooth="yes"/>
      <point x="2699" y="444"/>
      <point x="2596" y="539"/>
      <point x="2392" y="562" type="curve"/>
      <point x="2392" y="568" type="line"/>
      <point x="2581" y="589"/>
      <point x="2674" y="675"/>
      <point x="2674" y="821" type="curve" smooth="yes"/>
      <point x="2674" y="828" type="line" smooth="yes"/>
      <point x="2674" y="1055"/>
      <point x="2474" y="1169"/>
    </contour>
  </outline>
</glyph>
<glyph name="Ca.mlm" format="2">
  <advance width="2166"/>
  <unicode hex="0D1A"/>
  <outline>
    <contour>
      <point x="53" y="163" type="line"/>
      <point x="85" y="0" type="line"/>
      <point x="1820" y="0" type="line"/>
      <point x="1820" y="163" type="line"/>
    </contour>
    <contour>
      <point x="832" y="154" type="curve"/>
      <point x="999" y="111" type="line"/>
      <point x="1205" y="164"/>
      <point x="1304" y="306"/>
      <point x="1304" y="481" type="curve" smooth="yes"/>
      <point x="1304" y="494" type="line" smooth="yes"/>
      <point x="1304" y="768"/>
      <point x="1135" y="904"/>
      <point x="809" y="904" type="curve" smooth="yes"/>
      <point x="490" y="904"/>
      <point x="323" y="779"/>
      <point x="323" y="537" type="curve" smooth="yes"/>
      <point x="323" y="530" type="line" smooth="yes"/>
      <point x="323" y="466"/>
      <point x="339" y="415"/>
      <point x="361" y="375" type="curve"/>
      <point x="558" y="375" type="line"/>
      <point x="540" y="414"/>
      <point x="525" y="460"/>
      <point x="525" y="511" type="curve" smooth="yes"/>
      <point x="525" y="516" type="line" smooth="yes"/>
      <point x="525" y="654"/>
      <point x="620" y="727"/>
      <point x="808" y="727" type="curve" smooth="yes"/>
      <point x="1000" y="727"/>
      <point x="1096" y="647"/>
      <point x="1096" y="490" type="curve" smooth="yes"/>
      <point x="1096" y="475" type="line" smooth="yes"/>
      <point x="1096" y="329"/>
      <point x="1000" y="209"/>
    </contour>
    <contour>
      <point x="1777" y="1130" type="line"/>
      <point x="1777" y="0" type="line"/>
      <point x="1982" y="0" type="line"/>
      <point x="1982" y="1130" type="line"/>
    </contour>
  </outline>
</glyph>
<glyph name="Cha.mlm" format="2">
  <advance width="3337"/>
  <unicode hex="0D1B"/>
  <outline>
    <contour>
      <point x="53" y="163" type="line"/>
      <point x="85" y="0" type="line"/>
      <point x="1820" y="0" type="line"/>
      <point x="1820" y="163" type="line"/>
    </contour>
    <contour>
      <point x="832" y="154" type="curve"/>
      <point x="999" y="111" type="line"/>
      <point x="1205" y="164"/>
      <point x="1304" y="306"/>
      <point x="1304" y="481" type="curve" smooth="yes"/>
      <point x="1304" y="494" type="line" smooth="yes"/>
      <point x="1304" y="768"/>
      <point x="1135" y="904"/>
      <point x="809" y="904" type="curve" smooth="yes"/>
      <point x="490" y="904"/>
      <point x="323" y="779"/>
      <point x="323" y="537" type="curve" smooth="yes"/>
      <point x="323" y="530" type="line" smooth="yes"/>
      <point x="323" y="466"/>
      <point x="339" y="415"/>
      <point x="361" y="375" type="curve"/>
      <point x="558" y="375" type="line"/>
      <point x="540" y="414"/>
      <point x="525" y="460"/>
      <point x="525" y="511" type="curve" smooth="yes"/>
      <point x="525" y="516" type="line" smooth="yes"/>
      <point x="525" y="654"/>
      <point x="620" y="727"/>
      <point x="808" y="727" type="curve" smooth="yes"/>
      <point x="1000" y="727"/>
      <point x="1096" y="647"/>
      <point x="1096" y="490" type="curve" smooth="yes"/>
      <point x="1096" y="475" type="line" smooth="yes"/>
      <point x="1096" y="329"/>
      <point x="1000" y="209"/>
    </contour>
    <contour>
      <point x="1801" y="163" type="line"/>
      <point x="1568" y="163" type="line"/>
      <point x="1568" y="0" type="line"/>
      <point x="2000" y="0" type="line"/>
    </contour>
    <contour>
      <point x="1641" y="482" type="line" smooth="yes"/>
      <point x="1641" y="283.2"/>
      <point x="1709" y="120.008"/>
      <point x="1833" y="0" type="curve"/>
      <point x="2000" y="0" type="line"/>
      <point x="2000" y="12" type="line"/>
      <point x="1902" y="150"/>
      <point x="1850" y="301"/>
      <point x="1850" y="468" type="curve" smooth="yes"/>
      <point x="1850" y="484" type="line" smooth="yes"/>
      <point x="1850" y="828"/>
      <point x="2047" y="1001"/>
      <point x="2437" y="1001" type="curve" smooth="yes"/>
      <point x="2813" y="1001"/>
      <point x="2994" y="821"/>
      <point x="3009" y="572" type="curve"/>
      <point x="3009" y="572" type="line"/>
      <point x="2993" y="572" type="line"/>
      <point x="3008" y="513" type="line"/>
      <point x="3008" y="485" type="line" smooth="yes"/>
      <point x="3008" y="247"/>
      <point x="2919.38" y="129"/>
      <point x="2723" y="129" type="curve" smooth="yes"/>
      <point x="2559.25" y="129"/>
      <point x="2460" y="212.405"/>
      <point x="2460" y="354" type="curve" smooth="yes"/>
      <point x="2460" y="364" type="line" smooth="yes"/>
      <point x="2460" y="506.905"/>
      <point x="2551" y="589"/>
      <point x="2723" y="589" type="curve" smooth="yes"/>
      <point x="2847" y="589"/>
      <point x="2940" y="550.563"/>
      <point x="3011" y="482" type="curve"/>
      <point x="3012" y="551" type="line"/>
      <point x="2967" y="667.327"/>
      <point x="2838" y="751"/>
      <point x="2668" y="751" type="curve" smooth="yes"/>
      <point x="2412" y="751"/>
      <point x="2256" y="617.855"/>
      <point x="2256" y="370" type="curve" smooth="yes"/>
      <point x="2256" y="358" type="line" smooth="yes"/>
      <point x="2256" y="103.233"/>
      <point x="2425" y="-36"/>
      <point x="2716" y="-36" type="curve" smooth="yes"/>
      <point x="3046" y="-36"/>
      <point x="3208" y="150"/>
      <point x="3208" y="491" type="curve" smooth="yes"/>
      <point x="3208" y="510" type="line" smooth="yes"/>
      <point x="3208" y="928"/>
      <point x="2950" y="1175"/>
      <point x="2431" y="1175" type="curve" smooth="yes"/>
      <point x="1907" y="1175"/>
      <point x="1641" y="938.206"/>
      <point x="1641" y="497" type="curve" smooth="yes"/>
    </contour>
  </outline>
</glyph>
<glyph name="Ja.mlm" format="2">
  <advance width="2314"/>
  <unicode hex="0D1C"/>
  <outline>
    <contour>
      <point x="1381" y="4" type="line"/>
      <point x="1493" y="-50"/>
      <point x="1632" y="-87"/>
      <point x="1793" y="-87" type="curve" smooth="yes"/>
      <point x="2051" y="-87"/>
      <point x="2177" y="6"/>
      <point x="2177" y="185" type="curve" smooth="yes"/>
      <point x="2177" y="188" type="line" smooth="yes"/>
      <point x="2177" y="332"/>
      <point x="2095" y="418"/>
      <point x="1928" y="443" type="curve" smooth="yes"/>
      <point x="1914" y="445"/>
      <point x="1901" y="456"/>
      <point x="1886" y="459" type="curve" smooth="yes"/>
      <point x="1863" y="463"/>
      <point x="1838" y="462"/>
      <point x="1811" y="462" type="curve" smooth="yes"/>
      <point x="1638" y="462"/>
      <point x="1501" y="411"/>
      <point x="1331" y="344" type="curve" smooth="yes"/>
      <point x="900" y="174" type="line" smooth="yes"/>
      <point x="772" y="123"/>
      <point x="636" y="73"/>
      <point x="502" y="73" type="curve" smooth="yes"/>
      <point x="395" y="73"/>
      <point x="341" y="107"/>
      <point x="341" y="184" type="curve" smooth="yes"/>
      <point x="341" y="187" type="line" smooth="yes"/>
      <point x="341" y="258"/>
      <point x="390" y="299"/>
      <point x="478" y="302" type="curve"/>
      <point x="309" y="371" type="line"/>
      <point x="309" y="344" type="line"/>
      <point x="204" y="325"/>
      <point x="136" y="263"/>
      <point x="136" y="146" type="curve" smooth="yes"/>
      <point x="136" y="143" type="line" smooth="yes"/>
      <point x="136" y="-12"/>
      <point x="245" y="-94"/>
      <point x="466" y="-94" type="curve" smooth="yes"/>
      <point x="653" y="-94"/>
      <point x="830" y="-32"/>
      <point x="989" y="33" type="curve" smooth="yes"/>
      <point x="1397" y="200" type="line" smooth="yes"/>
      <point x="1576" y="273"/>
      <point x="1687" y="305"/>
      <point x="1807" y="305" type="curve" smooth="yes"/>
      <point x="1920" y="305"/>
      <point x="1977" y="268"/>
      <point x="1977" y="189" type="curve"/>
      <point x="1977" y="187" type="line"/>
      <point x="1977" y="109"/>
      <point x="1912" y="69"/>
      <point x="1784" y="69" type="curve" smooth="yes"/>
      <point x="1613" y="69"/>
      <point x="1468" y="122"/>
      <point x="1357" y="173" type="curve"/>
    </contour>
    <contour>
      <point x="139" y="679" type="curve" smooth="yes"/>
      <point x="139" y="669" type="line" smooth="yes"/>
      <point x="139" y="494"/>
      <point x="209" y="378"/>
      <point x="350" y="334" type="curve" smooth="yes"/>
      <point x="365" y="329"/>
      <point x="378" y="315"/>
      <point x="393" y="308" type="curve"/>
      <point x="434" y="293"/>
      <point x="481" y="293"/>
      <point x="533" y="293" type="curve" smooth="yes"/>
      <point x="783" y="293"/>
      <point x="915" y="394"/>
      <point x="915" y="579" type="curve" smooth="yes"/>
      <point x="915" y="589" type="line" smooth="yes"/>
      <point x="915" y="763"/>
      <point x="806" y="862"/>
      <point x="609" y="862" type="curve" smooth="yes"/>
      <point x="448.664" y="862"/>
      <point x="348.702" y="789"/>
      <point x="320" y="667" type="curve"/>
      <point x="333" y="611" type="line"/>
      <point x="365.529" y="673.804"/>
      <point x="438.471" y="716"/>
      <point x="540" y="716" type="curve" smooth="yes"/>
      <point x="653.104" y="716"/>
      <point x="719" y="665.75"/>
      <point x="719" y="582" type="curve" smooth="yes"/>
      <point x="719" y="574" type="line" smooth="yes"/>
      <point x="719" y="488.27"/>
      <point x="651.113" y="439"/>
      <point x="536" y="439" type="curve" smooth="yes"/>
      <point x="401.99" y="439"/>
      <point x="334" y="506.277"/>
      <point x="334" y="625" type="curve" smooth="yes"/>
      <point x="334" y="648" type="line"/>
      <point x="350" y="699" type="line"/>
      <point x="323" y="699" type="line"/>
      <point x="323" y="700" type="line"/>
      <point x="323" y="909.311"/>
      <point x="468.991" y="1004"/>
      <point x="757" y="1004" type="curve" smooth="yes"/>
      <point x="1036" y="1004"/>
      <point x="1175.16" y="893.347"/>
      <point x="1179" y="682" type="curve" smooth="yes"/>
      <point x="1183" y="462" type="line"/>
      <point x="1380" y="482" type="line"/>
      <point x="1384" y="720" type="line" smooth="yes"/>
      <point x="1387" y="904"/>
      <point x="1478" y="995"/>
      <point x="1673" y="995" type="curve" smooth="yes"/>
      <point x="1871" y="995"/>
      <point x="1968" y="908"/>
      <point x="1968" y="740" type="curve" smooth="yes"/>
      <point x="1968" y="731" type="line" smooth="yes"/>
      <point x="1968" y="583"/>
      <point x="1905" y="493"/>
      <point x="1780" y="455" type="curve"/>
      <point x="1988" y="410" type="line"/>
      <point x="1988" y="436" type="line"/>
      <point x="2110" y="486"/>
      <point x="2174" y="589"/>
      <point x="2174" y="748" type="curve" smooth="yes"/>
      <point x="2174" y="757" type="line" smooth="yes"/>
      <point x="2174" y="1024"/>
      <point x="2012" y="1169"/>
      <point x="1699" y="1169" type="curve" smooth="yes"/>
      <point x="1454" y="1169"/>
      <point x="1309" y="1072"/>
      <point x="1281" y="895" type="curve"/>
      <point x="1275" y="895" type="line"/>
      <point x="1229" y="1073"/>
      <point x="1051" y="1169"/>
      <point x="751" y="1169" type="curve" smooth="yes"/>
      <point x="344" y="1169"/>
      <point x="139" y="1002"/>
    </contour>
  </outline>
</glyph>
<glyph name="Jha.mlm" format="2">
  <advance width="4100"/>
  <unicode hex="0D1D"/>
  <outline>
    <contour>
      <point x="3078" y="555" type="line"/>
      <point x="3078" y="1115" type="line"/>
      <point x="2873" y="1115" type="line"/>
      <point x="2873" y="550" type="line"/>
    </contour>
    <contour>
      <point x="2286" y="466" type="curve" smooth="yes"/>
      <point x="2286" y="530"/>
      <point x="2286" y="570"/>
      <point x="2286" y="634" type="curve" smooth="yes"/>
      <point x="2286" y="997"/>
      <point x="2070" y="1169"/>
      <point x="1642" y="1169" type="curve" smooth="yes"/>
      <point x="1440" y="1169"/>
      <point x="1280" y="1116"/>
      <point x="1175" y="1035" type="curve"/>
      <point x="1102" y="998" type="line"/>
      <point x="882" y="897"/>
      <point x="763" y="699"/>
      <point x="763" y="463" type="curve" smooth="yes"/>
      <point x="763" y="446" type="line" smooth="yes"/>
      <point x="763" y="128"/>
      <point x="923" y="-36"/>
      <point x="1237" y="-36" type="curve" smooth="yes"/>
      <point x="1552" y="-36"/>
      <point x="1711" y="128"/>
      <point x="1711" y="446" type="curve" smooth="yes"/>
      <point x="1711" y="463" type="line" smooth="yes"/>
      <point x="1711" y="699"/>
      <point x="1592" y="897"/>
      <point x="1372" y="998" type="curve"/>
      <point x="1298" y="1035" type="line"/>
      <point x="1195" y="1117"/>
      <point x="1039" y="1169"/>
      <point x="840" y="1169" type="curve" smooth="yes"/>
      <point x="372" y="1169"/>
      <point x="134" y="945"/>
      <point x="134" y="510" type="curve" smooth="yes"/>
      <point x="134" y="492" type="line" smooth="yes"/>
      <point x="134" y="305"/>
      <point x="189" y="126"/>
      <point x="287" y="0" type="curve"/>
      <point x="507" y="0" type="line"/>
      <point x="401" y="151"/>
      <point x="343" y="310"/>
      <point x="343" y="492" type="curve" smooth="yes"/>
      <point x="343" y="510" type="line" smooth="yes"/>
      <point x="343" y="835"/>
      <point x="517" y="999"/>
      <point x="869" y="999" type="curve" smooth="yes"/>
      <point x="970" y="999"/>
      <point x="1057" y="981"/>
      <point x="1131" y="953" type="curve" smooth="yes"/>
      <point x="1134.39" y="951.741"/>
      <point x="1198.33" y="927.991"/>
      <point x="1201" y="927" type="curve"/>
      <point x="1398" y="843"/>
      <point x="1504" y="675"/>
      <point x="1504" y="472" type="curve" smooth="yes"/>
      <point x="1504" y="458" type="line" smooth="yes"/>
      <point x="1504" y="241"/>
      <point x="1413" y="134"/>
      <point x="1237" y="134" type="curve" smooth="yes"/>
      <point x="1061" y="134"/>
      <point x="970" y="241"/>
      <point x="970" y="458" type="curve" smooth="yes"/>
      <point x="970" y="472" type="line" smooth="yes"/>
      <point x="970" y="675"/>
      <point x="1076" y="843"/>
      <point x="1273" y="927" type="curve"/>
      <point x="1275.67" y="927.991"/>
      <point x="1339.61" y="951.742"/>
      <point x="1343" y="953" type="curve"/>
      <point x="1424" y="981"/>
      <point x="1518" y="999"/>
      <point x="1628" y="999" type="curve" smooth="yes"/>
      <point x="1932" y="999"/>
      <point x="2081" y="874"/>
      <point x="2081" y="601" type="curve" smooth="yes"/>
      <point x="2081" y="536"/>
      <point x="2081" y="498"/>
      <point x="2081" y="433" type="curve" smooth="yes"/>
      <point x="2081" y="122"/>
      <point x="2241" y="-36"/>
      <point x="2553" y="-36" type="curve" smooth="yes"/>
      <point x="2806" y="-36"/>
      <point x="2943" y="85"/>
      <point x="2973" y="272" type="curve"/>
      <point x="3015" y="272" type="line"/>
      <point x="3015" y="678" type="line"/>
      <point x="2873" y="684" type="line"/>
      <point x="2873" y="491" type="line" smooth="yes"/>
      <point x="2873" y="262.335"/>
      <point x="2775" y="147"/>
      <point x="2580" y="147" type="curve" smooth="yes"/>
      <point x="2384" y="147"/>
      <point x="2286" y="254.336"/>
    </contour>
    <contour>
      <point x="2979" y="272" type="line"/>
      <point x="3014" y="85"/>
      <point x="3159" y="-36"/>
      <point x="3429" y="-36" type="curve" smooth="yes"/>
      <point x="3784" y="-36"/>
      <point x="3966" y="163"/>
      <point x="3966" y="556" type="curve" smooth="yes"/>
      <point x="3966" y="573" type="line" smooth="yes"/>
      <point x="3966" y="794"/>
      <point x="3891.72" y="989"/>
      <point x="3759" y="1124" type="curve"/>
      <point x="3542" y="1124" type="line"/>
      <point x="3679" y="970"/>
      <point x="3757" y="790"/>
      <point x="3757" y="577" type="curve" smooth="yes"/>
      <point x="3757" y="561" type="line" smooth="yes"/>
      <point x="3757" y="286.337"/>
      <point x="3639" y="147"/>
      <point x="3403" y="147" type="curve" smooth="yes"/>
      <point x="3187" y="147"/>
      <point x="3078" y="265.334"/>
      <point x="3078" y="501" type="curve" smooth="yes"/>
      <point x="3078" y="679" type="line"/>
      <point x="2978" y="679" type="line"/>
    </contour>
  </outline>
</glyph>
<glyph name="Ttha.mlm" format="2">
  <advance width="1648"/>
  <unicode hex="0D20"/>
  <outline>
    <contour>
      <point x="824" y="138" type="curve" smooth="yes"/>
      <point x="503" y="138"/>
      <point x="335" y="282"/>
      <point x="335" y="559" type="curve" smooth="yes"/>
      <point x="335" y="577" type="line" smooth="yes"/>
      <point x="335" y="854"/>
      <point x="503" y="996"/>
      <point x="824" y="996" type="curve" smooth="yes"/>
      <point x="1146" y="996"/>
      <point x="1314" y="854"/>
      <point x="1314" y="577" type="curve" smooth="yes"/>
      <point x="1314" y="559" type="line" smooth="yes"/>
      <point x="1314" y="282"/>
      <point x="1146" y="138"/>
    </contour>
    <contour>
      <point x="824" y="-41" type="curve" smooth="yes"/>
      <point x="1283" y="-41"/>
      <point x="1523" y="165"/>
      <point x="1523" y="557" type="curve" smooth="yes"/>
      <point x="1523" y="575" type="line" smooth="yes"/>
      <point x="1523" y="970"/>
      <point x="1283" y="1175"/>
      <point x="824" y="1175" type="curve" smooth="yes"/>
      <point x="366" y="1175"/>
      <point x="126" y="970"/>
      <point x="126" y="575" type="curve" smooth="yes"/>
      <point x="126" y="557" type="line" smooth="yes"/>
      <point x="126" y="165"/>
      <point x="366" y="-41"/>
    </contour>
  </outline>
</glyph>
<glyph name="Nna.mlm" format="2">
  <advance width="3480"/>
  <unicode hex="0D23"/>
  <outline>
    <contour>
      <point x="1385" y="6" type="line"/>
      <point x="1589" y="6" type="line"/>
      <point x="1589" y="581" type="line"/>
      <point x="1385" y="572" type="line"/>
    </contour>
    <contour>
      <point x="861" y="1169" type="curve" smooth="yes"/>
      <point x="375" y="1169"/>
      <point x="130" y="937"/>
      <point x="130" y="490" type="curve" smooth="yes"/>
      <point x="130" y="477" type="line" smooth="yes"/>
      <point x="130" y="146"/>
      <point x="298" y="-36"/>
      <point x="617" y="-36" type="curve" smooth="yes"/>
      <point x="912" y="-36"/>
      <point x="1071" y="98"/>
      <point x="1071" y="344" type="curve" smooth="yes"/>
      <point x="1071" y="354" type="line" smooth="yes"/>
      <point x="1071" y="587"/>
      <point x="932" y="712"/>
      <point x="697" y="712" type="curve" smooth="yes"/>
      <point x="490" y="712"/>
      <point x="356" y="620"/>
      <point x="321" y="461" type="curve"/>
      <point x="334" y="401" type="line"/>
      <point x="381" y="492"/>
      <point x="480" y="549"/>
      <point x="618" y="549" type="curve" smooth="yes"/>
      <point x="779" y="549"/>
      <point x="868" y="476"/>
      <point x="868" y="347" type="curve" smooth="yes"/>
      <point x="868" y="338" type="line" smooth="yes"/>
      <point x="868" y="206"/>
      <point x="777" y="129"/>
      <point x="617" y="129" type="curve" smooth="yes"/>
      <point x="433" y="129"/>
      <point x="335" y="231"/>
      <point x="335" y="421" type="curve" smooth="yes"/>
      <point x="335" y="430" type="line"/>
      <point x="351" y="497" type="line"/>
      <point x="324" y="497" type="line"/>
      <point x="324" y="498" type="line"/>
      <point x="324" y="833"/>
      <point x="511" y="995"/>
      <point x="866" y="995" type="curve" smooth="yes"/>
      <point x="1208" y="995"/>
      <point x="1385" y="859"/>
      <point x="1385" y="605" type="curve" smooth="yes"/>
      <point x="1385" y="526" type="line"/>
      <point x="1484" y="526" type="line"/>
      <point x="1483" y="843" type="line"/>
      <point x="1426" y="1053"/>
      <point x="1213" y="1169"/>
    </contour>
    <contour>
      <point x="2234" y="577" type="line"/>
      <point x="2234" y="6" type="line"/>
      <point x="2439" y="6" type="line"/>
      <point x="2439" y="577" type="line"/>
    </contour>
    <contour>
      <point x="2334" y="855" type="line"/>
      <point x="2304" y="1048"/>
      <point x="2164" y="1169"/>
      <point x="1912" y="1169" type="curve" smooth="yes"/>
      <point x="1661" y="1169"/>
      <point x="1520" y="1047"/>
      <point x="1489" y="843" type="curve"/>
      <point x="1447" y="843" type="line"/>
      <point x="1447" y="445" type="line"/>
      <point x="1589" y="439" type="line"/>
      <point x="1589" y="628" type="line" smooth="yes"/>
      <point x="1589" y="865.664"/>
      <point x="1695" y="986"/>
      <point x="1912" y="986" type="curve" smooth="yes"/>
      <point x="2129" y="986"/>
      <point x="2234" y="865.664"/>
      <point x="2234" y="628" type="curve" smooth="yes"/>
      <point x="2234" y="445" type="line"/>
      <point x="2347" y="445" type="line"/>
    </contour>
    <contour>
      <point x="2439" y="439" type="line"/>
      <point x="2439" y="627" type="line" smooth="yes"/>
      <point x="2439" y="866"/>
      <point x="2548" y="986"/>
      <point x="2769" y="986" type="curve" smooth="yes"/>
      <point x="3016" y="986"/>
      <point x="3137" y="845"/>
      <point x="3137" y="563" type="curve" smooth="yes"/>
      <point x="3137" y="546" type="line" smooth="yes"/>
      <point x="3137" y="333"/>
      <point x="3062" y="153"/>
      <point x="2932" y="-4.54747e-13" type="curve"/>
      <point x="3156" y="-4.54747e-13" type="line"/>
      <point x="3279.74" y="137"/>
      <point x="3346" y="325"/>
      <point x="3346" y="546" type="curve" smooth="yes"/>
      <point x="3346" y="563" type="line" smooth="yes"/>
      <point x="3346" y="965"/>
      <point x="3158" y="1169"/>
      <point x="2791" y="1169" type="curve" smooth="yes"/>
      <point x="2521" y="1169"/>
      <point x="2375" y="1047"/>
      <point x="2339" y="855" type="curve"/>
      <point x="2296" y="855" type="line"/>
      <point x="2296" y="445" type="line"/>
    </contour>
  </outline>
</glyph>
<glyph name="Ta.mlm" format="2">
  <advance width="2474"/>
  <unicode hex="0D24"/>
  <outline>
    <contour>
      <point x="1237" y="-36" type="curve" smooth="yes"/>
      <point x="1552" y="-36"/>
      <point x="1711" y="128"/>
      <point x="1711" y="446" type="curve" smooth="yes"/>
      <point x="1711" y="463" type="line" smooth="yes"/>
      <point x="1711" y="699"/>
      <point x="1592" y="897"/>
      <point x="1372" y="998" type="curve"/>
      <point x="1298" y="1035" type="line"/>
      <point x="1195" y="1117"/>
      <point x="1039" y="1169"/>
      <point x="840" y="1169" type="curve" smooth="yes"/>
      <point x="372" y="1169"/>
      <point x="134" y="945"/>
      <point x="134" y="510" type="curve" smooth="yes"/>
      <point x="134" y="492" type="line" smooth="yes"/>
      <point x="134" y="301"/>
      <point x="189" y="122"/>
      <point x="287" y="0" type="curve"/>
      <point x="507" y="0" type="line"/>
      <point x="401" y="151"/>
      <point x="343" y="310"/>
      <point x="343" y="492" type="curve" smooth="yes"/>
      <point x="343" y="510" type="line" smooth="yes"/>
      <point x="343" y="835"/>
      <point x="517" y="999"/>
      <point x="869" y="999" type="curve" smooth="yes"/>
      <point x="970" y="999"/>
      <point x="1057" y="981"/>
      <point x="1131" y="953" type="curve" smooth="yes"/>
      <point x="1201" y="927" type="line"/>
      <point x="1398" y="843"/>
      <point x="1504" y="675"/>
      <point x="1504" y="472" type="curve" smooth="yes"/>
      <point x="1504" y="458" type="line" smooth="yes"/>
      <point x="1504" y="241"/>
      <point x="1413" y="134"/>
      <point x="1237" y="134" type="curve" smooth="yes"/>
      <point x="1061" y="134"/>
      <point x="970" y="241"/>
      <point x="970" y="458" type="curve" smooth="yes"/>
      <point x="970" y="472" type="line" smooth="yes"/>
      <point x="970" y="675"/>
      <point x="1076" y="843"/>
      <point x="1273" y="927" type="curve"/>
      <point x="1343" y="953" type="line" smooth="yes"/>
      <point x="1417" y="981"/>
      <point x="1503" y="999"/>
      <point x="1603" y="999" type="curve" smooth="yes"/>
      <point x="1957" y="999"/>
      <point x="2131" y="835"/>
      <point x="2131" y="510" type="curve" smooth="yes"/>
      <point x="2131" y="492" type="line" smooth="yes"/>
      <point x="2131" y="310"/>
      <point x="2073" y="151"/>
      <point x="1967" y="0" type="curve"/>
      <point x="2187" y="0" type="line"/>
      <point x="2285" y="122"/>
      <point x="2340" y="301"/>
      <point x="2340" y="492" type="curve" smooth="yes"/>
      <point x="2340" y="510" type="line" smooth="yes"/>
      <point x="2340" y="945"/>
      <point x="2102" y="1169"/>
      <point x="1632" y="1169" type="curve" smooth="yes"/>
      <point x="1434" y="1169"/>
      <point x="1278" y="1117"/>
      <point x="1175" y="1035" type="curve"/>
      <point x="1102" y="998" type="line"/>
      <point x="882" y="897"/>
      <point x="763" y="699"/>
      <point x="763" y="463" type="curve" smooth="yes"/>
      <point x="763" y="446" type="line" smooth="yes"/>
      <point x="763" y="128"/>
      <point x="923" y="-36"/>
    </contour>
  </outline>
</glyph>
<glyph name="Tha.mlm" format="2">
  <advance width="2174"/>
  <unicode hex="0D25"/>
  <outline>
    <contour>
      <point x="389" y="0" type="line"/>
      <point x="389" y="1130" type="line"/>
      <point x="184" y="1130" type="line"/>
      <point x="184" y="0" type="line"/>
    </contour>
    <contour>
      <point x="297" y="163" type="line"/>
      <point x="297" y="0" type="line"/>
      <point x="1015" y="0" type="line"/>
      <point x="1015" y="163" type="line"/>
    </contour>
    <contour>
      <point x="1032" y="163" type="line"/>
      <point x="978" y="0" type="line"/>
      <point x="2006" y="0" type="line"/>
      <point x="2006" y="646" type="line" smooth="yes"/>
      <point x="2006" y="998"/>
      <point x="1820" y="1172"/>
      <point x="1459" y="1172" type="curve" smooth="yes"/>
      <point x="1098" y="1172"/>
      <point x="914" y="998"/>
      <point x="914" y="646" type="curve" smooth="yes"/>
      <point x="914" y="0" type="line"/>
      <point x="1119" y="0" type="line"/>
      <point x="1119" y="645" type="line" smooth="yes"/>
      <point x="1119" y="882"/>
      <point x="1234" y="993"/>
      <point x="1460" y="993" type="curve" smooth="yes"/>
      <point x="1686" y="993"/>
      <point x="1801" y="882"/>
      <point x="1801" y="645" type="curve" smooth="yes"/>
      <point x="1801" y="163" type="line"/>
    </contour>
  </outline>
</glyph>
<glyph name="Dha.mlm" format="2">
  <advance width="2273"/>
  <unicode hex="0D27"/>
  <outline>
    <contour>
      <point x="1239" y="552" type="line"/>
      <point x="1239" y="1118" type="line"/>
      <point x="1034" y="1118" type="line"/>
      <point x="1034" y="552" type="line"/>
    </contour>
    <contour>
      <point x="1034" y="686" type="line"/>
      <point x="1034" y="502" type="line" smooth="yes"/>
      <point x="1034" y="266.336"/>
      <point x="924" y="147"/>
      <point x="702" y="147" type="curve" smooth="yes"/>
      <point x="463" y="147"/>
      <point x="343" y="286.336"/>
      <point x="343" y="562" type="curve" smooth="yes"/>
      <point x="343" y="578" type="line" smooth="yes"/>
      <point x="343" y="791"/>
      <point x="421" y="971"/>
      <point x="558" y="1125" type="curve"/>
      <point x="341" y="1125" type="line"/>
      <point x="208.282" y="994"/>
      <point x="134" y="799"/>
      <point x="134" y="574" type="curve" smooth="yes"/>
      <point x="134" y="557" type="line" smooth="yes"/>
      <point x="134" y="163"/>
      <point x="319" y="-36"/>
      <point x="677" y="-36" type="curve" smooth="yes"/>
      <point x="953" y="-36"/>
      <point x="1099" y="85"/>
      <point x="1134" y="273" type="curve"/>
      <point x="1177" y="273" type="line"/>
      <point x="1177" y="680" type="line"/>
    </contour>
    <contour>
      <point x="1140" y="273" type="line"/>
      <point x="1175" y="85"/>
      <point x="1322" y="-36"/>
      <point x="1597" y="-36" type="curve" smooth="yes"/>
      <point x="1955" y="-36"/>
      <point x="2139" y="163"/>
      <point x="2139" y="557" type="curve" smooth="yes"/>
      <point x="2139" y="574" type="line" smooth="yes"/>
      <point x="2139" y="799"/>
      <point x="2064.72" y="994"/>
      <point x="1932" y="1125" type="curve"/>
      <point x="1715" y="1125" type="line"/>
      <point x="1852" y="971"/>
      <point x="1930" y="791"/>
      <point x="1930" y="578" type="curve" smooth="yes"/>
      <point x="1930" y="562" type="line" smooth="yes"/>
      <point x="1930" y="286.336"/>
      <point x="1810" y="147"/>
      <point x="1571" y="147" type="curve" smooth="yes"/>
      <point x="1350" y="147"/>
      <point x="1239" y="265.333"/>
      <point x="1239" y="502" type="curve" smooth="yes"/>
      <point x="1239" y="680" type="line"/>
      <point x="1139" y="680" type="line"/>
    </contour>
  </outline>
</glyph>
<glyph name="Ba.mlm" format="2">
  <advance width="3373"/>
  <unicode hex="0D2C"/>
  <outline>
    <contour>
      <point x="1385" y="6" type="line"/>
      <point x="1589" y="6" type="line"/>
      <point x="1589" y="581" type="line"/>
      <point x="1385" y="572" type="line"/>
    </contour>
    <contour>
      <point x="861" y="1169" type="curve" smooth="yes"/>
      <point x="375" y="1169"/>
      <point x="130" y="937"/>
      <point x="130" y="490" type="curve" smooth="yes"/>
      <point x="130" y="477" type="line" smooth="yes"/>
      <point x="130" y="146"/>
      <point x="298" y="-36"/>
      <point x="617" y="-36" type="curve" smooth="yes"/>
      <point x="912" y="-36"/>
      <point x="1071" y="98"/>
      <point x="1071" y="344" type="curve" smooth="yes"/>
      <point x="1071" y="354" type="line" smooth="yes"/>
      <point x="1071" y="587"/>
      <point x="932" y="712"/>
      <point x="697" y="712" type="curve" smooth="yes"/>
      <point x="490" y="712"/>
      <point x="356" y="620"/>
      <point x="321" y="461" type="curve"/>
      <point x="334" y="401" type="line"/>
      <point x="381" y="492"/>
      <point x="480" y="549"/>
      <point x="618" y="549" type="curve" smooth="yes"/>
      <point x="779" y="549"/>
      <point x="868" y="476"/>
      <point x="868" y="347" type="curve" smooth="yes"/>
      <point x="868" y="338" type="line" smooth="yes"/>
      <point x="868" y="206"/>
      <point x="777" y="129"/>
      <point x="617" y="129" type="curve" smooth="yes"/>
      <point x="433" y="129"/>
      <point x="335" y="231"/>
      <point x="335" y="421" type="curve" smooth="yes"/>
      <point x="335" y="430" type="line"/>
      <point x="351" y="497" type="line"/>
      <point x="324" y="497" type="line"/>
      <point x="324" y="498" type="line"/>
      <point x="324" y="833"/>
      <point x="511" y="995"/>
      <point x="866" y="995" type="curve" smooth="yes"/>
      <point x="1208" y="995"/>
      <point x="1385" y="859"/>
      <point x="1385" y="605" type="curve" smooth="yes"/>
      <point x="1385" y="526" type="line"/>
      <point x="1484" y="526" type="line"/>
      <point x="1483" y="843" type="line"/>
      <point x="1426" y="1053"/>
      <point x="1213" y="1169"/>
    </contour>
    <contour>
      <point x="1932" y="986" type="curve" smooth="yes"/>
      <point x="2187" y="986"/>
      <point x="2312" y="847"/>
      <point x="2312" y="567" type="curve" smooth="yes"/>
      <point x="2312" y="550" type="line" smooth="yes"/>
      <point x="2312" y="341"/>
      <point x="2240" y="165"/>
      <point x="2105" y="12" type="curve"/>
      <point x="2105" y="0" type="line"/>
      <point x="2280" y="0" type="line"/>
      <point x="2437.3" y="133.039"/>
      <point x="2521" y="311.464"/>
      <point x="2521" y="559" type="curve" smooth="yes"/>
      <point x="2521" y="575" type="line" smooth="yes"/>
      <point x="2521" y="970.324"/>
      <point x="2330" y="1169"/>
      <point x="1954" y="1169" type="curve" smooth="yes"/>
      <point x="1677" y="1169"/>
      <point x="1525" y="1047"/>
      <point x="1489" y="843" type="curve"/>
      <point x="1445" y="843" type="line"/>
      <point x="1447" y="445" type="line"/>
      <point x="1589" y="439" type="line"/>
      <point x="1589" y="623" type="line" smooth="yes"/>
      <point x="1589" y="865"/>
      <point x="1703" y="986"/>
    </contour>
    <contour>
      <point x="2984" y="1130" type="line"/>
      <point x="2984" y="0" type="line"/>
      <point x="3189" y="0" type="line"/>
      <point x="3189" y="1130" type="line"/>
    </contour>
    <contour>
      <point x="2310" y="160" type="line"/>
      <point x="2104" y="0" type="line"/>
      <point x="3154" y="0" type="line"/>
      <point x="3154" y="160" type="line"/>
    </contour>
  </outline>
</glyph>
<glyph name="Ma.mlm" format="2">
  <advance width="1804"/>
  <unicode hex="0D2E"/>
  <outline>
    <contour>
      <point x="268" y="156" type="line"/>
      <point x="190" y="0" type="line"/>
      <point x="1611" y="0" type="line"/>
      <point x="1543" y="156" type="line"/>
    </contour>
    <contour>
      <point x="902" y="1008" type="curve" smooth="yes"/>
      <point x="1248" y="1008"/>
      <point x="1432" y="857"/>
      <point x="1432" y="510" type="curve" smooth="yes"/>
      <point x="1432" y="0" type="line"/>
      <point x="1636" y="0" type="line"/>
      <point x="1636" y="515" type="line" smooth="yes"/>
      <point x="1636" y="953"/>
      <point x="1389" y="1175"/>
      <point x="902" y="1175" type="curve" smooth="yes"/>
      <point x="416" y="1175"/>
      <point x="168" y="953"/>
      <point x="168" y="515" type="curve" smooth="yes"/>
      <point x="168" y="0" type="line"/>
      <point x="371" y="0" type="line"/>
      <point x="371" y="510" type="line" smooth="yes"/>
      <point x="371" y="859"/>
      <point x="536" y="1008"/>
    </contour>
    <contour>
      <point x="1075" y="617" type="line" smooth="yes"/>
      <point x="1075" y="855.312"/>
      <point x="928.283" y="986"/>
      <point x="691" y="986" type="curve" smooth="yes"/>
      <point x="628.687" y="986"/>
      <point x="558.333" y="980"/>
      <point x="492" y="951" type="curve"/>
      <point x="424" y="834" type="line"/>
      <point x="486.833" y="873.167"/>
      <point x="549.667" y="881"/>
      <point x="606" y="881" type="curve" smooth="yes"/>
      <point x="776.733" y="881"/>
      <point x="866" y="781.996"/>
      <point x="866" y="621" type="curve" smooth="yes"/>
      <point x="866" y="614" type="line" smooth="yes"/>
      <point x="866" y="403"/>
      <point x="725" y="232"/>
      <point x="515" y="150" type="curve"/>
      <point x="684" y="102" type="line"/>
      <point x="926" y="184"/>
      <point x="1075" y="373"/>
      <point x="1075" y="609" type="curve" smooth="yes"/>
    </contour>
  </outline>
</glyph>
<glyph name="Ra.mlm" format="2">
  <advance width="1830"/>
  <unicode hex="0D30"/>
  <outline>
    <contour>
      <point x="930" y="1001" type="curve" smooth="yes"/>
      <point x="1306" y="1001"/>
      <point x="1487" y="821"/>
      <point x="1502" y="572" type="curve"/>
      <point x="1502" y="572" type="line"/>
      <point x="1486" y="572" type="line"/>
      <point x="1501" y="513" type="line"/>
      <point x="1501" y="485" type="line" smooth="yes"/>
      <point x="1501" y="247"/>
      <point x="1412.38" y="129"/>
      <point x="1216" y="129" type="curve" smooth="yes"/>
      <point x="1052.25" y="129"/>
      <point x="953" y="212.405"/>
      <point x="953" y="354" type="curve" smooth="yes"/>
      <point x="953" y="364" type="line" smooth="yes"/>
      <point x="953" y="506.905"/>
      <point x="1044" y="589"/>
      <point x="1216" y="589" type="curve" smooth="yes"/>
      <point x="1340" y="589"/>
      <point x="1433" y="550.563"/>
      <point x="1504" y="482" type="curve"/>
      <point x="1505" y="551" type="line"/>
      <point x="1460" y="667.327"/>
      <point x="1331" y="751"/>
      <point x="1161" y="751" type="curve" smooth="yes"/>
      <point x="905" y="751"/>
      <point x="749" y="617.855"/>
      <point x="749" y="370" type="curve" smooth="yes"/>
      <point x="749" y="358" type="line" smooth="yes"/>
      <point x="749" y="103.233"/>
      <point x="918" y="-36"/>
      <point x="1209" y="-36" type="curve" smooth="yes"/>
      <point x="1539" y="-36"/>
      <point x="1701" y="150"/>
      <point x="1701" y="491" type="curve" smooth="yes"/>
      <point x="1701" y="510" type="line" smooth="yes"/>
      <point x="1701" y="928"/>
      <point x="1443" y="1175"/>
      <point x="924" y="1175" type="curve" smooth="yes"/>
      <point x="400" y="1175"/>
      <point x="134" y="938"/>
      <point x="134" y="495" type="curve" smooth="yes"/>
      <point x="134" y="480" type="line" smooth="yes"/>
      <point x="134" y="295"/>
      <point x="188" y="119"/>
      <point x="282" y="0" type="curve"/>
      <point x="500" y="0" type="line"/>
      <point x="399" y="142"/>
      <point x="343" y="296"/>
      <point x="343" y="468" type="curve" smooth="yes"/>
      <point x="343" y="484" type="line" smooth="yes"/>
      <point x="343" y="828"/>
      <point x="540" y="1001"/>
    </contour>
  </outline>
</glyph>
<glyph name="Sa.mlm" format="2">
  <advance width="3047"/>
  <unicode hex="0D38"/>
  <outline>
    <contour>
      <point x="134" y="563" type="curve" smooth="yes"/>
      <point x="134" y="546" type="line" smooth="yes"/>
      <point x="134" y="321"/>
      <point x="199.267" y="133"/>
      <point x="323" y="0" type="curve"/>
      <point x="547" y="0" type="line"/>
      <point x="418" y="153"/>
      <point x="343" y="333"/>
      <point x="343" y="546" type="curve" smooth="yes"/>
      <point x="343" y="563" type="line" smooth="yes"/>
      <point x="343" y="845"/>
      <point x="465" y="986"/>
      <point x="710" y="986" type="curve" smooth="yes"/>
      <point x="931" y="986"/>
      <point x="1039" y="866"/>
      <point x="1039" y="627" type="curve" smooth="yes"/>
      <point x="1039" y="445" type="line"/>
      <point x="1139" y="445" type="line"/>
      <point x="1138" y="855" type="line"/>
      <point x="1102" y="1047"/>
      <point x="957" y="1169"/>
      <point x="687" y="1169" type="curve" smooth="yes"/>
      <point x="322" y="1169"/>
      <point x="134" y="965"/>
    </contour>
    <contour>
      <point x="1039" y="578" type="line"/>
      <point x="1039" y="6" type="line"/>
      <point x="1244" y="6" type="line"/>
      <point x="1244" y="578" type="line"/>
    </contour>
    <contour>
      <point x="1552" y="986" type="curve" smooth="yes"/>
      <point x="1758" y="986"/>
      <point x="1866" y="867"/>
      <point x="1866" y="652" type="curve" smooth="yes"/>
      <point x="1866" y="572"/>
      <point x="1866" y="525"/>
      <point x="1866" y="444" type="curve" smooth="yes"/>
      <point x="1866" y="130"/>
      <point x="2043" y="-36"/>
      <point x="2384" y="-36" type="curve" smooth="yes"/>
      <point x="2737" y="-36"/>
      <point x="2913" y="155"/>
      <point x="2913" y="536" type="curve" smooth="yes"/>
      <point x="2913" y="558" type="line" smooth="yes"/>
      <point x="2913" y="791"/>
      <point x="2833.7" y="994"/>
      <point x="2686" y="1126" type="curve"/>
      <point x="2468" y="1126" type="line"/>
      <point x="2620" y="968"/>
      <point x="2704" y="785"/>
      <point x="2704" y="563" type="curve" smooth="yes"/>
      <point x="2704" y="541" type="line" smooth="yes"/>
      <point x="2704" y="274"/>
      <point x="2598" y="143"/>
      <point x="2383" y="143" type="curve" smooth="yes"/>
      <point x="2176" y="143"/>
      <point x="2071" y="254"/>
      <point x="2071" y="473" type="curve" smooth="yes"/>
      <point x="2071" y="553"/>
      <point x="2071" y="598"/>
      <point x="2071" y="677" type="curve" smooth="yes"/>
      <point x="2071" y="997"/>
      <point x="1902" y="1169"/>
      <point x="1577" y="1169" type="curve" smooth="yes"/>
      <point x="1315" y="1169"/>
      <point x="1177" y="1046"/>
      <point x="1144" y="855" type="curve"/>
      <point x="1101" y="855" type="line"/>
      <point x="1101" y="445" type="line"/>
      <point x="1244" y="438" type="line"/>
      <point x="1244" y="642" type="line" smooth="yes"/>
      <point x="1244" y="870"/>
      <point x="1345" y="986"/>
    </contour>
  </outline>
</glyph>
<glyph name="verticalbarviramasign.mlm" format="2">
  <unicode hex="0D3B"/>
  <outline>
    <contour>
      <point x="-917" y="1766" type="line"/>
      <point x="-917" y="1295" type="line"/>
      <point x="-730" y="1295" type="line"/>
      <point x="-730" y="1766" type="line"/>
    </contour>
  </outline>
</glyph>
<glyph name="matraA.mlm" format="2">
  <advance width="1206"/>
  <unicode hex="0D3E"/>
  <outline>
    <contour>
      <point x="498" y="137" type="curve" smooth="yes"/>
      <point x="341.097" y="137"/>
      <point x="204.704" y="190.238"/>
      <point x="96" y="266" type="curve"/>
      <point x="115" y="70" type="line"/>
      <point x="212" y="3"/>
      <point x="348" y="-41"/>
      <point x="520" y="-41" type="curve" smooth="yes"/>
      <point x="885" y="-41"/>
      <point x="1072" y="168"/>
      <point x="1072" y="558" type="curve" smooth="yes"/>
      <point x="1072" y="575" type="line" smooth="yes"/>
      <point x="1072" y="966"/>
      <point x="880" y="1173"/>
      <point x="507" y="1173" type="curve" smooth="yes"/>
      <point x="347" y="1173"/>
      <point x="212" y="1132"/>
      <point x="117" y="1072" type="curve"/>
      <point x="98" y="887" type="line"/>
      <point x="203.791" y="953.84"/>
      <point x="328.07" y="996"/>
      <point x="477" y="996" type="curve" smooth="yes"/>
      <point x="738.249" y="996"/>
      <point x="864" y="854.319"/>
      <point x="864" y="574" type="curve" smooth="yes"/>
      <point x="864" y="559" type="line" smooth="yes"/>
      <point x="864" y="281.695"/>
      <point x="740.378" y="137"/>
    </contour>
  </outline>
</glyph>
<glyph name="matraI.mlm" format="2">
  <advance width="607"/>
  <unicode hex="0D3F"/>
  <outline>
    <contour>
      <point x="423" y="0" type="line"/>
      <point x="423" y="1095" type="line" smooth="yes"/>
      <point x="423" y="1456"/>
      <point x="260" y="1643"/>
      <point x="-91" y="1643" type="curve" smooth="yes"/>
      <point x="-264" y="1643"/>
      <point x="-417" y="1591.91"/>
      <point x="-526" y="1531" type="curve"/>
      <point x="-560" y="1343" type="line"/>
      <point x="-434" y="1410"/>
      <point x="-277" y="1469"/>
      <point x="-120" y="1469" type="curve" smooth="yes"/>
      <point x="113" y="1469"/>
      <point x="218" y="1356"/>
      <point x="218" y="1093" type="curve" smooth="yes"/>
      <point x="218" y="0" type="line"/>
    </contour>
  </outline>
</glyph>
<glyph name="matraIi.mlm" format="2">
  <advance width="620"/>
  <unicode hex="0D40"/>
  <outline>
    <contour>
      <point x="-410" y="1391" type="line" smooth="yes"/>
      <point x="-410" y="1193"/>
      <point x="-283" y="1089"/>
      <point x="-57" y="1089" type="curve" smooth="yes"/>
      <point x="93" y="1089"/>
      <point x="188" y="1148"/>
      <point x="225" y="1242" type="curve"/>
      <point x="261" y="1242" type="line"/>
      <point x="239" y="1346" type="line"/>
      <point x="187" y="1274"/>
      <point x="97" y="1236"/>
      <point x="-10" y="1236" type="curve" smooth="yes"/>
      <point x="-146" y="1236"/>
      <point x="-221" y="1294"/>
      <point x="-221" y="1398" type="curve" smooth="yes"/>
      <point x="-221" y="1405" type="line" smooth="yes"/>
      <point x="-221" y="1511"/>
      <point x="-143" y="1571"/>
      <point x="0" y="1571" type="curve" smooth="yes"/>
      <point x="150" y="1571"/>
      <point x="231" y="1495"/>
      <point x="231" y="1356" type="curve" smooth="yes"/>
      <point x="231" y="1296" type="line"/>
      <point x="231" y="1279" type="line"/>
      <point x="231" y="0" type="line"/>
      <point x="436" y="0" type="line"/>
      <point x="436" y="1331" type="line" smooth="yes"/>
      <point x="436" y="1589"/>
      <point x="285" y="1729"/>
      <point x="4" y="1729" type="curve" smooth="yes"/>
      <point x="-268" y="1729"/>
      <point x="-410" y="1614"/>
      <point x="-410" y="1398" type="curve" smooth="yes"/>
    </contour>
  </outline>
</glyph>
<glyph name="matraU.mlm" format="2">
  <advance width="1097"/>
  <unicode hex="0D41"/>
  <outline>
    <contour>
      <point x="518" y="-238" type="curve" smooth="yes"/>
      <point x="348" y="-238"/>
      <point x="255" y="-162"/>
      <point x="255" y="-28" type="curve" smooth="yes"/>
      <point x="255" y="-19" type="line" smooth="yes"/>
      <point x="255" y="115"/>
      <point x="348" y="191"/>
      <point x="518" y="191" type="curve" smooth="yes"/>
      <point x="689" y="191"/>
      <point x="780" y="115"/>
      <point x="780" y="-19" type="curve" smooth="yes"/>
      <point x="780" y="-28" type="line" smooth="yes"/>
      <point x="780" y="-162"/>
      <point x="689" y="-238"/>
    </contour>
    <contour>
      <point x="518" y="350" type="curve" smooth="yes"/>
      <point x="220" y="350"/>
      <point x="57" y="221"/>
      <point x="57" y="-14" type="curve" smooth="yes"/>
      <point x="57" y="-23" type="line" smooth="yes"/>
      <point x="57" y="-274"/>
      <point x="220" y="-407"/>
      <point x="518" y="-407" type="curve" smooth="yes"/>
      <point x="817" y="-407"/>
      <point x="979" y="-277"/>
      <point x="979" y="-32" type="curve" smooth="yes"/>
      <point x="979" y="-22" type="line" smooth="yes"/>
      <point x="979" y="210"/>
      <point x="830" y="334"/>
      <point x="553" y="346" type="curve"/>
      <point x="542" y="346"/>
      <point x="531" y="350"/>
    </contour>
    <contour>
      <point x="955" y="744" type="curve" smooth="yes"/>
      <point x="955" y="755" type="line" smooth="yes"/>
      <point x="955" y="1026"/>
      <point x="800" y="1172"/>
      <point x="511" y="1172" type="curve" smooth="yes"/>
      <point x="363" y="1172"/>
      <point x="240" y="1130"/>
      <point x="151" y="1069" type="curve"/>
      <point x="131" y="880" type="line"/>
      <point x="226" y="948"/>
      <point x="340" y="993"/>
      <point x="483" y="993" type="curve" smooth="yes"/>
      <point x="657" y="993"/>
      <point x="747" y="898"/>
      <point x="747" y="735" type="curve" smooth="yes"/>
      <point x="747" y="724" type="line" smooth="yes"/>
      <point x="747" y="552"/>
      <point x="630" y="408"/>
      <point x="442" y="341" type="curve"/>
      <point x="581" y="269" type="line"/>
      <point x="822" y="347"/>
      <point x="955" y="512"/>
    </contour>
  </outline>
</glyph>
<glyph name="matraE.mlm" format="2">
  <advance width="1190"/>
  <unicode hex="0D47"/>
  <outline>
    <contour>
      <point x="341" y="741" type="line"/>
      <point x="355" y="741" type="line"/>
      <point x="354" y="798" type="line"/>
      <point x="354" y="807" type="line" smooth="yes"/>
      <point x="354" y="938"/>
      <point x="448" y="1009"/>
      <point x="628" y="1009" type="curve" smooth="yes"/>
      <point x="788" y="1009"/>
      <point x="879" y="960"/>
      <point x="879" y="873" type="curve" smooth="yes"/>
      <point x="879" y="867" type="line" smooth="yes"/>
      <point x="879" y="785"/>
      <point x="789" y="737"/>
      <point x="632" y="737" type="curve" smooth="yes"/>
      <point x="499" y="737"/>
      <point x="400" y="776"/>
      <point x="354" y="838" type="curve"/>
      <point x="337" y="759" type="line"/>
      <point x="377" y="653"/>
      <point x="507" y="587"/>
      <point x="692" y="587" type="curve" smooth="yes"/>
      <point x="941" y="587"/>
      <point x="1083" y="685"/>
      <point x="1083" y="862" type="curve" smooth="yes"/>
      <point x="1083" y="869" type="line" smooth="yes"/>
      <point x="1083" y="1066"/>
      <point x="923" y="1174"/>
      <point x="628" y="1174" type="curve" smooth="yes"/>
      <point x="312" y="1174"/>
      <point x="147" y="1026"/>
      <point x="147" y="751" type="curve" smooth="yes"/>
      <point x="147" y="378" type="line" smooth="yes"/>
      <point x="147" y="104"/>
      <point x="312" y="-46"/>
      <point x="628" y="-46" type="curve" smooth="yes"/>
      <point x="923" y="-46"/>
      <point x="1083" y="63"/>
      <point x="1083" y="260" type="curve" smooth="yes"/>
      <point x="1083" y="267" type="line" smooth="yes"/>
      <point x="1083" y="444"/>
      <point x="941" y="542"/>
      <point x="692" y="542" type="curve" smooth="yes"/>
      <point x="507" y="542"/>
      <point x="377" y="477"/>
      <point x="337" y="370" type="curve"/>
      <point x="354" y="291" type="line"/>
      <point x="400" y="353"/>
      <point x="499" y="392"/>
      <point x="632" y="392" type="curve" smooth="yes"/>
      <point x="789" y="392"/>
      <point x="879" y="344"/>
      <point x="879" y="261" type="curve" smooth="yes"/>
      <point x="879" y="256" type="line" smooth="yes"/>
      <point x="879" y="170"/>
      <point x="788" y="119"/>
      <point x="628" y="119" type="curve" smooth="yes"/>
      <point x="448" y="119"/>
      <point x="354" y="190"/>
      <point x="354" y="321" type="curve" smooth="yes"/>
      <point x="354" y="330" type="line"/>
      <point x="355" y="388" type="line"/>
      <point x="341" y="388" type="line"/>
    </contour>
  </outline>
</glyph>
<glyph name="dotreph.mlm" format="2">
  <unicode hex="0D4E"/>
  <outline>
    <contour>
      <point x="-1302" y="1471" type="line" smooth="yes"/>
      <point x="-1302" y="1385"/>
      <point x="-1248" y="1339"/>
      <point x="-1151" y="1339" type="curve" smooth="yes"/>
      <point x="-1054" y="1339"/>
      <point x="-1000" y="1385"/>
      <point x="-1000" y="1471" type="curve" smooth="yes"/>
      <point x="-1000" y="1476" type="line" smooth="yes"/>
      <point x="-1000" y="1563"/>
      <point x="-1054" y="1608"/>
      <point x="-1151" y="1608" type="curve" smooth="yes"/>
      <point x="-1248" y="1608"/>
      <point x="-1302" y="1563"/>
      <point x="-1302" y="1476" type="curve" smooth="yes"/>
    </contour>
  </outline>
</glyph>
<glyph name="chilluY.mlm" format="2">
  <advance width="2497"/>
  <unicode hex="0D55"/>
  <outline>
    <contour>
      <point x="837" y="656" type="line" smooth="yes"/>
      <point x="878" y="405"/>
      <point x="966" y="224"/>
      <point x="1165" y="129" type="curve" smooth="yes"/>
      <point x="1231" y="97" type="line"/>
      <point x="1338" y="11"/>
      <point x="1501" y="-43"/>
      <point x="1711" y="-43" type="curve" smooth="yes"/>
      <point x="2149" y="-43"/>
      <point x="2372" y="157"/>
      <point x="2372" y="523" type="curve" smooth="yes"/>
      <point x="2372" y="828"/>
      <point x="2208" y="976"/>
      <point x="2208" y="1242" type="curve" smooth="yes"/>
      <point x="2208" y="1352"/>
      <point x="2235" y="1449"/>
      <point x="2304" y="1558" type="curve"/>
      <point x="2100" y="1558" type="line"/>
      <point x="2032" y="1463"/>
      <point x="2000" y="1351"/>
      <point x="2000" y="1233" type="curve" smooth="yes"/>
      <point x="2000" y="948"/>
      <point x="2164" y="796"/>
      <point x="2164" y="530" type="curve" smooth="yes"/>
      <point x="2164" y="272"/>
      <point x="2002" y="127"/>
      <point x="1671" y="127" type="curve" smooth="yes"/>
      <point x="1558" y="127"/>
      <point x="1466" y="146"/>
      <point x="1385" y="173" type="curve"/>
      <point x="1330" y="199" type="line"/>
      <point x="1162" y="273"/>
      <point x="1083" y="426"/>
      <point x="1046" y="646" type="curve" smooth="yes"/>
      <point x="1026" y="764" type="line"/>
      <point x="1021" y="800"/>
      <point x="1014" y="834"/>
      <point x="1006" y="865" type="curve"/>
      <point x="987" y="887" type="line"/>
      <point x="938" y="1082"/>
      <point x="818" y="1169"/>
      <point x="594" y="1169" type="curve" smooth="yes"/>
      <point x="293" y="1169"/>
      <point x="134" y="995"/>
      <point x="134" y="674" type="curve" smooth="yes"/>
      <point x="134" y="654" type="line" smooth="yes"/>
      <point x="134" y="195"/>
      <point x="394" y="-42"/>
      <point x="889" y="-42" type="curve" smooth="yes"/>
      <point x="1089" y="-42"/>
      <point x="1247" y="11"/>
      <point x="1352" y="97" type="curve"/>
      <point x="1424" y="128" type="line"/>
      <point x="1527" y="178"/>
      <point x="1608" y="249"/>
      <point x="1666" y="334" type="curve" smooth="yes"/>
      <point x="1738" y="440"/>
      <point x="1778" y="570"/>
      <point x="1778" y="724" type="curve" smooth="yes"/>
      <point x="1778" y="1016"/>
      <point x="1626" y="1167"/>
      <point x="1350" y="1167" type="curve" smooth="yes"/>
      <point x="1155" y="1167"/>
      <point x="1024" y="1079"/>
      <point x="981" y="929" type="curve"/>
      <point x="935" y="929" type="line"/>
      <point x="1014" y="820" type="line"/>
      <point x="1061" y="924"/>
      <point x="1158" y="992"/>
      <point x="1304" y="992" type="curve" smooth="yes"/>
      <point x="1474" y="992"/>
      <point x="1572" y="891"/>
      <point x="1572" y="704" type="curve" smooth="yes"/>
      <point x="1572" y="578"/>
      <point x="1540" y="468"/>
      <point x="1482" y="380" type="curve" smooth="yes"/>
      <point x="1429" y="300"/>
      <point x="1355" y="236"/>
      <point x="1260" y="199" type="curve"/>
      <point x="1201" y="172" type="line"/>
      <point x="1116" y="145"/>
      <point x="1019" y="127"/>
      <point x="902" y="127" type="curve" smooth="yes"/>
      <point x="533" y="127"/>
      <point x="341" y="306"/>
      <point x="341" y="658" type="curve" smooth="yes"/>
      <point x="341" y="678" type="line" smooth="yes"/>
      <point x="341" y="884"/>
      <point x="427" y="994"/>
      <point x="591" y="994" type="curve" smooth="yes"/>
      <point x="734" y="994"/>
      <point x="794" y="915"/>
      <point x="822" y="747" type="curve" smooth="yes"/>
    </contour>
  </outline>
</glyph>
<glyph name="chilluZh.mlm" format="2">
  <advance width="1894"/>
  <unicode hex="0D56"/>
  <outline>
    <contour>
      <point x="621" y="1119" type="curve" smooth="yes"/>
      <point x="621" y="920"/>
      <point x="556" y="693"/>
      <point x="506" y="449" type="curve"/>
      <point x="503" y="439"/>
      <point x="501" y="434"/>
      <point x="497" y="423" type="curve"/>
      <point x="477" y="362"/>
      <point x="466" y="310"/>
      <point x="466" y="251" type="curve" smooth="yes"/>
      <point x="466" y="37"/>
      <point x="614" y="-73"/>
      <point x="911" y="-73" type="curve" smooth="yes"/>
      <point x="1218" y="-73"/>
      <point x="1370" y="26"/>
      <point x="1370" y="225" type="curve" smooth="yes"/>
      <point x="1370" y="288"/>
      <point x="1355" y="335"/>
      <point x="1319" y="395" type="curve"/>
      <point x="1301" y="461" type="line"/>
      <point x="1222" y="571"/>
      <point x="1161" y="673"/>
      <point x="1161" y="787" type="curve" smooth="yes"/>
      <point x="1161" y="795" type="line" smooth="yes"/>
      <point x="1161" y="932"/>
      <point x="1238" y="1006"/>
      <point x="1379" y="1006" type="curve" smooth="yes"/>
      <point x="1521" y="1006"/>
      <point x="1592" y="933"/>
      <point x="1592" y="807" type="curve" smooth="yes"/>
      <point x="1592" y="796" type="line" smooth="yes"/>
      <point x="1592" y="600"/>
      <point x="1388" y="493"/>
      <point x="958" y="493" type="curve" smooth="yes"/>
      <point x="518" y="493"/>
      <point x="309" y="608"/>
      <point x="309" y="845" type="curve" smooth="yes"/>
      <point x="309" y="858" type="line" smooth="yes"/>
      <point x="309" y="957"/>
      <point x="335" y="1042"/>
      <point x="375" y="1118" type="curve"/>
      <point x="174" y="1118" type="line"/>
      <point x="132" y="1049"/>
      <point x="106" y="956"/>
      <point x="106" y="850" type="curve" smooth="yes"/>
      <point x="106" y="833" type="line" smooth="yes"/>
      <point x="106" y="500"/>
      <point x="397" y="334"/>
      <point x="958" y="334" type="curve" smooth="yes"/>
      <point x="1510" y="334"/>
      <point x="1795" y="496"/>
      <point x="1795" y="797" type="curve" smooth="yes"/>
      <point x="1795" y="809" type="line" smooth="yes"/>
      <point x="1795" y="1047"/>
      <point x="1654" y="1171"/>
      <point x="1375" y="1171" type="curve" smooth="yes"/>
      <point x="1104" y="1171"/>
      <point x="960" y="1051"/>
      <point x="960" y="819" type="curve" smooth="yes"/>
      <point x="960" y="811" type="line" smooth="yes"/>
      <point x="960" y="668"/>
      <point x="1027" y="561"/>
      <point x="1102" y="472" type="curve"/>
      <point x="1122" y="375" type="line"/>
      <point x="1150" y="327"/>
      <point x="1164" y="293"/>
      <point x="1164" y="240" type="curve" smooth="yes"/>
      <point x="1164" y="141"/>
      <point x="1082" y="87"/>
      <point x="915" y="87" type="curve" smooth="yes"/>
      <point x="751" y="87"/>
      <point x="672" y="151"/>
      <point x="672" y="270" type="curve" smooth="yes"/>
      <point x="672" y="312"/>
      <point x="681" y="349"/>
      <point x="692" y="394" type="curve"/>
      <point x="696" y="419"/>
      <point x="696" y="435"/>
      <point x="699" y="459" type="curve"/>
      <point x="746" y="642"/>
      <point x="818" y="875"/>
      <point x="818" y="1119" type="curve" smooth="yes"/>
      <point x="818" y="1280"/>
      <point x="778" y="1428"/>
      <point x="698" y="1558" type="curve"/>
      <point x="500" y="1558" type="line"/>
      <point x="586" y="1404"/>
      <point x="621" y="1266"/>
    </contour>
  </outline>
</glyph>
<glyph name="oneonehundredandsixtieth.mlm" format="2">
  <advance width="3104"/>
  <unicode hex="0D58"/>
  <outline>
    <contour>
      <point x="1022" y="555" type="line"/>
      <point x="1227" y="550" type="line"/>
      <point x="1227" y="1115" type="line"/>
      <point x="1022" y="1115" type="line"/>
    </contour>
    <contour>
      <point x="1122" y="273" type="curve"/>
      <point x="1122" y="680" type="line"/>
      <point x="1022" y="680" type="line"/>
      <point x="1022" y="502" type="line" smooth="yes"/>
      <point x="1022" y="266.336"/>
      <point x="916" y="147"/>
      <point x="702" y="147" type="curve" smooth="yes"/>
      <point x="460" y="147"/>
      <point x="343" y="286.336"/>
      <point x="343" y="562" type="curve" smooth="yes"/>
      <point x="343" y="578" type="line" smooth="yes"/>
      <point x="343" y="791"/>
      <point x="421" y="971"/>
      <point x="558" y="1125" type="curve"/>
      <point x="341" y="1125" type="line"/>
      <point x="209.273" y="994"/>
      <point x="134" y="799"/>
      <point x="134" y="574" type="curve" smooth="yes"/>
      <point x="134" y="557" type="line" smooth="yes"/>
      <point x="134" y="163"/>
      <point x="315" y="-36"/>
      <point x="676" y="-36" type="curve" smooth="yes"/>
      <point x="944" y="-36"/>
      <point x="1087" y="85"/>
    </contour>
    <contour>
      <point x="1541" y="-36" type="curve" smooth="yes"/>
      <point x="1789" y="-36"/>
      <point x="1924" y="86"/>
      <point x="1955" y="273" type="curve"/>
      <point x="1998" y="273" type="line"/>
      <point x="1998" y="678" type="line"/>
      <point x="1855" y="684" type="line"/>
      <point x="1855" y="494" type="line" smooth="yes"/>
      <point x="1855" y="263.335"/>
      <point x="1751" y="147"/>
      <point x="1541" y="147" type="curve" smooth="yes"/>
      <point x="1332" y="147"/>
      <point x="1227" y="263.335"/>
      <point x="1227" y="494" type="curve" smooth="yes"/>
      <point x="1227" y="684" type="line"/>
      <point x="1084" y="678" type="line"/>
      <point x="1084" y="273" type="line"/>
      <point x="1127" y="273" type="line"/>
      <point x="1156" y="86"/>
      <point x="1293" y="-36"/>
    </contour>
    <contour>
      <point x="2060" y="555" type="line"/>
      <point x="2060" y="1115" type="line"/>
      <point x="1855" y="1115" type="line"/>
      <point x="1855" y="550" type="line"/>
    </contour>
    <contour>
      <point x="2761" y="620" type="line" smooth="yes"/>
      <point x="2761" y="305.335"/>
      <point x="2639" y="147"/>
      <point x="2387" y="147" type="curve" smooth="yes"/>
      <point x="2169" y="147"/>
      <point x="2060" y="266.336"/>
      <point x="2060" y="502" type="curve" smooth="yes"/>
      <point x="2060" y="680" type="line"/>
      <point x="1960" y="680" type="line"/>
      <point x="1960" y="273" type="line"/>
      <point x="1995" y="85"/>
      <point x="2141" y="-36"/>
      <point x="2413" y="-36" type="curve" smooth="yes"/>
      <point x="2784" y="-36"/>
      <point x="2970" y="182"/>
      <point x="2970" y="616" type="curve" smooth="yes"/>
      <point x="2970" y="635" type="line" smooth="yes"/>
      <point x="2970" y="1263"/>
      <point x="2550" y="1606"/>
      <point x="1769" y="1606" type="curve" smooth="yes"/>
      <point x="1514" y="1606"/>
      <point x="1269" y="1573"/>
      <point x="1059" y="1502" type="curve"/>
      <point x="1009" y="1321" type="line"/>
      <point x="1204" y="1387"/>
      <point x="1467" y="1434"/>
      <point x="1761" y="1434" type="curve" smooth="yes"/>
      <point x="2405" y="1434"/>
      <point x="2761" y="1161"/>
      <point x="2761" y="636" type="curve" smooth="yes"/>
    </contour>
  </outline>
</glyph>
<glyph name="onefortieth.mlm" format="2">
  <advance width="2651"/>
  <unicode hex="0D59"/>
  <outline>
    <contour>
      <point x="917" y="1001" type="curve" smooth="yes"/>
      <point x="1271" y="1001"/>
      <point x="1461" y="844"/>
      <point x="1461" y="517" type="curve" smooth="yes"/>
      <point x="1461" y="488" type="line" smooth="yes"/>
      <point x="1461" y="275"/>
      <point x="1387" y="129"/>
      <point x="1178" y="129" type="curve" smooth="yes"/>
      <point x="1025" y="129"/>
      <point x="942" y="205"/>
      <point x="942" y="334" type="curve" smooth="yes"/>
      <point x="942" y="343" type="line" smooth="yes"/>
      <point x="942" y="473"/>
      <point x="1031" y="544"/>
      <point x="1189" y="544" type="curve" smooth="yes"/>
      <point x="1572" y="544" type="line"/>
      <point x="1601" y="700" type="line"/>
      <point x="1166" y="700" type="line" smooth="yes"/>
      <point x="894" y="700"/>
      <point x="738" y="575"/>
      <point x="738" y="344" type="curve" smooth="yes"/>
      <point x="738" y="335" type="line" smooth="yes"/>
      <point x="738" y="96"/>
      <point x="893" y="-36"/>
      <point x="1173" y="-36" type="curve" smooth="yes"/>
      <point x="1495" y="-36"/>
      <point x="1659" y="148"/>
      <point x="1659" y="484" type="curve" smooth="yes"/>
      <point x="1659" y="514" type="line" smooth="yes"/>
      <point x="1659" y="950"/>
      <point x="1408" y="1175"/>
      <point x="914" y="1175" type="curve" smooth="yes"/>
      <point x="397" y="1175"/>
      <point x="134" y="938"/>
      <point x="134" y="495" type="curve" smooth="yes"/>
      <point x="134" y="480" type="line" smooth="yes"/>
      <point x="134" y="295"/>
      <point x="188" y="119"/>
      <point x="282" y="0" type="curve"/>
      <point x="500" y="0" type="line"/>
      <point x="398" y="142"/>
      <point x="343" y="297"/>
      <point x="343" y="469" type="curve" smooth="yes"/>
      <point x="343" y="485" type="line" smooth="yes"/>
      <point x="343" y="828"/>
      <point x="533" y="1001"/>
    </contour>
    <contour>
      <point x="2009" y="690" type="line"/>
      <point x="2009" y="804" type="line" smooth="yes"/>
      <point x="2009" y="936"/>
      <point x="2080" y="998"/>
      <point x="2219" y="998" type="curve" smooth="yes"/>
      <point x="2340" y="998"/>
      <point x="2406" y="942"/>
      <point x="2406" y="847" type="curve" smooth="yes"/>
      <point x="2406" y="839" type="line" smooth="yes"/>
      <point x="2406" y="750"/>
      <point x="2339" y="700"/>
      <point x="2218" y="700" type="curve" smooth="yes"/>
      <point x="1541" y="700" type="line"/>
      <point x="1633" y="543" type="line"/>
      <point x="2242" y="543" type="line" smooth="yes"/>
      <point x="2478" y="543"/>
      <point x="2610" y="645"/>
      <point x="2610" y="837" type="curve" smooth="yes"/>
      <point x="2610" y="847" type="line" smooth="yes"/>
      <point x="2610" y="1050"/>
      <point x="2473" y="1162"/>
      <point x="2224" y="1162" type="curve" smooth="yes"/>
      <point x="1960" y="1162"/>
      <point x="1822" y="1044"/>
      <point x="1822" y="818" type="curve" smooth="yes"/>
      <point x="1822" y="683" type="line"/>
    </contour>
  </outline>
</glyph>
<glyph name="threeeightieths.mlm" format="2">
  <advance width="2699"/>
  <unicode hex="0D5A"/>
  <outline>
    <contour>
      <point x="722" y="986" type="curve" smooth="yes"/>
      <point x="951" y="986"/>
      <point x="1065" y="866"/>
      <point x="1065" y="628" type="curve" smooth="yes"/>
      <point x="1065" y="439" type="line"/>
      <point x="1168" y="445" type="line"/>
      <point x="1168" y="824" type="line"/>
      <point x="1136" y="1046"/>
      <point x="978" y="1169"/>
      <point x="699" y="1169" type="curve" smooth="yes"/>
      <point x="325" y="1169"/>
      <point x="134" y="965"/>
      <point x="134" y="563" type="curve" smooth="yes"/>
      <point x="134" y="546" type="line" smooth="yes"/>
      <point x="134" y="321"/>
      <point x="199.267" y="133"/>
      <point x="323" y="0" type="curve"/>
      <point x="547" y="0" type="line"/>
      <point x="418" y="153"/>
      <point x="343" y="333"/>
      <point x="343" y="546" type="curve" smooth="yes"/>
      <point x="343" y="563" type="line" smooth="yes"/>
      <point x="343" y="845"/>
      <point x="469" y="986"/>
    </contour>
    <contour>
      <point x="1151" y="824" type="line"/>
      <point x="1065" y="517" type="line"/>
      <point x="1065" y="0" type="line"/>
      <point x="1266" y="0" type="line"/>
      <point x="1266" y="507" type="line" smooth="yes"/>
      <point x="1266" y="853"/>
      <point x="1431" y="1002"/>
      <point x="1797" y="1002" type="curve" smooth="yes"/>
      <point x="2143" y="1002"/>
      <point x="2327" y="853"/>
      <point x="2327" y="510" type="curve" smooth="yes"/>
      <point x="2327" y="0" type="line"/>
      <point x="2531" y="0" type="line"/>
      <point x="2531" y="515" type="line" smooth="yes"/>
      <point x="2531" y="949"/>
      <point x="2289" y="1169"/>
      <point x="1812" y="1169" type="curve" smooth="yes"/>
      <point x="1446" y="1169"/>
      <point x="1239" y="1046"/>
      <point x="1173" y="824" type="curve"/>
    </contour>
    <contour>
      <point x="1163" y="156" type="line"/>
      <point x="1085" y="0" type="line"/>
      <point x="2506" y="0" type="line"/>
      <point x="2438" y="156" type="line"/>
    </contour>
    <contour>
      <point x="1970.07" y="614" type="line" smooth="yes"/>
      <point x="1970.07" y="850.375"/>
      <point x="1823.35" y="980"/>
      <point x="1586.07" y="980" type="curve" smooth="yes"/>
      <point x="1523.75" y="980"/>
      <point x="1453.4" y="974"/>
      <point x="1387.07" y="945" type="curve"/>
      <point x="1319.07" y="828" type="line"/>
      <point x="1381.9" y="867.167"/>
      <point x="1444.73" y="875"/>
      <point x="1501.07" y="875" type="curve" smooth="yes"/>
      <point x="1671.8" y="875"/>
      <point x="1761.07" y="777.139"/>
      <point x="1761.07" y="618" type="curve" smooth="yes"/>
      <point x="1761.07" y="611" type="line" smooth="yes"/>
      <point x="1761.07" y="401.364"/>
      <point x="1620.07" y="231.47"/>
      <point x="1410.07" y="150" type="curve"/>
      <point x="1579.07" y="102" type="line"/>
      <point x="1821.07" y="183.515"/>
      <point x="1970.07" y="371.396"/>
      <point x="1970.07" y="606" type="curve" smooth="yes"/>
    </contour>
  </outline>
</glyph>
<glyph name="uni0D62" format="2">
  <unicode hex="0D62"/>
  <outline>
    <contour>
      <point x="-1159" y="-561" type="line"/>
      <point x="-992" y="-561" type="line"/>
      <point x="-992" y="-261" type="line"/>
      <point x="-1159" y="-260" type="line"/>
    </contour>
    <contour>
      <point x="-1527" y="91" type="curve" smooth="yes"/>
      <point x="-1866" y="91"/>
      <point x="-2038" y="-34"/>
      <point x="-2038" y="-286" type="curve" smooth="yes"/>
      <point x="-2038" y="-296" type="line" smooth="yes"/>
      <point x="-2038" y="-483"/>
      <point x="-1924" y="-583"/>
      <point x="-1692" y="-583" type="curve" smooth="yes"/>
      <point x="-1484" y="-583"/>
      <point x="-1368" y="-509"/>
      <point x="-1368" y="-361" type="curve" smooth="yes"/>
      <point x="-1368" y="-358" type="line" smooth="yes"/>
      <point x="-1368" y="-221"/>
      <point x="-1470" y="-144"/>
      <point x="-1638" y="-144" type="curve" smooth="yes"/>
      <point x="-1756" y="-144"/>
      <point x="-1840" y="-194"/>
      <point x="-1877" y="-281" type="curve"/>
      <point x="-1872" y="-332" type="line"/>
      <point x="-1838" y="-293"/>
      <point x="-1776" y="-264"/>
      <point x="-1687" y="-264" type="curve" smooth="yes"/>
      <point x="-1591" y="-264"/>
      <point x="-1535" y="-299"/>
      <point x="-1535" y="-361" type="curve" smooth="yes"/>
      <point x="-1535" y="-364" type="line" smooth="yes"/>
      <point x="-1535" y="-429"/>
      <point x="-1596" y="-462"/>
      <point x="-1694" y="-462" type="curve" smooth="yes"/>
      <point x="-1812" y="-462"/>
      <point x="-1871" y="-415"/>
      <point x="-1871" y="-321" type="curve" smooth="yes"/>
      <point x="-1871" y="-303" type="line"/>
      <point x="-1865" y="-274" type="line"/>
      <point x="-1878" y="-274" type="line"/>
      <point x="-1878" y="-122.427"/>
      <point x="-1753.35" y="-39"/>
      <point x="-1519" y="-39" type="curve" smooth="yes"/>
      <point x="-1283" y="-39"/>
      <point x="-1159" y="-120"/>
      <point x="-1159" y="-275" type="curve" smooth="yes"/>
      <point x="-1159" y="-328" type="line"/>
      <point x="-1042" y="-292" type="line"/>
      <point x="-1078" y="-95" type="line"/>
      <point x="-1134" y="28"/>
      <point x="-1282" y="91"/>
    </contour>
    <contour>
      <point x="-624" y="91" type="curve" smooth="yes"/>
      <point x="-869" y="91"/>
      <point x="-1015" y="28"/>
      <point x="-1073" y="-95" type="curve"/>
      <point x="-1111" y="-95" type="line"/>
      <point x="-1109" y="-292" type="line"/>
      <point x="-992" y="-328" type="line"/>
      <point x="-992" y="-275" type="line" smooth="yes"/>
      <point x="-992" y="-120"/>
      <point x="-868" y="-39"/>
      <point x="-632" y="-39" type="curve" smooth="yes"/>
      <point x="-400" y="-39"/>
      <point x="-273" y="-124"/>
      <point x="-273" y="-274" type="curve"/>
      <point x="-286" y="-274" type="line"/>
      <point x="-280" y="-303" type="line"/>
      <point x="-280" y="-321" type="line" smooth="yes"/>
      <point x="-280" y="-415"/>
      <point x="-339" y="-462"/>
      <point x="-457" y="-462" type="curve" smooth="yes"/>
      <point x="-555" y="-462"/>
      <point x="-616" y="-429"/>
      <point x="-616" y="-364" type="curve" smooth="yes"/>
      <point x="-616" y="-361" type="line" smooth="yes"/>
      <point x="-616" y="-299"/>
      <point x="-560" y="-264"/>
      <point x="-464" y="-264" type="curve" smooth="yes"/>
      <point x="-375" y="-264"/>
      <point x="-313" y="-293"/>
      <point x="-279" y="-332" type="curve"/>
      <point x="-274" y="-281" type="line"/>
      <point x="-311" y="-194"/>
      <point x="-395" y="-144"/>
      <point x="-513" y="-144" type="curve" smooth="yes"/>
      <point x="-681" y="-144"/>
      <point x="-783" y="-221"/>
      <point x="-783" y="-358" type="curve" smooth="yes"/>
      <point x="-783" y="-361" type="line" smooth="yes"/>
      <point x="-783" y="-509"/>
      <point x="-667" y="-583"/>
      <point x="-459" y="-583" type="curve" smooth="yes"/>
      <point x="-227" y="-583"/>
      <point x="-113" y="-483"/>
      <point x="-113" y="-296" type="curve" smooth="yes"/>
      <point x="-113" y="-286" type="line" smooth="yes"/>
      <point x="-113" y="-34"/>
      <point x="-285" y="91"/>
    </contour>
  </outline>
</glyph>
<glyph name="one.mlm" format="2">
  <advance width="1916"/>
  <unicode hex="0D67"/>
  <outline>
    <contour>
      <point x="774" y="163" type="line"/>
      <point x="720" y="0" type="line"/>
      <point x="1748" y="0" type="line"/>
      <point x="1748" y="646" type="line" smooth="yes"/>
      <point x="1748" y="998"/>
      <point x="1562" y="1172"/>
      <point x="1201" y="1172" type="curve" smooth="yes"/>
      <point x="840" y="1172"/>
      <point x="656" y="998"/>
      <point x="656" y="646" type="curve" smooth="yes"/>
      <point x="656" y="0" type="line"/>
      <point x="861" y="0" type="line"/>
      <point x="861" y="645" type="line" smooth="yes"/>
      <point x="861" y="882"/>
      <point x="976" y="993"/>
      <point x="1202" y="993" type="curve" smooth="yes"/>
      <point x="1428" y="993"/>
      <point x="1543" y="882"/>
      <point x="1543" y="645" type="curve" smooth="yes"/>
      <point x="1543" y="163" type="line"/>
    </contour>
    <contour>
      <point x="783" y="163" type="line"/>
      <point x="334" y="163" type="line" smooth="yes"/>
      <point x="101" y="163"/>
      <point x="-18" y="59"/>
      <point x="-18" y="-135" type="curve" smooth="yes"/>
      <point x="-18" y="-326"/>
      <point x="101" y="-428"/>
      <point x="334" y="-428" type="curve" smooth="yes"/>
      <point x="711" y="-428" type="line"/>
      <point x="740" y="-267" type="line"/>
      <point x="351" y="-267" type="line" smooth="yes"/>
      <point x="245" y="-267"/>
      <point x="188" y="-225"/>
      <point x="188" y="-135" type="curve" smooth="yes"/>
      <point x="188" y="-45"/>
      <point x="245" y="0"/>
      <point x="351" y="0" type="curve" smooth="yes"/>
      <point x="756" y="0" type="line"/>
    </contour>
  </outline>
</glyph>
<glyph name="four.mlm" format="2">
  <advance width="1824"/>
  <unicode hex="0D6A"/>
  <outline>
    <contour>
      <point x="766" y="387" type="curve" smooth="yes"/>
      <point x="766" y="371" type="line" smooth="yes"/>
      <point x="766" y="110"/>
      <point x="926" y="-36"/>
      <point x="1221" y="-36" type="curve" smooth="yes"/>
      <point x="1535" y="-36"/>
      <point x="1695" y="142"/>
      <point x="1695" y="466" type="curve" smooth="yes"/>
      <point x="1695" y="484" type="line" smooth="yes"/>
      <point x="1695" y="728"/>
      <point x="1601" y="903"/>
      <point x="1451" y="1016" type="curve"/>
      <point x="1384" y="1056" type="line" smooth="yes"/>
      <point x="1258" y="1131"/>
      <point x="1098" y="1173"/>
      <point x="910" y="1173" type="curve" smooth="yes"/>
      <point x="394" y="1173"/>
      <point x="134" y="937"/>
      <point x="134" y="495" type="curve" smooth="yes"/>
      <point x="134" y="480" type="line" smooth="yes"/>
      <point x="134" y="295"/>
      <point x="188" y="119"/>
      <point x="282" y="0" type="curve"/>
      <point x="500" y="0" type="line"/>
      <point x="398" y="142"/>
      <point x="343" y="297"/>
      <point x="343" y="469" type="curve" smooth="yes"/>
      <point x="343" y="485" type="line" smooth="yes"/>
      <point x="343" y="828"/>
      <point x="535" y="1002"/>
      <point x="913" y="1002" type="curve" smooth="yes"/>
      <point x="1045" y="1002"/>
      <point x="1156" y="975"/>
      <point x="1244" y="933" type="curve"/>
      <point x="1310" y="893" type="line"/>
      <point x="1424" y="804"/>
      <point x="1487" y="668"/>
      <point x="1487" y="479" type="curve" smooth="yes"/>
      <point x="1487" y="466" type="line" smooth="yes"/>
      <point x="1487" y="251"/>
      <point x="1402" y="134"/>
      <point x="1222" y="134" type="curve" smooth="yes"/>
      <point x="1064" y="134"/>
      <point x="973" y="220"/>
      <point x="973" y="377" type="curve" smooth="yes"/>
      <point x="973" y="387" type="line" smooth="yes"/>
      <point x="973" y="605"/>
      <point x="1133" y="736"/>
      <point x="1381" y="887" type="curve"/>
      <point x="1451" y="946" type="line"/>
      <point x="1577" y="1036"/>
      <point x="1660" y="1144"/>
      <point x="1660" y="1302" type="curve" smooth="yes"/>
      <point x="1660" y="1397"/>
      <point x="1633" y="1481"/>
      <point x="1582" y="1550" type="curve"/>
      <point x="1391" y="1550" type="line"/>
      <point x="1448" y="1466"/>
      <point x="1468" y="1393"/>
      <point x="1468" y="1306" type="curve" smooth="yes"/>
      <point x="1468" y="1193"/>
      <point x="1409" y="1108"/>
      <point x="1304" y="1037" type="curve"/>
      <point x="1240" y="985" type="line"/>
      <point x="981" y="833"/>
      <point x="766" y="679"/>
    </contour>
  </outline>
</glyph>
<glyph name="seven.mlm" format="2">
  <advance width="1848"/>
  <unicode hex="0D6D"/>
  <outline>
    <contour>
      <point x="322" y="462" type="curve"/>
      <point x="335" y="401" type="line"/>
      <point x="382" y="494"/>
      <point x="483" y="552"/>
      <point x="622" y="552" type="curve" smooth="yes"/>
      <point x="785" y="552"/>
      <point x="874" y="478"/>
      <point x="874" y="348" type="curve" smooth="yes"/>
      <point x="874" y="340" type="line" smooth="yes"/>
      <point x="874" y="206"/>
      <point x="784" y="129"/>
      <point x="620" y="129" type="curve" smooth="yes"/>
      <point x="435" y="129"/>
      <point x="336" y="231"/>
      <point x="336" y="422" type="curve" smooth="yes"/>
      <point x="336" y="430" type="line"/>
      <point x="350" y="496" type="line"/>
      <point x="325" y="496" type="line"/>
      <point x="325" y="497" type="line"/>
      <point x="325" y="834"/>
      <point x="526" y="1001"/>
      <point x="906" y="1001" type="curve" smooth="yes"/>
      <point x="1296" y="1001"/>
      <point x="1505" y="810"/>
      <point x="1505" y="425" type="curve" smooth="yes"/>
      <point x="1505" y="408" type="line" smooth="yes"/>
      <point x="1505" y="-26"/>
      <point x="1277" y="-250"/>
      <point x="861" y="-250" type="curve" smooth="yes"/>
      <point x="724" y="-250"/>
      <point x="608" y="-233"/>
      <point x="519" y="-206" type="curve"/>
      <point x="565" y="-373" type="line"/>
      <point x="662" y="-404"/>
      <point x="773" y="-415"/>
      <point x="892" y="-415" type="curve" smooth="yes"/>
      <point x="1427" y="-415"/>
      <point x="1714" y="-123"/>
      <point x="1714" y="408" type="curve" smooth="yes"/>
      <point x="1714" y="425" type="line" smooth="yes"/>
      <point x="1714" y="923"/>
      <point x="1436" y="1175"/>
      <point x="908" y="1175" type="curve" smooth="yes"/>
      <point x="391" y="1175"/>
      <point x="130" y="940"/>
      <point x="130" y="489" type="curve" smooth="yes"/>
      <point x="130" y="476" type="line" smooth="yes"/>
      <point x="130" y="144"/>
      <point x="299" y="-36"/>
      <point x="621" y="-36" type="curve" smooth="yes"/>
      <point x="918" y="-36"/>
      <point x="1077" y="98"/>
      <point x="1077" y="346" type="curve" smooth="yes"/>
      <point x="1077" y="355" type="line" smooth="yes"/>
      <point x="1077" y="590"/>
      <point x="938" y="716"/>
      <point x="700" y="716" type="curve" smooth="yes"/>
      <point x="492" y="716"/>
      <point x="357" y="622"/>
    </contour>
  </outline>
</glyph>
<glyph name="onehundred.mlm" format="2">
  <advance width="2306"/>
  <unicode hex="0D71"/>
  <outline>
    <contour>
      <point x="1579" y="986" type="curve" smooth="yes"/>
      <point x="1835" y="986"/>
      <point x="1963" y="818"/>
      <point x="1963" y="483" type="curve" smooth="yes"/>
      <point x="1963" y="467" type="line" smooth="yes"/>
      <point x="1963" y="-7"/>
      <point x="1732" y="-251"/>
      <point x="1312" y="-251" type="curve" smooth="yes"/>
      <point x="1166" y="-251"/>
      <point x="1041" y="-233"/>
      <point x="947" y="-205" type="curve"/>
      <point x="994" y="-373" type="line"/>
      <point x="1095" y="-404"/>
      <point x="1210" y="-415"/>
      <point x="1334" y="-415" type="curve" smooth="yes"/>
      <point x="1880" y="-415"/>
      <point x="2172" y="-102"/>
      <point x="2172" y="467" type="curve" smooth="yes"/>
      <point x="2172" y="483" type="line" smooth="yes"/>
      <point x="2172" y="939"/>
      <point x="1982" y="1169"/>
      <point x="1601" y="1169" type="curve" smooth="yes"/>
      <point x="1332" y="1169"/>
      <point x="1188" y="1047"/>
      <point x="1152" y="855" type="curve"/>
      <point x="1130" y="855" type="line"/>
      <point x="1136" y="445" type="line"/>
      <point x="1252" y="445" type="line"/>
      <point x="1252" y="627" type="line" smooth="yes"/>
      <point x="1252" y="866"/>
      <point x="1359" y="986"/>
    </contour>
    <contour>
      <point x="1047" y="577" type="line"/>
      <point x="1047" y="6" type="line"/>
      <point x="1252" y="6" type="line"/>
      <point x="1252" y="577" type="line"/>
    </contour>
    <contour>
      <point x="134" y="563" type="curve" smooth="yes"/>
      <point x="134" y="546" type="line" smooth="yes"/>
      <point x="134" y="321"/>
      <point x="199.267" y="133"/>
      <point x="323" y="0" type="curve"/>
      <point x="547" y="0" type="line"/>
      <point x="417" y="153"/>
      <point x="343" y="333"/>
      <point x="343" y="546" type="curve" smooth="yes"/>
      <point x="343" y="563" type="line" smooth="yes"/>
      <point x="343" y="845"/>
      <point x="464" y="986"/>
      <point x="713" y="986" type="curve" smooth="yes"/>
      <point x="937" y="986"/>
      <point x="1047" y="865"/>
      <point x="1047" y="627" type="curve" smooth="yes"/>
      <point x="1047" y="445" type="line"/>
      <point x="1148" y="445" type="line"/>
      <point x="1147" y="850" type="line"/>
      <point x="1111" y="1045"/>
      <point x="966" y="1169"/>
      <point x="691" y="1169" type="curve" smooth="yes"/>
      <point x="322" y="1169"/>
      <point x="134" y="965"/>
    </contour>
  </outline>
</glyph>
<glyph name="onethousand.mlm" format="2">
  <advance width="3493"/>
  <unicode hex="0D72"/>
  <outline>
    <component base="date.mlm"/>
    <contour>
      <point x="2846" y="690" type="line"/>
      <point x="2846" y="804" type="line" smooth="yes"/>
      <point x="2846" y="936"/>
      <point x="2917" y="998"/>
      <point x="3056" y="998" type="curve" smooth="yes"/>
      <point x="3177" y="998"/>
      <point x="3243" y="942"/>
      <point x="3243" y="847" type="curve" smooth="yes"/>
      <point x="3243" y="839" type="line" smooth="yes"/>
      <point x="3243" y="750"/>
      <point x="3176" y="700"/>
      <point x="3055" y="700" type="curve" smooth="yes"/>
      <point x="2378" y="700" type="line"/>
      <point x="2470" y="543" type="line"/>
      <point x="3079" y="543" type="line" smooth="yes"/>
      <point x="3315" y="543"/>
      <point x="3447" y="645"/>
      <point x="3447" y="837" type="curve" smooth="yes"/>
      <point x="3447" y="847" type="line" smooth="yes"/>
      <point x="3447" y="1050"/>
      <point x="3310" y="1162"/>
      <point x="3061" y="1162" type="curve" smooth="yes"/>
      <point x="2797" y="1162"/>
      <point x="2659" y="1044"/>
      <point x="2659" y="818" type="curve" smooth="yes"/>
      <point x="2659" y="683" type="line"/>
    </contour>
  </outline>
</glyph>
<glyph name="onehalf.mlm" format="2">
  <advance width="2256"/>
  <unicode hex="0D74"/>
  <outline>
    <contour>
      <point x="1662" y="-36" type="curve" smooth="yes"/>
      <point x="1970" y="-36"/>
      <point x="2127" y="136"/>
      <point x="2127" y="448" type="curve" smooth="yes"/>
      <point x="2127" y="463" type="line" smooth="yes"/>
      <point x="2127" y="792"/>
      <point x="1952" y="1013"/>
      <point x="1605" y="1112" type="curve"/>
      <point x="1579" y="1121"/>
      <point x="1550" y="1129"/>
      <point x="1520" y="1135" type="curve" smooth="yes"/>
      <point x="1403" y="1161"/>
      <point x="1270" y="1175"/>
      <point x="1118" y="1175" type="curve" smooth="yes"/>
      <point x="459" y="1175"/>
      <point x="130" y="937"/>
      <point x="130" y="469" type="curve" smooth="yes"/>
      <point x="130" y="450" type="line" smooth="yes"/>
      <point x="130" y="139"/>
      <point x="295" y="-36"/>
      <point x="605" y="-36" type="curve" smooth="yes"/>
      <point x="899" y="-36"/>
      <point x="1052" y="96"/>
      <point x="1052" y="337" type="curve" smooth="yes"/>
      <point x="1052" y="348" type="line" smooth="yes"/>
      <point x="1052" y="581"/>
      <point x="920" y="705"/>
      <point x="688" y="705" type="curve" smooth="yes"/>
      <point x="487" y="705"/>
      <point x="358" y="613"/>
      <point x="320" y="456" type="curve"/>
      <point x="331" y="388" type="line"/>
      <point x="374" y="481"/>
      <point x="474" y="541"/>
      <point x="610" y="541" type="curve" smooth="yes"/>
      <point x="763" y="541"/>
      <point x="849" y="470"/>
      <point x="849" y="343" type="curve" smooth="yes"/>
      <point x="849" y="334" type="line" smooth="yes"/>
      <point x="849" y="203"/>
      <point x="765" y="129"/>
      <point x="605" y="129" type="curve" smooth="yes"/>
      <point x="427" y="129"/>
      <point x="333" y="229"/>
      <point x="333" y="414" type="curve" smooth="yes"/>
      <point x="333" y="426" type="line"/>
      <point x="340" y="490" type="line"/>
      <point x="324" y="490" type="line"/>
      <point x="324" y="491" type="line"/>
      <point x="324" y="837"/>
      <point x="595" y="1005"/>
      <point x="1114" y="1005" type="curve" smooth="yes"/>
      <point x="1234" y="1005"/>
      <point x="1338" y="995"/>
      <point x="1431" y="979" type="curve"/>
      <point x="1465" y="968"/>
      <point x="1514" y="954"/>
      <point x="1530" y="948" type="curve"/>
      <point x="1789" y="877"/>
      <point x="1919" y="720"/>
      <point x="1919" y="461" type="curve" smooth="yes"/>
      <point x="1919" y="448" type="line" smooth="yes"/>
      <point x="1919" y="245"/>
      <point x="1837" y="134"/>
      <point x="1664" y="134" type="curve" smooth="yes"/>
      <point x="1503" y="134"/>
      <point x="1417" y="235"/>
      <point x="1417" y="423" type="curve" smooth="yes"/>
      <point x="1417" y="432" type="line" smooth="yes"/>
      <point x="1417" y="644"/>
      <point x="1505" y="823"/>
      <point x="1613" y="1001" type="curve"/>
      <point x="1618" y="1014"/>
      <point x="1641" y="1072"/>
      <point x="1645" y="1084" type="curve"/>
      <point x="1682" y="1162"/>
      <point x="1702" y="1234"/>
      <point x="1702" y="1306" type="curve" smooth="yes"/>
      <point x="1702" y="1404"/>
      <point x="1675" y="1490"/>
      <point x="1623" y="1559" type="curve"/>
      <point x="1432" y="1559" type="line"/>
      <point x="1487" y="1475"/>
      <point x="1510" y="1396"/>
      <point x="1510" y="1305" type="curve" smooth="yes"/>
      <point x="1510" y="1240"/>
      <point x="1497" y="1180"/>
      <point x="1471" y="1118" type="curve"/>
      <point x="1466" y="1105"/>
      <point x="1437" y="1052"/>
      <point x="1431" y="1037" type="curve"/>
      <point x="1307" y="855"/>
      <point x="1210" y="672"/>
      <point x="1210" y="430" type="curve" smooth="yes"/>
      <point x="1210" y="419" type="line" smooth="yes"/>
      <point x="1210" y="125"/>
      <point x="1367" y="-36"/>
    </contour>
  </outline>
</glyph>
<glyph name="onesixteenth.mlm" format="2">
  <advance width="3143"/>
  <unicode hex="0D76"/>
  <outline>
    <contour>
      <point x="950" y="160" type="line"/>
      <point x="882" y="0" type="line"/>
      <point x="1660" y="0" type="line"/>
      <point x="1660" y="160" type="line"/>
    </contour>
    <contour>
      <point x="640" y="763" type="curve" smooth="yes"/>
      <point x="299" y="763"/>
      <point x="125" y="608.292"/>
      <point x="125" y="310" type="curve" smooth="yes"/>
      <point x="125" y="297" type="line" smooth="yes"/>
      <point x="125" y="178.003"/>
      <point x="163" y="70.8079"/>
      <point x="228" y="0" type="curve"/>
      <point x="441" y="0" type="line"/>
      <point x="376" y="83.588"/>
      <point x="331" y="183.894"/>
      <point x="331" y="296" type="curve" smooth="yes"/>
      <point x="331" y="306" type="line" smooth="yes"/>
      <point x="331" y="490.964"/>
      <point x="433" y="586"/>
      <point x="640" y="586" type="curve" smooth="yes"/>
      <point x="847" y="586"/>
      <point x="949" y="490.964"/>
      <point x="949" y="306" type="curve" smooth="yes"/>
      <point x="949" y="296" type="line" smooth="yes"/>
      <point x="949" y="191.834"/>
      <point x="904" y="93.564"/>
      <point x="836" y="12" type="curve"/>
      <point x="836" y="0" type="line"/>
      <point x="988" y="0" type="line"/>
      <point x="1101.87" y="84.6345"/>
      <point x="1157" y="187.752"/>
      <point x="1157" y="322" type="curve" smooth="yes"/>
      <point x="1157" y="330" type="line" smooth="yes"/>
      <point x="1157" y="617.986"/>
      <point x="983" y="763"/>
    </contour>
    <contour>
      <point x="1607" y="156" type="line"/>
      <point x="1529" y="0" type="line"/>
      <point x="2950" y="0" type="line"/>
      <point x="2882" y="156" type="line"/>
    </contour>
    <contour>
      <point x="2241" y="1008" type="curve" smooth="yes"/>
      <point x="2587" y="1008"/>
      <point x="2771" y="857"/>
      <point x="2771" y="510" type="curve" smooth="yes"/>
      <point x="2771" y="0" type="line"/>
      <point x="2975" y="0" type="line"/>
      <point x="2975" y="515" type="line" smooth="yes"/>
      <point x="2975" y="953"/>
      <point x="2728" y="1175"/>
      <point x="2241" y="1175" type="curve" smooth="yes"/>
      <point x="1755" y="1175"/>
      <point x="1507" y="953"/>
      <point x="1507" y="515" type="curve" smooth="yes"/>
      <point x="1507" y="0" type="line"/>
      <point x="1710" y="0" type="line"/>
      <point x="1710" y="510" type="line" smooth="yes"/>
      <point x="1710" y="859"/>
      <point x="1875" y="1008"/>
    </contour>
    <contour>
      <point x="2414" y="617" type="line" smooth="yes"/>
      <point x="2414" y="855.312"/>
      <point x="2267.28" y="986"/>
      <point x="2030" y="986" type="curve" smooth="yes"/>
      <point x="1967.69" y="986"/>
      <point x="1897.33" y="980"/>
      <point x="1831" y="951" type="curve"/>
      <point x="1763" y="834" type="line"/>
      <point x="1825.83" y="873.167"/>
      <point x="1888.67" y="881"/>
      <point x="1945" y="881" type="curve" smooth="yes"/>
      <point x="2115.73" y="881"/>
      <point x="2205" y="781.996"/>
      <point x="2205" y="621" type="curve" smooth="yes"/>
      <point x="2205" y="614" type="line" smooth="yes"/>
      <point x="2205" y="403"/>
      <point x="2064" y="232"/>
      <point x="1854" y="150" type="curve"/>
      <point x="2023" y="102" type="line"/>
      <point x="2265" y="184"/>
      <point x="2414" y="373"/>
      <point x="2414" y="609" type="curve" smooth="yes"/>
    </contour>
  </outline>
</glyph>
<glyph name="oneeighth.mlm" format="2">
  <advance width="4513"/>
  <unicode hex="0D77"/>
  <outline>
    <contour>
      <point x="640" y="763" type="curve" smooth="yes"/>
      <point x="299" y="763"/>
      <point x="125" y="608.292"/>
      <point x="125" y="310" type="curve" smooth="yes"/>
      <point x="125" y="297" type="line" smooth="yes"/>
      <point x="125" y="178.003"/>
      <point x="163" y="70.8079"/>
      <point x="228" y="0" type="curve"/>
      <point x="441" y="0" type="line"/>
      <point x="376" y="83.588"/>
      <point x="331" y="183.894"/>
      <point x="331" y="296" type="curve" smooth="yes"/>
      <point x="331" y="306" type="line" smooth="yes"/>
      <point x="331" y="490.964"/>
      <point x="433" y="586"/>
      <point x="640" y="586" type="curve" smooth="yes"/>
      <point x="847" y="586"/>
      <point x="949" y="490.964"/>
      <point x="949" y="306" type="curve" smooth="yes"/>
      <point x="949" y="296" type="line" smooth="yes"/>
      <point x="949" y="191.834"/>
      <point x="904" y="93.564"/>
      <point x="836" y="12" type="curve"/>
      <point x="836" y="0" type="line"/>
      <point x="988" y="0" type="line"/>
      <point x="1101.87" y="84.6345"/>
      <point x="1157" y="187.752"/>
      <point x="1157" y="322" type="curve" smooth="yes"/>
      <point x="1157" y="330" type="line" smooth="yes"/>
      <point x="1157" y="617.986"/>
      <point x="983" y="763"/>
    </contour>
    <contour>
      <point x="2485" y="572" type="line"/>
      <point x="2485" y="281" type="line"/>
      <point x="2689" y="281" type="line"/>
      <point x="2689" y="554" type="line"/>
    </contour>
    <contour>
      <point x="3196" y="1169" type="curve" smooth="yes"/>
      <point x="2864" y="1169"/>
      <point x="2657" y="1051"/>
      <point x="2600" y="844" type="curve"/>
      <point x="2569" y="844" type="line"/>
      <point x="2568" y="517" type="line"/>
      <point x="2689" y="517" type="line"/>
      <point x="2689" y="585" type="line" smooth="yes"/>
      <point x="2689" y="850"/>
      <point x="2862" y="995"/>
      <point x="3195" y="995" type="curve" smooth="yes"/>
      <point x="3539" y="995"/>
      <point x="3720" y="840"/>
      <point x="3720" y="517" type="curve" smooth="yes"/>
      <point x="3720" y="488" type="line" smooth="yes"/>
      <point x="3720" y="274"/>
      <point x="3646" y="129"/>
      <point x="3438" y="129" type="curve" smooth="yes"/>
      <point x="3286" y="129"/>
      <point x="3202" y="205"/>
      <point x="3202" y="334" type="curve" smooth="yes"/>
      <point x="3202" y="343" type="line" smooth="yes"/>
      <point x="3202" y="472"/>
      <point x="3292" y="544"/>
      <point x="3449" y="544" type="curve" smooth="yes"/>
      <point x="3793" y="544" type="line"/>
      <point x="3822" y="700" type="line"/>
      <point x="3425" y="700" type="line" smooth="yes"/>
      <point x="3153" y="700"/>
      <point x="2998" y="576"/>
      <point x="2998" y="344" type="curve" smooth="yes"/>
      <point x="2998" y="335" type="line" smooth="yes"/>
      <point x="2998" y="96"/>
      <point x="3152" y="-36"/>
      <point x="3432" y="-36" type="curve" smooth="yes"/>
      <point x="3754" y="-36"/>
      <point x="3918" y="148"/>
      <point x="3918" y="484" type="curve" smooth="yes"/>
      <point x="3918" y="514" type="line" smooth="yes"/>
      <point x="3918" y="945"/>
      <point x="3676" y="1169"/>
    </contour>
    <contour>
      <point x="1575" y="565" type="curve" smooth="yes"/>
      <point x="1575" y="548" type="line" smooth="yes"/>
      <point x="1575" y="315.338"/>
      <point x="1650.78" y="133"/>
      <point x="1801" y="0" type="curve"/>
      <point x="1979" y="0" type="line"/>
      <point x="1979" y="12" type="line"/>
      <point x="1855" y="164"/>
      <point x="1784" y="339"/>
      <point x="1784" y="546" type="curve" smooth="yes"/>
      <point x="1784" y="563" type="line" smooth="yes"/>
      <point x="1784" y="845"/>
      <point x="1907" y="986"/>
      <point x="2154" y="986" type="curve" smooth="yes"/>
      <point x="2375" y="986"/>
      <point x="2485" y="866"/>
      <point x="2485" y="627" type="curve" smooth="yes"/>
      <point x="2485" y="439" type="line"/>
      <point x="2626" y="445" type="line"/>
      <point x="2594" y="844" type="line"/>
      <point x="2558" y="1047"/>
      <point x="2410" y="1169"/>
      <point x="2132" y="1169" type="curve" smooth="yes"/>
      <point x="1764" y="1169"/>
      <point x="1575" y="967.329"/>
    </contour>
    <contour>
      <point x="950" y="163" type="line"/>
      <point x="842" y="0" type="line"/>
      <point x="1979" y="0" type="line"/>
      <point x="1809" y="163" type="line"/>
    </contour>
    <contour>
      <point x="4404" y="1039" type="curve"/>
      <point x="4224" y="1039" type="line"/>
      <point x="4224" y="909" type="line" smooth="yes"/>
      <point x="4224" y="770"/>
      <point x="4161" y="700"/>
      <point x="4026" y="700" type="curve" smooth="yes"/>
      <point x="3850" y="700" type="line"/>
      <point x="3821" y="544" type="line"/>
      <point x="4069" y="544" type="line" smooth="yes"/>
      <point x="4294" y="544"/>
      <point x="4416" y="656"/>
      <point x="4416" y="882" type="curve" smooth="yes"/>
      <point x="4416" y="937"/>
      <point x="4412" y="979"/>
    </contour>
  </outline>
</glyph>
<glyph name="threesixteenths.mlm" format="2">
  <advance width="5424"/>
  <unicode hex="0D78"/>
  <outline>
    <contour>
      <point x="568" y="503" type="line"/>
      <point x="773" y="509" type="line"/>
      <point x="773" y="1124" type="line"/>
      <point x="568" y="1124" type="line"/>
    </contour>
    <contour>
      <point x="281" y="-36" type="curve" smooth="yes"/>
      <point x="517" y="-36"/>
      <point x="639" y="80"/>
      <point x="668" y="255" type="curve"/>
      <point x="711" y="255" type="line"/>
      <point x="711" y="678" type="line"/>
      <point x="568" y="684" type="line"/>
      <point x="568" y="475" type="line" smooth="yes"/>
      <point x="568" y="254"/>
      <point x="468" y="142"/>
      <point x="266" y="142" type="curve" smooth="yes"/>
      <point x="164" y="142"/>
      <point x="86" y="156"/>
      <point x="25" y="179" type="curve"/>
      <point x="72" y="-3" type="line"/>
      <point x="129" y="-24"/>
      <point x="202" y="-36"/>
    </contour>
    <contour>
      <point x="3453" y="1169" type="curve" smooth="yes"/>
      <point x="3132" y="1169"/>
      <point x="2969" y="1010"/>
      <point x="2969" y="697" type="curve" smooth="yes"/>
      <point x="2969" y="603"/>
      <point x="2969" y="550"/>
      <point x="2969" y="456" type="curve" smooth="yes"/>
      <point x="2969" y="249"/>
      <point x="2869" y="143"/>
      <point x="2674" y="143" type="curve" smooth="yes"/>
      <point x="2480" y="143"/>
      <point x="2379" y="249"/>
      <point x="2379" y="456" type="curve" smooth="yes"/>
      <point x="2379" y="548"/>
      <point x="2379" y="602"/>
      <point x="2379" y="694" type="curve" smooth="yes"/>
      <point x="2379" y="1009"/>
      <point x="2206" y="1170"/>
      <point x="1868" y="1170" type="curve" smooth="yes"/>
      <point x="1530" y="1170"/>
      <point x="1359" y="1009"/>
      <point x="1359" y="694" type="curve" smooth="yes"/>
      <point x="1359" y="602"/>
      <point x="1359" y="548"/>
      <point x="1359" y="456" type="curve" smooth="yes"/>
      <point x="1359" y="250"/>
      <point x="1262" y="147"/>
      <point x="1073" y="147" type="curve" smooth="yes"/>
      <point x="874" y="147"/>
      <point x="773" y="251"/>
      <point x="773" y="458" type="curve" smooth="yes"/>
      <point x="773" y="643" type="line"/>
      <point x="684" y="600" type="line"/>
      <point x="674" y="255" type="line"/>
      <point x="707" y="76"/>
      <point x="841" y="-37"/>
      <point x="1101" y="-37" type="curve" smooth="yes"/>
      <point x="1406" y="-37"/>
      <point x="1564" y="125"/>
      <point x="1564" y="437" type="curve" smooth="yes"/>
      <point x="1564" y="529"/>
      <point x="1564" y="584"/>
      <point x="1564" y="674" type="curve" smooth="yes"/>
      <point x="1564" y="885"/>
      <point x="1667" y="991"/>
      <point x="1870" y="991" type="curve" smooth="yes"/>
      <point x="2073" y="991"/>
      <point x="2174" y="885"/>
      <point x="2174" y="674" type="curve" smooth="yes"/>
      <point x="2174" y="584"/>
      <point x="2174" y="529"/>
      <point x="2174" y="437" type="curve" smooth="yes"/>
      <point x="2174" y="126"/>
      <point x="2345" y="-36"/>
      <point x="2674" y="-36" type="curve" smooth="yes"/>
      <point x="3004" y="-36"/>
      <point x="3174" y="126"/>
      <point x="3174" y="437" type="curve" smooth="yes"/>
      <point x="3174" y="530"/>
      <point x="3174" y="584"/>
      <point x="3174" y="675" type="curve" smooth="yes"/>
      <point x="3174" y="882"/>
      <point x="3276" y="986"/>
      <point x="3479" y="986" type="curve" smooth="yes"/>
      <point x="3685" y="986"/>
      <point x="3790" y="875"/>
      <point x="3790" y="675" type="curve" smooth="yes"/>
      <point x="3790" y="439" type="line"/>
      <point x="3894" y="445" type="line"/>
      <point x="3899" y="841" type="line"/>
      <point x="3873" y="1048"/>
      <point x="3720" y="1169"/>
    </contour>
    <contour>
      <point x="4537" y="1169" type="curve" smooth="yes"/>
      <point x="4185" y="1169"/>
      <point x="3977" y="1051"/>
      <point x="3904" y="841" type="curve"/>
      <point x="3884" y="841" type="line"/>
      <point x="3790" y="517" type="line"/>
      <point x="3790" y="0" type="line"/>
      <point x="3991" y="0" type="line"/>
      <point x="3991" y="507" type="line" smooth="yes"/>
      <point x="3991" y="853"/>
      <point x="4156" y="1002"/>
      <point x="4522" y="1002" type="curve" smooth="yes"/>
      <point x="4868" y="1002"/>
      <point x="5052" y="853"/>
      <point x="5052" y="510" type="curve" smooth="yes"/>
      <point x="5052" y="0" type="line"/>
      <point x="5256" y="0" type="line"/>
      <point x="5256" y="515" type="line" smooth="yes"/>
      <point x="5256" y="949"/>
      <point x="5014" y="1169"/>
    </contour>
    <contour>
      <point x="3888" y="156" type="line"/>
      <point x="3810" y="0" type="line"/>
      <point x="5231" y="0" type="line"/>
      <point x="5163" y="156" type="line"/>
    </contour>
    <contour>
      <point x="4694.75" y="614" type="line" smooth="yes"/>
      <point x="4694.75" y="850.375"/>
      <point x="4548.03" y="980"/>
      <point x="4310.75" y="980" type="curve" smooth="yes"/>
      <point x="4248.44" y="980"/>
      <point x="4178.08" y="974"/>
      <point x="4111.75" y="945" type="curve"/>
      <point x="4043.75" y="828" type="line"/>
      <point x="4106.58" y="867.167"/>
      <point x="4169.42" y="875"/>
      <point x="4225.75" y="875" type="curve" smooth="yes"/>
      <point x="4396.48" y="875"/>
      <point x="4485.75" y="777.139"/>
      <point x="4485.75" y="618" type="curve" smooth="yes"/>
      <point x="4485.75" y="611" type="line" smooth="yes"/>
      <point x="4485.75" y="401.364"/>
      <point x="4344.75" y="231.47"/>
      <point x="4134.75" y="150" type="curve"/>
      <point x="4303.75" y="102" type="line"/>
      <point x="4545.75" y="183.515"/>
      <point x="4694.75" y="371.396"/>
      <point x="4694.75" y="606" type="curve" smooth="yes"/>
    </contour>
  </outline>
</glyph>
<glyph name="chilluNn.mlm" format="2">
  <advance width="3825"/>
  <unicode hex="0D7A"/>
  <outline>
    <contour>
      <point x="1385" y="6" type="line"/>
      <point x="1589" y="6" type="line"/>
      <point x="1589" y="581" type="line"/>
      <point x="1385" y="572" type="line"/>
    </contour>
    <contour>
      <point x="861" y="1169" type="curve" smooth="yes"/>
      <point x="375" y="1169"/>
      <point x="130" y="937"/>
      <point x="130" y="490" type="curve" smooth="yes"/>
      <point x="130" y="477" type="line" smooth="yes"/>
      <point x="130" y="146"/>
      <point x="298" y="-36"/>
      <point x="617" y="-36" type="curve" smooth="yes"/>
      <point x="912" y="-36"/>
      <point x="1071" y="98"/>
      <point x="1071" y="344" type="curve" smooth="yes"/>
      <point x="1071" y="354" type="line" smooth="yes"/>
      <point x="1071" y="587"/>
      <point x="932" y="712"/>
      <point x="697" y="712" type="curve" smooth="yes"/>
      <point x="490" y="712"/>
      <point x="356" y="620"/>
      <point x="321" y="461" type="curve"/>
      <point x="334" y="401" type="line"/>
      <point x="381" y="492"/>
      <point x="480" y="549"/>
      <point x="618" y="549" type="curve" smooth="yes"/>
      <point x="779" y="549"/>
      <point x="868" y="476"/>
      <point x="868" y="347" type="curve" smooth="yes"/>
      <point x="868" y="338" type="line" smooth="yes"/>
      <point x="868" y="206"/>
      <point x="777" y="129"/>
      <point x="617" y="129" type="curve" smooth="yes"/>
      <point x="433" y="129"/>
      <point x="335" y="231"/>
      <point x="335" y="421" type="curve" smooth="yes"/>
      <point x="335" y="430" type="line"/>
      <point x="351" y="497" type="line"/>
      <point x="324" y="497" type="line"/>
      <point x="324" y="498" type="line"/>
      <point x="324" y="833"/>
      <point x="511" y="995"/>
      <point x="866" y="995" type="curve" smooth="yes"/>
      <point x="1208" y="995"/>
      <point x="1385" y="859"/>
      <point x="1385" y="605" type="curve" smooth="yes"/>
      <point x="1385" y="526" type="line"/>
      <point x="1484" y="526" type="line"/>
      <point x="1483" y="843" type="line"/>
      <point x="1426" y="1053"/>
      <point x="1213" y="1169"/>
    </contour>
    <contour>
      <point x="2234" y="577" type="line"/>
      <point x="2234" y="6" type="line"/>
      <point x="2438" y="6" type="line"/>
      <point x="2438" y="577" type="line"/>
    </contour>
    <contour>
      <point x="2337" y="844" type="line"/>
      <point x="2306" y="1047"/>
      <point x="2164" y="1169"/>
      <point x="1912" y="1169" type="curve" smooth="yes"/>
      <point x="1660" y="1169"/>
      <point x="1519" y="1047"/>
      <point x="1488" y="843" type="curve"/>
      <point x="1447" y="843" type="line"/>
      <point x="1447" y="445" type="line"/>
      <point x="1589" y="439" type="line"/>
      <point x="1589" y="628" type="line" smooth="yes"/>
      <point x="1589" y="866"/>
      <point x="1695" y="986"/>
      <point x="1912" y="986" type="curve" smooth="yes"/>
      <point x="2129" y="986"/>
      <point x="2234" y="866"/>
      <point x="2234" y="628" type="curve" smooth="yes"/>
      <point x="2234" y="458" type="line"/>
      <point x="2336" y="463" type="line"/>
    </contour>
    <contour>
      <point x="3084" y="1162" type="line"/>
      <point x="3041" y="1167"/>
      <point x="2995" y="1169"/>
      <point x="2946" y="1169" type="curve" smooth="yes"/>
      <point x="2610" y="1169"/>
      <point x="2399" y="1052"/>
      <point x="2342" y="844" type="curve"/>
      <point x="2318" y="844" type="line"/>
      <point x="2312" y="517" type="line"/>
      <point x="2438" y="517" type="line"/>
      <point x="2438" y="595" type="line" smooth="yes"/>
      <point x="2438" y="857"/>
      <point x="2610" y="1000"/>
      <point x="2943" y="1000" type="curve" smooth="yes"/>
      <point x="2992" y="1000"/>
      <point x="3042" y="997"/>
      <point x="3084" y="991" type="curve"/>
      <point x="3133" y="975" type="line"/>
      <point x="3365" y="918"/>
      <point x="3488" y="746"/>
      <point x="3488" y="474" type="curve" smooth="yes"/>
      <point x="3488" y="462" type="line" smooth="yes"/>
      <point x="3488" y="246"/>
      <point x="3414" y="134"/>
      <point x="3236" y="134" type="curve" smooth="yes"/>
      <point x="3073" y="134"/>
      <point x="2995" y="235"/>
      <point x="2995" y="423" type="curve" smooth="yes"/>
      <point x="2995" y="432" type="line" smooth="yes"/>
      <point x="2995" y="644"/>
      <point x="3074" y="823"/>
      <point x="3188" y="1001" type="curve"/>
      <point x="3193" y="1014"/>
      <point x="3219" y="1072"/>
      <point x="3223" y="1084" type="curve"/>
      <point x="3262" y="1162"/>
      <point x="3281" y="1234"/>
      <point x="3281" y="1306" type="curve" smooth="yes"/>
      <point x="3281" y="1404"/>
      <point x="3254" y="1490"/>
      <point x="3202" y="1559" type="curve"/>
      <point x="3011" y="1559" type="line"/>
      <point x="3066" y="1475"/>
      <point x="3089" y="1396"/>
      <point x="3089" y="1305" type="curve" smooth="yes"/>
      <point x="3089" y="1240"/>
      <point x="3071" y="1182"/>
      <point x="3049" y="1118" type="curve" smooth="yes"/>
      <point x="3045" y="1106"/>
      <point x="3012" y="1052"/>
      <point x="3006" y="1037" type="curve"/>
      <point x="2876" y="855"/>
      <point x="2788" y="672"/>
      <point x="2788" y="430" type="curve" smooth="yes"/>
      <point x="2788" y="419" type="line" smooth="yes"/>
      <point x="2788" y="125"/>
      <point x="2938" y="-36"/>
      <point x="3235" y="-36" type="curve" smooth="yes"/>
      <point x="3548" y="-36"/>
      <point x="3696" y="140"/>
      <point x="3696" y="462" type="curve" smooth="yes"/>
      <point x="3696" y="480" type="line" smooth="yes"/>
      <point x="3696" y="839"/>
      <point x="3516" y="1077"/>
      <point x="3165" y="1145" type="curve" smooth="yes"/>
    </contour>
  </outline>
</glyph>
<glyph name="chilluRr.mlm" format="2">
  <advance width="1824"/>
  <unicode hex="0D7C"/>
  <outline>
    <contour>
      <point x="769" y="430" type="curve" smooth="yes"/>
      <point x="769" y="419" type="line" smooth="yes"/>
      <point x="769" y="125"/>
      <point x="928" y="-36"/>
      <point x="1225" y="-36" type="curve" smooth="yes"/>
      <point x="1538" y="-36"/>
      <point x="1695" y="140"/>
      <point x="1695" y="462" type="curve" smooth="yes"/>
      <point x="1695" y="480" type="line" smooth="yes"/>
      <point x="1695" y="840"/>
      <point x="1509" y="1079"/>
      <point x="1144" y="1147" type="curve"/>
      <point x="1063" y="1164" type="line"/>
      <point x="1015" y="1170"/>
      <point x="963" y="1173"/>
      <point x="908" y="1173" type="curve" smooth="yes"/>
      <point x="394" y="1173"/>
      <point x="134" y="937"/>
      <point x="134" y="495" type="curve" smooth="yes"/>
      <point x="134" y="480" type="line" smooth="yes"/>
      <point x="134" y="295"/>
      <point x="188" y="119"/>
      <point x="282" y="0" type="curve"/>
      <point x="500" y="0" type="line"/>
      <point x="399" y="142"/>
      <point x="343" y="297"/>
      <point x="343" y="469" type="curve" smooth="yes"/>
      <point x="343" y="485" type="line" smooth="yes"/>
      <point x="343" y="829"/>
      <point x="536" y="1004"/>
      <point x="911" y="1004" type="curve" smooth="yes"/>
      <point x="966" y="1004"/>
      <point x="1016" y="1000"/>
      <point x="1063" y="993" type="curve"/>
      <point x="1112" y="976" type="line"/>
      <point x="1358" y="919"/>
      <point x="1487" y="746"/>
      <point x="1487" y="474" type="curve" smooth="yes"/>
      <point x="1487" y="462" type="line" smooth="yes"/>
      <point x="1487" y="246"/>
      <point x="1404" y="134"/>
      <point x="1226" y="134" type="curve" smooth="yes"/>
      <point x="1063" y="134"/>
      <point x="976" y="235"/>
      <point x="976" y="423" type="curve" smooth="yes"/>
      <point x="976" y="432" type="line" smooth="yes"/>
      <point x="976" y="644"/>
      <point x="1064" y="823"/>
      <point x="1172" y="1001" type="curve"/>
      <point x="1177" y="1014"/>
      <point x="1200" y="1072"/>
      <point x="1204" y="1084" type="curve"/>
      <point x="1241" y="1162"/>
      <point x="1261" y="1234"/>
      <point x="1261" y="1306" type="curve" smooth="yes"/>
      <point x="1261" y="1404"/>
      <point x="1234" y="1490"/>
      <point x="1182" y="1559" type="curve"/>
      <point x="991" y="1559" type="line"/>
      <point x="1046" y="1475"/>
      <point x="1069" y="1396"/>
      <point x="1069" y="1305" type="curve" smooth="yes"/>
      <point x="1069" y="1240"/>
      <point x="1056" y="1180"/>
      <point x="1030" y="1118" type="curve"/>
      <point x="1025" y="1105"/>
      <point x="996" y="1052"/>
      <point x="990" y="1037" type="curve"/>
      <point x="866" y="855"/>
      <point x="769" y="672"/>
    </contour>
  </outline>
</glyph>
<glyph name="chilluL.mlm" format="2">
  <advance width="2915"/>
  <unicode hex="0D7D"/>
  <outline>
    <contour>
      <point x="2578" y="454" type="curve" smooth="yes"/>
      <point x="2578" y="442" type="line" smooth="yes"/>
      <point x="2578" y="240"/>
      <point x="2495" y="134"/>
      <point x="2324" y="134" type="curve" smooth="yes"/>
      <point x="2166" y="134"/>
      <point x="2082" y="230"/>
      <point x="2082" y="410" type="curve" smooth="yes"/>
      <point x="2082" y="420" type="line" smooth="yes"/>
      <point x="2082" y="645"/>
      <point x="2186" y="817"/>
      <point x="2300" y="966" type="curve"/>
      <point x="2307" y="980"/>
      <point x="2347" y="1050"/>
      <point x="2352" y="1064" type="curve"/>
      <point x="2410" y="1150"/>
      <point x="2432" y="1230"/>
      <point x="2432" y="1306" type="curve" smooth="yes"/>
      <point x="2432" y="1404"/>
      <point x="2407" y="1489"/>
      <point x="2353" y="1559" type="curve"/>
      <point x="2162" y="1559" type="line"/>
      <point x="2218" y="1476"/>
      <point x="2240" y="1396"/>
      <point x="2240" y="1305" type="curve" smooth="yes"/>
      <point x="2240" y="1234"/>
      <point x="2220" y="1162"/>
      <point x="2175" y="1091" type="curve"/>
      <point x="2170" y="1078"/>
      <point x="2124" y="1024"/>
      <point x="2116" y="1009" type="curve"/>
      <point x="1993" y="848"/>
      <point x="1875" y="672"/>
      <point x="1875" y="418" type="curve" smooth="yes"/>
      <point x="1875" y="407" type="line" smooth="yes"/>
      <point x="1875" y="121"/>
      <point x="2030" y="-36"/>
      <point x="2322" y="-36" type="curve" smooth="yes"/>
      <point x="2629" y="-36"/>
      <point x="2786" y="133"/>
      <point x="2786" y="442" type="curve" smooth="yes"/>
      <point x="2786" y="459" type="line" smooth="yes"/>
      <point x="2786" y="791"/>
      <point x="2599" y="1002"/>
      <point x="2300" y="1096" type="curve"/>
      <point x="2238" y="1114" type="line"/>
      <point x="2101" y="1151"/>
      <point x="1946" y="1169"/>
      <point x="1785" y="1169" type="curve" smooth="yes"/>
      <point x="1524" y="1169"/>
      <point x="1318" y="1118"/>
      <point x="1184" y="1043" type="curve"/>
      <point x="1115" y="999" type="line"/>
      <point x="891" y="901"/>
      <point x="763" y="710"/>
      <point x="763" y="456" type="curve" smooth="yes"/>
      <point x="763" y="440" type="line" smooth="yes"/>
      <point x="763" y="127"/>
      <point x="924" y="-36"/>
      <point x="1236" y="-36" type="curve" smooth="yes"/>
      <point x="1549" y="-36"/>
      <point x="1709" y="129"/>
      <point x="1709" y="448" type="curve" smooth="yes"/>
      <point x="1709" y="465" type="line" smooth="yes"/>
      <point x="1709" y="703"/>
      <point x="1589" y="899"/>
      <point x="1372" y="997" type="curve"/>
      <point x="1308" y="1038" type="line"/>
      <point x="1204" y="1117"/>
      <point x="1046" y="1169"/>
      <point x="844" y="1169" type="curve" smooth="yes"/>
      <point x="373" y="1169"/>
      <point x="134" y="945"/>
      <point x="134" y="510" type="curve" smooth="yes"/>
      <point x="134" y="492" type="line" smooth="yes"/>
      <point x="134" y="301"/>
      <point x="189" y="124"/>
      <point x="287" y="0" type="curve"/>
      <point x="507" y="0" type="line"/>
      <point x="400" y="151"/>
      <point x="343" y="310"/>
      <point x="343" y="492" type="curve" smooth="yes"/>
      <point x="343" y="510" type="line" smooth="yes"/>
      <point x="343" y="834"/>
      <point x="519" y="999"/>
      <point x="877" y="999" type="curve" smooth="yes"/>
      <point x="978" y="999"/>
      <point x="1065" y="982"/>
      <point x="1140" y="955" type="curve"/>
      <point x="1201" y="927" type="line"/>
      <point x="1397" y="845"/>
      <point x="1502" y="679"/>
      <point x="1502" y="472" type="curve" smooth="yes"/>
      <point x="1502" y="458" type="line" smooth="yes"/>
      <point x="1502" y="241"/>
      <point x="1412" y="134"/>
      <point x="1236" y="134" type="curve" smooth="yes"/>
      <point x="1061" y="134"/>
      <point x="970" y="238"/>
      <point x="970" y="449" type="curve" smooth="yes"/>
      <point x="970" y="463" type="line" smooth="yes"/>
      <point x="970" y="687"/>
      <point x="1085" y="847"/>
      <point x="1290" y="926" type="curve"/>
      <point x="1370" y="949" type="line"/>
      <point x="1485" y="979"/>
      <point x="1626" y="999"/>
      <point x="1786" y="999" type="curve" smooth="yes"/>
      <point x="1904" y="999"/>
      <point x="2024" y="986"/>
      <point x="2133" y="962" type="curve" smooth="yes"/>
      <point x="2235" y="938" type="line"/>
      <point x="2445" y="865"/>
      <point x="2578" y="716"/>
    </contour>
  </outline>
</glyph>
<glyph name="chilluK.mlm" format="2">
  <advance width="2935"/>
  <unicode hex="0D7F"/>
  <outline>
    <contour>
      <point x="1296" y="137" type="curve" smooth="yes"/>
      <point x="1057" y="137"/>
      <point x="935" y="267"/>
      <point x="935" y="530" type="curve" smooth="yes"/>
      <point x="935" y="618" type="line" smooth="yes"/>
      <point x="935" y="879"/>
      <point x="1056" y="1009"/>
      <point x="1296" y="1009" type="curve" smooth="yes"/>
      <point x="1536" y="1009"/>
      <point x="1657" y="879"/>
      <point x="1657" y="618" type="curve" smooth="yes"/>
      <point x="1657" y="530" type="line" smooth="yes"/>
      <point x="1657" y="267"/>
      <point x="1535" y="137"/>
    </contour>
    <contour>
      <point x="1296" y="-33" type="curve" smooth="yes"/>
      <point x="1664" y="-33"/>
      <point x="1855" y="156"/>
      <point x="1855" y="528" type="curve" smooth="yes"/>
      <point x="1855" y="615" type="line" smooth="yes"/>
      <point x="1855" y="989"/>
      <point x="1664" y="1178"/>
      <point x="1296" y="1178" type="curve" smooth="yes"/>
      <point x="928" y="1178"/>
      <point x="737" y="989"/>
      <point x="737" y="615" type="curve" smooth="yes"/>
      <point x="737" y="528" type="line" smooth="yes"/>
      <point x="737" y="408"/>
      <point x="757" y="307"/>
      <point x="794" y="227" type="curve"/>
      <point x="819" y="194" type="line"/>
      <point x="906" y="42"/>
      <point x="1069" y="-33"/>
    </contour>
    <contour>
      <point x="490" y="-33" type="curve" smooth="yes"/>
      <point x="680" y="-33"/>
      <point x="783" y="46"/>
      <point x="821" y="180" type="curve"/>
      <point x="859" y="186" type="line"/>
      <point x="778" y="287" type="line"/>
      <point x="753" y="201"/>
      <point x="682" y="132"/>
      <point x="542" y="132" type="curve" smooth="yes"/>
      <point x="395" y="132"/>
      <point x="316" y="202"/>
      <point x="316" y="335" type="curve" smooth="yes"/>
      <point x="316" y="345" type="line" smooth="yes"/>
      <point x="316" y="482"/>
      <point x="406" y="549"/>
      <point x="580" y="549" type="curve" smooth="yes"/>
      <point x="802" y="549" type="line"/>
      <point x="845" y="548" type="line"/>
      <point x="1733" y="548" type="line"/>
      <point x="1778" y="548" type="line"/>
      <point x="2352" y="548" type="line" smooth="yes"/>
      <point x="2526" y="548"/>
      <point x="2617" y="480"/>
      <point x="2617" y="341" type="curve" smooth="yes"/>
      <point x="2617" y="331" type="line" smooth="yes"/>
      <point x="2617" y="199"/>
      <point x="2544" y="131"/>
      <point x="2406" y="131" type="curve" smooth="yes"/>
      <point x="2269" y="131"/>
      <point x="2195" y="199"/>
      <point x="2195" y="329" type="curve" smooth="yes"/>
      <point x="2195" y="338" type="line" smooth="yes"/>
      <point x="2195" y="421"/>
      <point x="2226" y="502"/>
      <point x="2278" y="581" type="curve"/>
      <point x="2300" y="644" type="line"/>
      <point x="2422" y="833"/>
      <point x="2500" y="1001"/>
      <point x="2500" y="1178" type="curve" smooth="yes"/>
      <point x="2500" y="1266"/>
      <point x="2476" y="1350"/>
      <point x="2432" y="1421" type="curve"/>
      <point x="2243" y="1421" type="line"/>
      <point x="2290" y="1338"/>
      <point x="2310" y="1266"/>
      <point x="2310" y="1187" type="curve" smooth="yes"/>
      <point x="2310" y="1010"/>
      <point x="2231" y="850"/>
      <point x="2117" y="663" type="curve"/>
      <point x="2083" y="595" type="line"/>
      <point x="2032" y="503"/>
      <point x="2001" y="414"/>
      <point x="2001" y="318" type="curve" smooth="yes"/>
      <point x="2001" y="308" type="line" smooth="yes"/>
      <point x="2001" y="85"/>
      <point x="2140" y="-33"/>
      <point x="2407" y="-33" type="curve" smooth="yes"/>
      <point x="2674" y="-33"/>
      <point x="2819" y="93"/>
      <point x="2819" y="323" type="curve" smooth="yes"/>
      <point x="2819" y="337" type="line" smooth="yes"/>
      <point x="2819" y="584"/>
      <point x="2664" y="710"/>
      <point x="2359" y="710" type="curve" smooth="yes"/>
      <point x="1815" y="710" type="line"/>
      <point x="1721" y="710" type="line"/>
      <point x="850" y="710" type="line"/>
      <point x="798" y="711" type="line"/>
      <point x="574" y="711" type="line" smooth="yes"/>
      <point x="270" y="711"/>
      <point x="114" y="587"/>
      <point x="114" y="341" type="curve" smooth="yes"/>
      <point x="114" y="327" type="line" smooth="yes"/>
      <point x="114" y="93"/>
      <point x="246" y="-33"/>
    </contour>
  </outline>
</glyph>
<glyph name="BaDa.mlm" format="2">
  <advance width="3373"/>
  <outline>
    <component base="Ba.mlm"/>
    <contour>
      <point x="3114" y="-97" type="line" smooth="yes"/>
      <point x="3114" y="27"/>
      <point x="2977" y="88"/>
      <point x="2706" y="88" type="curve" smooth="yes"/>
      <point x="2382" y="88"/>
      <point x="2224" y="-34"/>
      <point x="2224" y="-282" type="curve" smooth="yes"/>
      <point x="2224" y="-291" type="line" smooth="yes"/>
      <point x="2224" y="-394"/>
      <point x="2252" y="-491"/>
      <point x="2291" y="-564" type="curve"/>
      <point x="2461" y="-564" type="line"/>
      <point x="2421" y="-472"/>
      <point x="2395" y="-382"/>
      <point x="2395" y="-282" type="curve" smooth="yes"/>
      <point x="2395" y="-275" type="line" smooth="yes"/>
      <point x="2395" y="-98"/>
      <point x="2494" y="-13"/>
      <point x="2707" y="-13" type="curve" smooth="yes"/>
      <point x="2867" y="-13"/>
      <point x="2942" y="-41"/>
      <point x="2942" y="-103" type="curve" smooth="yes"/>
      <point x="2942" y="-107" type="line" smooth="yes"/>
      <point x="2942" y="-146"/>
      <point x="2906" y="-165"/>
      <point x="2825" y="-167" type="curve" smooth="yes"/>
      <point x="2632" y="-171" type="line"/>
      <point x="2632" y="-295" type="line"/>
      <point x="2825" y="-299" type="line" smooth="yes"/>
      <point x="2915" y="-301"/>
      <point x="2956" y="-324"/>
      <point x="2956" y="-374" type="curve"/>
      <point x="2956" y="-376" type="line"/>
      <point x="2956" y="-431"/>
      <point x="2910" y="-456"/>
      <point x="2814" y="-456" type="curve" smooth="yes"/>
      <point x="2744" y="-456"/>
      <point x="2681" y="-449"/>
      <point x="2606" y="-434" type="curve"/>
      <point x="2627" y="-556" type="line"/>
      <point x="2693" y="-574"/>
      <point x="2764" y="-580"/>
      <point x="2837" y="-580" type="curve" smooth="yes"/>
      <point x="3034" y="-580"/>
      <point x="3129" y="-521"/>
      <point x="3129" y="-396" type="curve" smooth="yes"/>
      <point x="3129" y="-392" type="line" smooth="yes"/>
      <point x="3129" y="-311"/>
      <point x="3080" y="-258"/>
      <point x="2979" y="-238" type="curve"/>
      <point x="2979" y="-234" type="line"/>
      <point x="3070" y="-217"/>
      <point x="3114" y="-170"/>
      <point x="3114" y="-101" type="curve" smooth="yes"/>
    </contour>
  </outline>
</glyph>
<glyph name="BaLa.mlm" format="2">
  <advance width="3373"/>
  <outline>
    <component base="Ba.mlm"/>
    <contour>
      <point x="2071" y="108" type="curve" smooth="yes"/>
      <point x="1714" y="108"/>
      <point x="1537" y="-29"/>
      <point x="1537" y="-285" type="curve" smooth="yes"/>
      <point x="1537" y="-295" type="line" smooth="yes"/>
      <point x="1537" y="-483"/>
      <point x="1650" y="-583"/>
      <point x="1882" y="-583" type="curve" smooth="yes"/>
      <point x="2091" y="-583"/>
      <point x="2205" y="-509"/>
      <point x="2205" y="-359" type="curve" smooth="yes"/>
      <point x="2205" y="-356" type="line" smooth="yes"/>
      <point x="2205" y="-217"/>
      <point x="2105" y="-140"/>
      <point x="1936" y="-140" type="curve" smooth="yes"/>
      <point x="1819" y="-140"/>
      <point x="1734" y="-190"/>
      <point x="1698" y="-280" type="curve"/>
      <point x="1703" y="-331" type="line"/>
      <point x="1736" y="-289"/>
      <point x="1799" y="-260"/>
      <point x="1887" y="-260" type="curve" smooth="yes"/>
      <point x="1984" y="-260"/>
      <point x="2038" y="-295"/>
      <point x="2038" y="-359" type="curve" smooth="yes"/>
      <point x="2038" y="-362" type="line" smooth="yes"/>
      <point x="2038" y="-428.33"/>
      <point x="1979" y="-460"/>
      <point x="1880" y="-460" type="curve" smooth="yes"/>
      <point x="1762" y="-460"/>
      <point x="1704" y="-414.331"/>
      <point x="1704" y="-320" type="curve" smooth="yes"/>
      <point x="1704" y="-302" type="line"/>
      <point x="1721" y="-273" type="line"/>
      <point x="1697" y="-273" type="line"/>
      <point x="1697" y="-115"/>
      <point x="1827" y="-25"/>
      <point x="2071" y="-25" type="curve" smooth="yes"/>
      <point x="2312" y="-25"/>
      <point x="2414" y="-117"/>
      <point x="2437" y="-276" type="curve" smooth="yes"/>
      <point x="2439" y="-290" type="line" smooth="yes"/>
      <point x="2466" y="-481"/>
      <point x="2565" y="-583"/>
      <point x="2817" y="-583" type="curve" smooth="yes"/>
      <point x="3060" y="-583"/>
      <point x="3185" y="-476"/>
      <point x="3185" y="-260" type="curve" smooth="yes"/>
      <point x="3185" y="-252" type="line" smooth="yes"/>
      <point x="3185" y="-135"/>
      <point x="3135" y="-34"/>
      <point x="3054" y="32" type="curve"/>
      <point x="2889" y="22" type="line"/>
      <point x="2972" y="-50"/>
      <point x="3014" y="-143"/>
      <point x="3014" y="-250" type="curve" smooth="yes"/>
      <point x="3014" y="-258" type="line" smooth="yes"/>
      <point x="3014" y="-382"/>
      <point x="2952" y="-444"/>
      <point x="2817" y="-444" type="curve" smooth="yes"/>
      <point x="2678" y="-444"/>
      <point x="2621" y="-381"/>
      <point x="2604" y="-261" type="curve" smooth="yes"/>
      <point x="2602" y="-247" type="line" smooth="yes"/>
      <point x="2581" y="-98"/>
      <point x="2497" y="-7"/>
      <point x="2333" y="43" type="curve" smooth="yes"/>
      <point x="2314" y="49"/>
      <point x="2311" y="55"/>
      <point x="2291" y="67" type="curve" smooth="yes"/>
      <point x="2236" y="100"/>
      <point x="2147" y="108"/>
    </contour>
  </outline>
</glyph>
<glyph name="DaDha.mlm" format="2">
  <advance width="3210"/>
  <outline>
    <contour>
      <point x="2176" y="552" type="line"/>
      <point x="2176" y="1118" type="line"/>
      <point x="1971" y="1118" type="line"/>
      <point x="1971" y="552" type="line"/>
    </contour>
    <contour>
      <point x="1971" y="686" type="line"/>
      <point x="1971" y="502" type="line" smooth="yes"/>
      <point x="1971" y="272"/>
      <point x="1861" y="163"/>
      <point x="1639" y="163" type="curve" smooth="yes"/>
      <point x="1255" y="163" type="line"/>
      <point x="1135" y="0" type="line"/>
      <point x="1619" y="0" type="line" smooth="yes"/>
      <point x="1892" y="0"/>
      <point x="2035" y="107"/>
      <point x="2070" y="273" type="curve"/>
      <point x="2113" y="273" type="line"/>
      <point x="2113" y="680" type="line"/>
    </contour>
    <contour>
      <point x="902" y="1175" type="curve" smooth="yes"/>
      <point x="388" y="1175"/>
      <point x="138" y="956"/>
      <point x="138" y="518" type="curve" smooth="yes"/>
      <point x="138" y="496" type="line" smooth="yes"/>
      <point x="138" y="306"/>
      <point x="182" y="127"/>
      <point x="258" y="0" type="curve"/>
      <point x="471" y="0" type="line"/>
      <point x="393" y="151"/>
      <point x="347" y="313"/>
      <point x="347" y="495" type="curve" smooth="yes"/>
      <point x="347" y="514" type="line" smooth="yes"/>
      <point x="347" y="840"/>
      <point x="525" y="1003"/>
      <point x="908" y="1003" type="curve" smooth="yes"/>
      <point x="1186" y="1003"/>
      <point x="1323" y="938"/>
      <point x="1323" y="811" type="curve" smooth="yes"/>
      <point x="1323" y="806" type="line" smooth="yes"/>
      <point x="1323" y="711"/>
      <point x="1243" y="663"/>
      <point x="1078" y="660" type="curve" smooth="yes"/>
      <point x="813" y="655" type="line"/>
      <point x="813" y="492" type="line"/>
      <point x="1078" y="486" type="line" smooth="yes"/>
      <point x="1259" y="482"/>
      <point x="1346" y="431"/>
      <point x="1346" y="323" type="curve" smooth="yes"/>
      <point x="1346" y="315" type="line" smooth="yes"/>
      <point x="1346" y="215"/>
      <point x="1266" y="164"/>
      <point x="1092" y="162" type="curve" smooth="yes"/>
      <point x="732" y="157" type="line"/>
      <point x="762" y="0" type="line"/>
      <point x="1250" y="0" type="line"/>
      <point x="1253" y="93" type="line"/>
      <point x="1457" y="113"/>
      <point x="1560" y="193"/>
      <point x="1560" y="324" type="curve" smooth="yes"/>
      <point x="1560" y="332" type="line" smooth="yes"/>
      <point x="1560" y="466"/>
      <point x="1456" y="551"/>
      <point x="1249" y="571" type="curve"/>
      <point x="1249" y="577" type="line"/>
      <point x="1439" y="598"/>
      <point x="1532" y="683"/>
      <point x="1532" y="826" type="curve" smooth="yes"/>
      <point x="1532" y="833" type="line" smooth="yes"/>
      <point x="1532" y="1061"/>
      <point x="1321" y="1175"/>
    </contour>
    <contour>
      <point x="2077" y="273" type="line"/>
      <point x="2112" y="85"/>
      <point x="2259" y="-36"/>
      <point x="2534" y="-36" type="curve" smooth="yes"/>
      <point x="2892" y="-36"/>
      <point x="3076" y="163"/>
      <point x="3076" y="557" type="curve" smooth="yes"/>
      <point x="3076" y="574" type="line" smooth="yes"/>
      <point x="3076" y="799"/>
      <point x="3001.72" y="994"/>
      <point x="2869" y="1125" type="curve"/>
      <point x="2652" y="1125" type="line"/>
      <point x="2789" y="971"/>
      <point x="2867" y="791"/>
      <point x="2867" y="578" type="curve" smooth="yes"/>
      <point x="2867" y="562" type="line" smooth="yes"/>
      <point x="2867" y="286.336"/>
      <point x="2747" y="147"/>
      <point x="2508" y="147" type="curve" smooth="yes"/>
      <point x="2287" y="147"/>
      <point x="2176" y="265.333"/>
      <point x="2176" y="502" type="curve" smooth="yes"/>
      <point x="2176" y="680" type="line"/>
      <point x="2076" y="680" type="line"/>
    </contour>
  </outline>
</glyph>
<glyph name="GaDa.mlm" format="2">
  <advance width="2391"/>
  <outline>
    <contour>
      <point x="1635" y="1175" type="curve" smooth="yes"/>
      <point x="1202" y="1175"/>
      <point x="984" y="1010"/>
      <point x="984" y="672" type="curve" smooth="yes"/>
      <point x="984" y="590"/>
      <point x="984" y="539"/>
      <point x="984" y="458" type="curve" smooth="yes"/>
      <point x="984" y="250"/>
      <point x="881" y="143"/>
      <point x="683" y="143" type="curve" smooth="yes"/>
      <point x="457" y="143"/>
      <point x="343" y="275"/>
      <point x="343" y="541" type="curve" smooth="yes"/>
      <point x="343" y="563" type="line" smooth="yes"/>
      <point x="343" y="785"/>
      <point x="427" y="968"/>
      <point x="579" y="1126" type="curve"/>
      <point x="361" y="1126" type="line"/>
      <point x="214.293" y="994"/>
      <point x="134" y="791"/>
      <point x="134" y="558" type="curve" smooth="yes"/>
      <point x="134" y="536" type="line" smooth="yes"/>
      <point x="134" y="156"/>
      <point x="319" y="-36"/>
      <point x="683" y="-36" type="curve" smooth="yes"/>
      <point x="1016" y="-36"/>
      <point x="1189" y="127"/>
      <point x="1189" y="442" type="curve" smooth="yes"/>
      <point x="1189" y="522"/>
      <point x="1189" y="573"/>
      <point x="1189" y="651" type="curve" smooth="yes"/>
      <point x="1189" y="888"/>
      <point x="1339" y="1003"/>
      <point x="1640" y="1003" type="curve" smooth="yes"/>
      <point x="1899" y="1003"/>
      <point x="2027" y="937"/>
      <point x="2027" y="808" type="curve" smooth="yes"/>
      <point x="2027" y="803" type="line" smooth="yes"/>
      <point x="2027" y="705"/>
      <point x="1947" y="657"/>
      <point x="1783" y="654" type="curve" smooth="yes"/>
      <point x="1530" y="649" type="line"/>
      <point x="1530" y="486" type="line"/>
      <point x="1783" y="480" type="line" smooth="yes"/>
      <point x="1964" y="476"/>
      <point x="2051" y="425"/>
      <point x="2051" y="319" type="curve" smooth="yes"/>
      <point x="2051" y="311" type="line" smooth="yes"/>
      <point x="2051" y="196"/>
      <point x="1960" y="138"/>
      <point x="1773" y="138" type="curve" smooth="yes"/>
      <point x="1652" y="138"/>
      <point x="1545" y="150"/>
      <point x="1429" y="183" type="curve"/>
      <point x="1455" y="16" type="line"/>
      <point x="1561" y="-17"/>
      <point x="1677" y="-30"/>
      <point x="1796" y="-30" type="curve" smooth="yes"/>
      <point x="2108" y="-30"/>
      <point x="2261" y="75"/>
      <point x="2261" y="285" type="curve" smooth="yes"/>
      <point x="2261" y="295" type="line" smooth="yes"/>
      <point x="2261" y="447"/>
      <point x="2158" y="542"/>
      <point x="1954" y="565" type="curve"/>
      <point x="1954" y="571" type="line"/>
      <point x="2143" y="592"/>
      <point x="2236" y="678"/>
      <point x="2236" y="823" type="curve" smooth="yes"/>
      <point x="2236" y="830" type="line" smooth="yes"/>
      <point x="2236" y="1060"/>
      <point x="2034" y="1175"/>
    </contour>
  </outline>
</glyph>
<glyph name="GaGa.mlm" format="2">
  <advance width="2184"/>
  <outline>
    <component base="Ga.mlm"/>
    <contour>
      <point x="1342" y="-256" type="line" smooth="yes"/>
      <point x="1342" y="-126"/>
      <point x="1418" y="-61"/>
      <point x="1557" y="-61" type="curve" smooth="yes"/>
      <point x="1706" y="-61"/>
      <point x="1774" y="-130"/>
      <point x="1774" y="-267" type="curve" smooth="yes"/>
      <point x="1774" y="-275" type="line" smooth="yes"/>
      <point x="1774" y="-383"/>
      <point x="1727" y="-479"/>
      <point x="1645" y="-564" type="curve"/>
      <point x="1830" y="-564" type="line"/>
      <point x="1904" y="-494"/>
      <point x="1947" y="-389"/>
      <point x="1947" y="-274" type="curve" smooth="yes"/>
      <point x="1947" y="-264" type="line" smooth="yes"/>
      <point x="1947" y="-37"/>
      <point x="1807" y="80"/>
      <point x="1557" y="80" type="curve" smooth="yes"/>
      <point x="1303" y="80"/>
      <point x="1173" y="-27"/>
      <point x="1173" y="-238" type="curve" smooth="yes"/>
      <point x="1173" y="-254" type="line" smooth="yes"/>
      <point x="1173" y="-381"/>
      <point x="1099" y="-442"/>
      <point x="964" y="-442" type="curve" smooth="yes"/>
      <point x="817" y="-442"/>
      <point x="747" y="-378"/>
      <point x="747" y="-248" type="curve" smooth="yes"/>
      <point x="747" y="-243" type="line" smooth="yes"/>
      <point x="747" y="-145"/>
      <point x="785" y="-66"/>
      <point x="875" y="11" type="curve"/>
      <point x="712" y="29" type="line"/>
      <point x="622" y="-42"/>
      <point x="574" y="-136"/>
      <point x="574" y="-254" type="curve" smooth="yes"/>
      <point x="574" y="-259" type="line" smooth="yes"/>
      <point x="574" y="-473"/>
      <point x="705" y="-583"/>
      <point x="964" y="-583" type="curve" smooth="yes"/>
      <point x="1214" y="-583"/>
      <point x="1342" y="-478"/>
      <point x="1342" y="-270" type="curve" smooth="yes"/>
    </contour>
  </outline>
</glyph>
<glyph name="GaNa.mlm" format="2">
  <advance width="3052"/>
  <outline>
    <contour>
      <point x="2011" y="577" type="line"/>
      <point x="1806" y="577" type="line"/>
      <point x="1806" y="6" type="line"/>
      <point x="2011" y="6" type="line"/>
    </contour>
    <contour>
      <point x="1478" y="1169" type="curve" smooth="yes"/>
      <point x="1153" y="1169"/>
      <point x="986" y="1002"/>
      <point x="986" y="673" type="curve" smooth="yes"/>
      <point x="986" y="593"/>
      <point x="986" y="538"/>
      <point x="986" y="458" type="curve" smooth="yes"/>
      <point x="986" y="250"/>
      <point x="882" y="143"/>
      <point x="683" y="143" type="curve" smooth="yes"/>
      <point x="457" y="143"/>
      <point x="343" y="275"/>
      <point x="343" y="541" type="curve" smooth="yes"/>
      <point x="343" y="563" type="line" smooth="yes"/>
      <point x="343" y="785"/>
      <point x="427" y="968"/>
      <point x="579" y="1126" type="curve"/>
      <point x="361" y="1126" type="line"/>
      <point x="214.293" y="994"/>
      <point x="134" y="791"/>
      <point x="134" y="558" type="curve" smooth="yes"/>
      <point x="134" y="536" type="line" smooth="yes"/>
      <point x="134" y="156"/>
      <point x="319" y="-36"/>
      <point x="683" y="-36" type="curve" smooth="yes"/>
      <point x="1016" y="-36"/>
      <point x="1191" y="127"/>
      <point x="1191" y="442" type="curve" smooth="yes"/>
      <point x="1191" y="522"/>
      <point x="1191" y="575"/>
      <point x="1191" y="654" type="curve" smooth="yes"/>
      <point x="1191" y="875"/>
      <point x="1297" y="986"/>
      <point x="1502" y="986" type="curve" smooth="yes"/>
      <point x="1705" y="986"/>
      <point x="1806" y="872"/>
      <point x="1806" y="644" type="curve" smooth="yes"/>
      <point x="1806" y="444" type="line"/>
      <point x="1910" y="445" type="line"/>
      <point x="1906" y="855" type="line"/>
      <point x="1874" y="1047"/>
      <point x="1736" y="1169"/>
    </contour>
    <contour>
      <point x="2011" y="439" type="line"/>
      <point x="2011" y="627" type="line" smooth="yes"/>
      <point x="2011" y="866"/>
      <point x="2120" y="986"/>
      <point x="2341" y="986" type="curve" smooth="yes"/>
      <point x="2588" y="986"/>
      <point x="2709" y="845"/>
      <point x="2709" y="563" type="curve" smooth="yes"/>
      <point x="2709" y="546" type="line" smooth="yes"/>
      <point x="2709" y="333"/>
      <point x="2634" y="153"/>
      <point x="2504" y="0" type="curve"/>
      <point x="2728" y="0" type="line"/>
      <point x="2851.74" y="137"/>
      <point x="2918" y="325"/>
      <point x="2918" y="546" type="curve" smooth="yes"/>
      <point x="2918" y="563" type="line" smooth="yes"/>
      <point x="2918" y="965"/>
      <point x="2730" y="1169"/>
      <point x="2363" y="1169" type="curve" smooth="yes"/>
      <point x="2093" y="1169"/>
      <point x="1947" y="1047"/>
      <point x="1911" y="855" type="curve"/>
      <point x="1868" y="855" type="line"/>
      <point x="1868" y="445" type="line"/>
    </contour>
  </outline>
</glyph>
<glyph name="JaJa.mlm" format="2">
  <advance width="4131"/>
  <outline>
    <contour>
      <point x="139" y="679" type="curve" smooth="yes"/>
      <point x="139" y="669" type="line" smooth="yes"/>
      <point x="139" y="494"/>
      <point x="209" y="378"/>
      <point x="350" y="334" type="curve" smooth="yes"/>
      <point x="365" y="329"/>
      <point x="378" y="315"/>
      <point x="393" y="308" type="curve"/>
      <point x="434" y="293"/>
      <point x="481" y="293"/>
      <point x="533" y="293" type="curve" smooth="yes"/>
      <point x="783" y="293"/>
      <point x="915" y="394"/>
      <point x="915" y="579" type="curve" smooth="yes"/>
      <point x="915" y="589" type="line" smooth="yes"/>
      <point x="915" y="763"/>
      <point x="806" y="862"/>
      <point x="609" y="862" type="curve" smooth="yes"/>
      <point x="448.664" y="862"/>
      <point x="348.702" y="789"/>
      <point x="320" y="667" type="curve"/>
      <point x="333" y="611" type="line"/>
      <point x="365.529" y="673.804"/>
      <point x="438.471" y="716"/>
      <point x="540" y="716" type="curve" smooth="yes"/>
      <point x="653.104" y="716"/>
      <point x="719" y="665.75"/>
      <point x="719" y="582" type="curve" smooth="yes"/>
      <point x="719" y="574" type="line" smooth="yes"/>
      <point x="719" y="488.27"/>
      <point x="651.113" y="439"/>
      <point x="536" y="439" type="curve" smooth="yes"/>
      <point x="401.99" y="439"/>
      <point x="334" y="506.277"/>
      <point x="334" y="625" type="curve" smooth="yes"/>
      <point x="334" y="648" type="line"/>
      <point x="350" y="699" type="line"/>
      <point x="323" y="699" type="line"/>
      <point x="323" y="700" type="line"/>
      <point x="323" y="909.311"/>
      <point x="468.991" y="1004"/>
      <point x="757" y="1004" type="curve" smooth="yes"/>
      <point x="1036" y="1004"/>
      <point x="1175.05" y="893.345"/>
      <point x="1179" y="682" type="curve" smooth="yes"/>
      <point x="1183" y="468" type="line"/>
      <point x="1380" y="488" type="line"/>
      <point x="1384" y="720" type="line" smooth="yes"/>
      <point x="1387" y="904"/>
      <point x="1478" y="995"/>
      <point x="1673" y="995" type="curve" smooth="yes"/>
      <point x="1863" y="995"/>
      <point x="1956" y="901"/>
      <point x="1956" y="693" type="curve" smooth="yes"/>
      <point x="1956" y="670" type="line"/>
      <point x="2075" y="690" type="line"/>
      <point x="2075" y="698" type="line"/>
      <point x="2065" y="783"/>
      <point x="2060" y="831"/>
      <point x="2050" y="916" type="curve"/>
      <point x="2021" y="1087"/>
      <point x="1884" y="1169"/>
      <point x="1675" y="1169" type="curve" smooth="yes"/>
      <point x="1444" y="1169"/>
      <point x="1307" y="1072"/>
      <point x="1281" y="895" type="curve"/>
      <point x="1275" y="895" type="line"/>
      <point x="1229" y="1073"/>
      <point x="1051" y="1169"/>
      <point x="751" y="1169" type="curve" smooth="yes"/>
      <point x="344" y="1169"/>
      <point x="139" y="1002"/>
    </contour>
    <contour>
      <point x="3198" y="4" type="line"/>
      <point x="3310" y="-50"/>
      <point x="3449" y="-87"/>
      <point x="3610" y="-87" type="curve" smooth="yes"/>
      <point x="3868" y="-87"/>
      <point x="3994" y="6"/>
      <point x="3994" y="185" type="curve" smooth="yes"/>
      <point x="3994" y="188" type="line" smooth="yes"/>
      <point x="3994" y="332"/>
      <point x="3912" y="418"/>
      <point x="3745" y="443" type="curve" smooth="yes"/>
      <point x="3731" y="445"/>
      <point x="3718" y="456"/>
      <point x="3703" y="459" type="curve" smooth="yes"/>
      <point x="3680" y="463"/>
      <point x="3655" y="462"/>
      <point x="3628" y="462" type="curve" smooth="yes"/>
      <point x="3455" y="462"/>
      <point x="3318" y="411"/>
      <point x="3148" y="344" type="curve" smooth="yes"/>
      <point x="2717" y="174" type="line" smooth="yes"/>
      <point x="2589" y="123"/>
      <point x="2453" y="73"/>
      <point x="2319" y="73" type="curve" smooth="yes"/>
      <point x="2212" y="73"/>
      <point x="2158" y="107"/>
      <point x="2158" y="184" type="curve" smooth="yes"/>
      <point x="2158" y="187" type="line" smooth="yes"/>
      <point x="2158" y="258"/>
      <point x="2207" y="299"/>
      <point x="2295" y="302" type="curve"/>
      <point x="2126" y="371" type="line"/>
      <point x="2126" y="344" type="line"/>
      <point x="2021" y="325"/>
      <point x="1953" y="263"/>
      <point x="1953" y="146" type="curve" smooth="yes"/>
      <point x="1953" y="143" type="line" smooth="yes"/>
      <point x="1953" y="-12"/>
      <point x="2062" y="-94"/>
      <point x="2283" y="-94" type="curve" smooth="yes"/>
      <point x="2470" y="-94"/>
      <point x="2647" y="-32"/>
      <point x="2806" y="33" type="curve" smooth="yes"/>
      <point x="3214" y="200" type="line" smooth="yes"/>
      <point x="3393" y="273"/>
      <point x="3504" y="305"/>
      <point x="3624" y="305" type="curve" smooth="yes"/>
      <point x="3737" y="305"/>
      <point x="3794" y="268"/>
      <point x="3794" y="189" type="curve"/>
      <point x="3794" y="187" type="line"/>
      <point x="3794" y="109"/>
      <point x="3729" y="69"/>
      <point x="3601" y="69" type="curve" smooth="yes"/>
      <point x="3430" y="69"/>
      <point x="3285" y="122"/>
      <point x="3174" y="173" type="curve"/>
    </contour>
    <contour>
      <point x="1956" y="679" type="curve" smooth="yes"/>
      <point x="1956" y="669" type="line" smooth="yes"/>
      <point x="1956" y="494"/>
      <point x="2026" y="378"/>
      <point x="2167" y="334" type="curve" smooth="yes"/>
      <point x="2182" y="329"/>
      <point x="2195" y="315"/>
      <point x="2210" y="308" type="curve"/>
      <point x="2251" y="293"/>
      <point x="2298" y="293"/>
      <point x="2350" y="293" type="curve" smooth="yes"/>
      <point x="2600" y="293"/>
      <point x="2732" y="394"/>
      <point x="2732" y="579" type="curve" smooth="yes"/>
      <point x="2732" y="589" type="line" smooth="yes"/>
      <point x="2732" y="763"/>
      <point x="2623" y="862"/>
      <point x="2426" y="862" type="curve" smooth="yes"/>
      <point x="2265.66" y="862"/>
      <point x="2165.7" y="789"/>
      <point x="2137" y="667" type="curve"/>
      <point x="2150" y="611" type="line"/>
      <point x="2182.53" y="673.804"/>
      <point x="2255.47" y="716"/>
      <point x="2357" y="716" type="curve" smooth="yes"/>
      <point x="2470.1" y="716"/>
      <point x="2536" y="665.75"/>
      <point x="2536" y="582" type="curve" smooth="yes"/>
      <point x="2536" y="574" type="line" smooth="yes"/>
      <point x="2536" y="488.27"/>
      <point x="2468.11" y="439"/>
      <point x="2353" y="439" type="curve" smooth="yes"/>
      <point x="2218.99" y="439"/>
      <point x="2151" y="506.277"/>
      <point x="2151" y="625" type="curve" smooth="yes"/>
      <point x="2151" y="648" type="line"/>
      <point x="2167" y="699" type="line"/>
      <point x="2140" y="699" type="line"/>
      <point x="2140" y="700" type="line"/>
      <point x="2140" y="909.311"/>
      <point x="2285.99" y="1004"/>
      <point x="2574" y="1004" type="curve" smooth="yes"/>
      <point x="2853" y="1004"/>
      <point x="2992.16" y="893.347"/>
      <point x="2996" y="682" type="curve" smooth="yes"/>
      <point x="3000" y="462" type="line"/>
      <point x="3197" y="482" type="line"/>
      <point x="3201" y="720" type="line" smooth="yes"/>
      <point x="3204" y="904"/>
      <point x="3295" y="995"/>
      <point x="3490" y="995" type="curve" smooth="yes"/>
      <point x="3688" y="995"/>
      <point x="3785" y="908"/>
      <point x="3785" y="740" type="curve" smooth="yes"/>
      <point x="3785" y="731" type="line" smooth="yes"/>
      <point x="3785" y="583"/>
      <point x="3722" y="493"/>
      <point x="3597" y="455" type="curve"/>
      <point x="3805" y="410" type="line"/>
      <point x="3805" y="436" type="line"/>
      <point x="3927" y="486"/>
      <point x="3991" y="589"/>
      <point x="3991" y="748" type="curve" smooth="yes"/>
      <point x="3991" y="757" type="line" smooth="yes"/>
      <point x="3991" y="1024"/>
      <point x="3829" y="1169"/>
      <point x="3516" y="1169" type="curve" smooth="yes"/>
      <point x="3271" y="1169"/>
      <point x="3126" y="1072"/>
      <point x="3098" y="895" type="curve"/>
      <point x="3092" y="895" type="line"/>
      <point x="3047" y="1073"/>
      <point x="2872" y="1169"/>
      <point x="2578" y="1169" type="curve" smooth="yes"/>
      <point x="2286" y="1169"/>
      <point x="2110" y="1080"/>
      <point x="2056" y="916" type="curve"/>
      <point x="2036" y="916" type="line"/>
      <point x="2010" y="845"/>
      <point x="1956" y="753"/>
    </contour>
    <contour>
      <point x="482" y="-94" type="curve" smooth="yes"/>
      <point x="506" y="-94" type="line" smooth="yes"/>
      <point x="751" y="-94"/>
      <point x="987" y="-12"/>
      <point x="1199" y="90" type="curve" smooth="yes"/>
      <point x="1600" y="283" type="line" smooth="yes"/>
      <point x="1785" y="372"/>
      <point x="1894" y="425"/>
      <point x="2050" y="425" type="curve"/>
      <point x="2055" y="576" type="line"/>
      <point x="1868" y="576"/>
      <point x="1740" y="528"/>
      <point x="1533" y="431" type="curve" smooth="yes"/>
      <point x="1110" y="232" type="line" smooth="yes"/>
      <point x="936" y="150"/>
      <point x="736" y="73"/>
      <point x="532" y="73" type="curve" smooth="yes"/>
      <point x="509" y="73" type="line" smooth="yes"/>
      <point x="397" y="73"/>
      <point x="341" y="107"/>
      <point x="341" y="186" type="curve"/>
      <point x="341" y="188" type="line"/>
      <point x="341" y="258"/>
      <point x="389" y="299"/>
      <point x="477" y="302" type="curve"/>
      <point x="308" y="369" type="line"/>
      <point x="309" y="344" type="line"/>
      <point x="204" y="326"/>
      <point x="136" y="263"/>
      <point x="136" y="145" type="curve"/>
      <point x="136" y="143" type="line"/>
      <point x="136" y="-12"/>
      <point x="247" y="-94"/>
    </contour>
  </outline>
</glyph>
<glyph name="JaNya_Alt.mlm" format="2">
  <advance width="5955"/>
  <outline>
    <component base="Nya.mlm" xOffset="2296"/>
    <contour>
      <point x="746" y="1169" type="curve" smooth="yes"/>
      <point x="342" y="1169"/>
      <point x="139" y="1008"/>
      <point x="139" y="706" type="curve" smooth="yes"/>
      <point x="139" y="691" type="line" smooth="yes"/>
      <point x="139" y="516"/>
      <point x="208.899" y="405.639"/>
      <point x="351" y="366" type="curve" smooth="yes"/>
      <point x="398.901" y="352.638"/>
      <point x="452" y="344"/>
      <point x="513" y="344" type="curve" smooth="yes"/>
      <point x="765" y="344"/>
      <point x="912" y="444"/>
      <point x="912" y="617" type="curve" smooth="yes"/>
      <point x="912" y="627" type="line" smooth="yes"/>
      <point x="912" y="790"/>
      <point x="804" y="883"/>
      <point x="606" y="883" type="curve" smooth="yes"/>
      <point x="455.063" y="883"/>
      <point x="347.818" y="808"/>
      <point x="322" y="696" type="curve"/>
      <point x="336" y="640" type="line"/>
      <point x="367.694" y="703.75"/>
      <point x="441.976" y="742"/>
      <point x="543" y="742" type="curve" smooth="yes"/>
      <point x="652.746" y="742"/>
      <point x="718" y="693.726"/>
      <point x="718" y="609" type="curve" smooth="yes"/>
      <point x="718" y="601" type="line" smooth="yes"/>
      <point x="718" y="511.3"/>
      <point x="649.75" y="463"/>
      <point x="536" y="463" type="curve" smooth="yes"/>
      <point x="404.323" y="463"/>
      <point x="337" y="531.285"/>
      <point x="337" y="654" type="curve"/>
      <point x="339" y="676" type="line"/>
      <point x="338" y="707" type="line"/>
      <point x="320" y="707" type="line"/>
      <point x="320" y="708" type="line"/>
      <point x="320" y="914"/>
      <point x="464.327" y="1011"/>
      <point x="749" y="1011" type="curve" smooth="yes"/>
      <point x="1032" y="1011"/>
      <point x="1172.53" y="897.989"/>
      <point x="1178" y="682" type="curve" smooth="yes"/>
      <point x="1182" y="524" type="line"/>
      <point x="1380" y="524" type="line"/>
      <point x="1384" y="720" type="line" smooth="yes"/>
      <point x="1387.78" y="905.005"/>
      <point x="1475" y="995"/>
      <point x="1669" y="995" type="curve" smooth="yes"/>
      <point x="1869" y="995"/>
      <point x="1966" y="901"/>
      <point x="1966" y="716" type="curve" smooth="yes"/>
      <point x="1966" y="707" type="line" smooth="yes"/>
      <point x="1966" y="521"/>
      <point x="1867" y="418"/>
      <point x="1669" y="418" type="curve" smooth="yes"/>
      <point x="756" y="418" type="line"/>
      <point x="350" y="372" type="line"/>
      <point x="351" y="362" type="line"/>
      <point x="207" y="344"/>
      <point x="136" y="255"/>
      <point x="136" y="137" type="curve"/>
      <point x="136" y="135" type="line"/>
      <point x="136" y="-26"/>
      <point x="236" y="-113"/>
      <point x="466" y="-113" type="curve" smooth="yes"/>
      <point x="1675" y="-113" type="line" smooth="yes"/>
      <point x="1999.95" y="-113"/>
      <point x="2160.28" y="-35.4087"/>
      <point x="2343" y="136" type="curve" smooth="yes"/>
      <point x="2553" y="333" type="line"/>
      <point x="2453" y="445" type="line"/>
      <point x="2223" y="241" type="line" smooth="yes"/>
      <point x="2064.53" y="100.447"/>
      <point x="1934.5" y="43"/>
      <point x="1646" y="43" type="curve" smooth="yes"/>
      <point x="486" y="43" type="line" smooth="yes"/>
      <point x="388" y="43"/>
      <point x="339" y="82.7699"/>
      <point x="339" y="150" type="curve" smooth="yes"/>
      <point x="339" y="153" type="line" smooth="yes"/>
      <point x="339" y="223.237"/>
      <point x="392" y="265"/>
      <point x="495" y="265" type="curve" smooth="yes"/>
      <point x="1676" y="265" type="line" smooth="yes"/>
      <point x="1988" y="265"/>
      <point x="2174" y="403.847"/>
      <point x="2174" y="716" type="curve" smooth="yes"/>
      <point x="2174" y="725" type="line" smooth="yes"/>
      <point x="2174" y="1014"/>
      <point x="2012" y="1169"/>
      <point x="1695" y="1169" type="curve" smooth="yes"/>
      <point x="1453" y="1169"/>
      <point x="1308" y="1072"/>
      <point x="1280" y="895" type="curve"/>
      <point x="1275" y="895" type="line"/>
      <point x="1229" y="1073"/>
      <point x="1049" y="1169"/>
    </contour>
  </outline>
</glyph>
<glyph name="KaKa.mlm" format="2">
  <advance width="3740"/>
  <outline>
    <contour>
      <point x="1296" y="137" type="curve" smooth="yes"/>
      <point x="1057" y="137"/>
      <point x="935" y="267"/>
      <point x="935" y="530" type="curve" smooth="yes"/>
      <point x="935" y="618" type="line" smooth="yes"/>
      <point x="935" y="879"/>
      <point x="1056" y="1009"/>
      <point x="1296" y="1009" type="curve" smooth="yes"/>
      <point x="1536" y="1009"/>
      <point x="1657" y="879"/>
      <point x="1657" y="618" type="curve" smooth="yes"/>
      <point x="1657" y="530" type="line" smooth="yes"/>
      <point x="1657" y="267"/>
      <point x="1535" y="137"/>
    </contour>
    <contour>
      <point x="1296" y="-33" type="curve" smooth="yes"/>
      <point x="1664" y="-33"/>
      <point x="1855" y="156"/>
      <point x="1855" y="528" type="curve" smooth="yes"/>
      <point x="1855" y="615" type="line" smooth="yes"/>
      <point x="1855" y="989"/>
      <point x="1664" y="1178"/>
      <point x="1296" y="1178" type="curve" smooth="yes"/>
      <point x="928" y="1178"/>
      <point x="737" y="989"/>
      <point x="737" y="615" type="curve" smooth="yes"/>
      <point x="737" y="528" type="line" smooth="yes"/>
      <point x="737" y="408"/>
      <point x="757" y="307"/>
      <point x="794" y="227" type="curve"/>
      <point x="819" y="194" type="line"/>
      <point x="906" y="42"/>
      <point x="1069" y="-33"/>
    </contour>
    <contour>
      <point x="490" y="-33" type="curve" smooth="yes"/>
      <point x="680" y="-33"/>
      <point x="783" y="46"/>
      <point x="821" y="180" type="curve"/>
      <point x="859" y="186" type="line"/>
      <point x="778" y="287" type="line"/>
      <point x="753" y="201"/>
      <point x="682" y="132"/>
      <point x="542" y="132" type="curve" smooth="yes"/>
      <point x="395" y="132"/>
      <point x="316" y="202"/>
      <point x="316" y="335" type="curve" smooth="yes"/>
      <point x="316" y="345" type="line" smooth="yes"/>
      <point x="316" y="482"/>
      <point x="406" y="549"/>
      <point x="580" y="549" type="curve" smooth="yes"/>
      <point x="802" y="549" type="line"/>
      <point x="802.825" y="548.981"/>
      <point x="843.9" y="548.026"/>
      <point x="845" y="548" type="curve"/>
      <point x="1733" y="548" type="line"/>
      <point x="1778" y="548" type="line"/>
      <point x="2526" y="548" type="line" smooth="yes"/>
      <point x="2708" y="548"/>
      <point x="2791" y="483"/>
      <point x="2791" y="346" type="curve" smooth="yes"/>
      <point x="2791" y="340" type="line" smooth="yes"/>
      <point x="2791" y="206"/>
      <point x="2702" y="129"/>
      <point x="2544" y="129" type="curve" smooth="yes"/>
      <point x="2355" y="129"/>
      <point x="2256" y="234"/>
      <point x="2256" y="444" type="curve" smooth="yes"/>
      <point x="2256" y="502" type="line" smooth="yes"/>
      <point x="2256" y="586"/>
      <point x="2267" y="644"/>
      <point x="2279" y="683" type="curve" smooth="yes"/>
      <point x="2344" y="898"/>
      <point x="2526" y="1001"/>
      <point x="2820" y="1001" type="curve" smooth="yes"/>
      <point x="3201" y="1001"/>
      <point x="3397" y="832"/>
      <point x="3397" y="495" type="curve" smooth="yes"/>
      <point x="3397" y="479" type="line" smooth="yes"/>
      <point x="3397" y="302"/>
      <point x="3341" y="147"/>
      <point x="3239" y="0" type="curve"/>
      <point x="3458" y="0" type="line"/>
      <point x="3553" y="122"/>
      <point x="3606" y="300"/>
      <point x="3606" y="492" type="curve" smooth="yes"/>
      <point x="3606" y="507" type="line" smooth="yes"/>
      <point x="3606" y="948"/>
      <point x="3342" y="1175"/>
      <point x="2823" y="1175" type="curve" smooth="yes"/>
      <point x="2311" y="1175"/>
      <point x="2052" y="939"/>
      <point x="2052" y="484" type="curve" smooth="yes"/>
      <point x="2052" y="454" type="line" smooth="yes"/>
      <point x="2052" y="137"/>
      <point x="2220" y="-36"/>
      <point x="2543" y="-36" type="curve" smooth="yes"/>
      <point x="2837" y="-36"/>
      <point x="2994" y="97"/>
      <point x="2994" y="340" type="curve" smooth="yes"/>
      <point x="2994" y="348" type="line" smooth="yes"/>
      <point x="2994" y="587"/>
      <point x="2848" y="706"/>
      <point x="2558" y="706" type="curve" smooth="yes"/>
      <point x="2222" y="706" type="line"/>
      <point x="2144" y="710" type="line"/>
      <point x="1815" y="710" type="line"/>
      <point x="1721" y="710" type="line"/>
      <point x="850" y="710" type="line"/>
      <point x="798" y="711" type="line"/>
      <point x="574" y="711" type="line" smooth="yes"/>
      <point x="270" y="711"/>
      <point x="114" y="587"/>
      <point x="114" y="341" type="curve" smooth="yes"/>
      <point x="114" y="327" type="line" smooth="yes"/>
      <point x="114" y="93"/>
      <point x="246" y="-33"/>
    </contour>
  </outline>
</glyph>
<glyph name="KaLa.mlm" format="2">
  <advance width="2559"/>
  <outline>
    <contour>
      <point x="1296" y="137" type="curve" smooth="yes"/>
      <point x="1057" y="137"/>
      <point x="935" y="267"/>
      <point x="935" y="530" type="curve" smooth="yes"/>
      <point x="935" y="618" type="line" smooth="yes"/>
      <point x="935" y="879"/>
      <point x="1056" y="1009"/>
      <point x="1296" y="1009" type="curve" smooth="yes"/>
      <point x="1536" y="1009"/>
      <point x="1657" y="879"/>
      <point x="1657" y="618" type="curve" smooth="yes"/>
      <point x="1657" y="530" type="line" smooth="yes"/>
      <point x="1657" y="267"/>
      <point x="1535" y="137"/>
    </contour>
    <contour>
      <point x="1296" y="-24" type="curve" smooth="yes"/>
      <point x="1664" y="-24"/>
      <point x="1855" y="162"/>
      <point x="1855" y="528" type="curve" smooth="yes"/>
      <point x="1855" y="615" type="line" smooth="yes"/>
      <point x="1855" y="989"/>
      <point x="1664" y="1178"/>
      <point x="1296" y="1178" type="curve" smooth="yes"/>
      <point x="928" y="1178"/>
      <point x="737" y="989"/>
      <point x="737" y="615" type="curve" smooth="yes"/>
      <point x="737" y="528" type="line" smooth="yes"/>
      <point x="737" y="408"/>
      <point x="757" y="307"/>
      <point x="794" y="227" type="curve"/>
      <point x="819" y="194" type="line"/>
      <point x="906" y="48"/>
      <point x="1069" y="-24"/>
    </contour>
    <contour>
      <point x="2240" y="327" type="curve" smooth="yes"/>
      <point x="2240" y="314" type="line" smooth="yes"/>
      <point x="2240" y="194"/>
      <point x="2191" y="87"/>
      <point x="2111" y="0" type="curve"/>
      <point x="2322" y="0" type="line"/>
      <point x="2400" y="85"/>
      <point x="2443" y="204"/>
      <point x="2443" y="325" type="curve" smooth="yes"/>
      <point x="2443" y="338" type="line" smooth="yes"/>
      <point x="2443" y="584"/>
      <point x="2298" y="710"/>
      <point x="2024" y="710" type="curve" smooth="yes"/>
      <point x="1815" y="710" type="line"/>
      <point x="1721" y="710" type="line"/>
      <point x="850" y="710" type="line"/>
      <point x="798" y="711" type="line"/>
      <point x="574" y="711" type="line" smooth="yes"/>
      <point x="270" y="711"/>
      <point x="114" y="587"/>
      <point x="114" y="341" type="curve" smooth="yes"/>
      <point x="114" y="327" type="line" smooth="yes"/>
      <point x="114" y="93"/>
      <point x="246" y="-33"/>
      <point x="490" y="-33" type="curve" smooth="yes"/>
      <point x="680" y="-33"/>
      <point x="783" y="46"/>
      <point x="821" y="180" type="curve"/>
      <point x="859" y="186" type="line"/>
      <point x="778" y="287" type="line"/>
      <point x="753" y="201"/>
      <point x="682" y="132"/>
      <point x="542" y="132" type="curve" smooth="yes"/>
      <point x="395" y="132"/>
      <point x="316" y="202"/>
      <point x="316" y="335" type="curve" smooth="yes"/>
      <point x="316" y="345" type="line" smooth="yes"/>
      <point x="316" y="482"/>
      <point x="406" y="549"/>
      <point x="580" y="549" type="curve" smooth="yes"/>
      <point x="802" y="549" type="line"/>
      <point x="845" y="548" type="line"/>
      <point x="1733" y="548" type="line"/>
      <point x="1778" y="548" type="line"/>
      <point x="1984" y="548" type="line" smooth="yes"/>
      <point x="2152" y="548"/>
      <point x="2240" y="474"/>
    </contour>
    <contour>
      <point x="1266" y="81" type="curve" smooth="yes"/>
      <point x="912" y="81"/>
      <point x="735" y="-48"/>
      <point x="735" y="-291" type="curve" smooth="yes"/>
      <point x="735" y="-301" type="line" smooth="yes"/>
      <point x="735" y="-486"/>
      <point x="849" y="-586"/>
      <point x="1084" y="-586" type="curve" smooth="yes"/>
      <point x="1295" y="-586"/>
      <point x="1411" y="-512"/>
      <point x="1411" y="-364" type="curve" smooth="yes"/>
      <point x="1411" y="-361" type="line" smooth="yes"/>
      <point x="1411" y="-224"/>
      <point x="1309" y="-147"/>
      <point x="1138" y="-147" type="curve" smooth="yes"/>
      <point x="1020" y="-147"/>
      <point x="932" y="-197"/>
      <point x="896" y="-287" type="curve"/>
      <point x="901" y="-338" type="line"/>
      <point x="934" y="-296"/>
      <point x="1000" y="-267"/>
      <point x="1089" y="-267" type="curve" smooth="yes"/>
      <point x="1188" y="-267"/>
      <point x="1244" y="-302"/>
      <point x="1244" y="-364" type="curve" smooth="yes"/>
      <point x="1244" y="-367" type="line" smooth="yes"/>
      <point x="1244" y="-431.337"/>
      <point x="1183" y="-463"/>
      <point x="1082" y="-463" type="curve" smooth="yes"/>
      <point x="961" y="-463"/>
      <point x="902" y="-417.341"/>
      <point x="902" y="-327" type="curve" smooth="yes"/>
      <point x="902" y="-309" type="line"/>
      <point x="919" y="-280" type="line"/>
      <point x="895" y="-280" type="line"/>
      <point x="895" y="-121"/>
      <point x="1025" y="-34"/>
      <point x="1266" y="-34" type="curve" smooth="yes"/>
      <point x="1512" y="-34"/>
      <point x="1618" y="-124"/>
      <point x="1640" y="-279" type="curve" smooth="yes"/>
      <point x="1642" y="-293" type="line" smooth="yes"/>
      <point x="1669" y="-484"/>
      <point x="1768" y="-586"/>
      <point x="2023" y="-586" type="curve" smooth="yes"/>
      <point x="2268" y="-586"/>
      <point x="2394" y="-478"/>
      <point x="2394" y="-258" type="curve" smooth="yes"/>
      <point x="2394" y="-250" type="line" smooth="yes"/>
      <point x="2394" y="-137"/>
      <point x="2344" y="-39"/>
      <point x="2263" y="24" type="curve"/>
      <point x="2111" y="0" type="line"/>
      <point x="2185" y="-65"/>
      <point x="2223" y="-149"/>
      <point x="2223" y="-243" type="curve" smooth="yes"/>
      <point x="2223" y="-251" type="line" smooth="yes"/>
      <point x="2223" y="-382"/>
      <point x="2160" y="-447"/>
      <point x="2023" y="-447" type="curve" smooth="yes"/>
      <point x="1881" y="-447"/>
      <point x="1824" y="-384"/>
      <point x="1807" y="-264" type="curve" smooth="yes"/>
      <point x="1805" y="-250" type="line" smooth="yes"/>
      <point x="1774" y="-33"/>
      <point x="1626" y="81"/>
    </contour>
  </outline>
</glyph>
